<svg width="108" height="91" viewBox="0 0 108 91" fill="none" xmlns="http://www.w3.org/2000/svg">
<path d="M19.4357 54.4108C8.66724 54.4108 0 45.6122 0 34.9751C0 24.2068 8.66724 15.5396 19.4357 15.5396C19.6982 15.5396 19.9609 15.5396 20.2236 15.5396C25.4764 6.21566 35.1943 0.4375 45.9626 0.4375C55.0238 0.4375 63.8224 4.77112 69.3379 11.9938C70.3884 11.8625 71.4391 11.7312 72.4897 11.7312C75.2474 11.7312 78.0052 12.2564 80.6315 13.1757C87.0664 15.5396 91.9252 20.6611 94.289 27.0958L91.7939 28.015C89.6928 22.3683 85.3592 17.772 79.7123 15.6708C77.3485 14.7515 74.9847 14.3577 72.4897 14.3577C71.4391 14.3577 70.2572 14.489 69.0753 14.6202L68.156 14.8829L67.6307 14.2263C62.6405 7.26623 54.4986 3.06394 45.9626 3.06394C35.9822 3.06394 26.7896 8.57945 22.1934 17.5094L21.7995 18.2972L20.8801 18.1659C20.3549 18.1659 19.9609 18.0346 19.4357 18.0346C10.2431 18.0346 2.62644 25.6513 2.62644 34.9751C2.62644 44.299 10.2431 51.7843 19.4357 51.7843V54.4108Z" fill="#FFCB05"/>
<path d="M108 40.3553C108 48.6632 101.23 55.5353 92.82 55.5353V52.7241C99.9997 52.7241 105.136 47.6376 105.136 40.3553C105.136 33.0729 99.9997 27.9864 92.82 27.9864H92.2046V25.1753H92.82C101.23 25.1753 108 31.9448 108 40.3553Z" fill="#FFCB05"/>
<path d="M17.3342 74.8969C13.7885 74.8969 11.0308 72.0079 11.0308 68.5936C11.0308 65.1792 13.9198 62.29 17.3342 62.29C20.7486 62.29 23.6376 65.1792 23.6376 68.5936C23.6376 72.0079 20.7486 74.8969 17.3342 74.8969ZM17.3342 64.7852C15.2331 64.7852 13.6572 66.4924 13.6572 68.4622C13.6572 70.432 15.3644 72.1393 17.3342 72.1393C19.304 72.1393 21.0112 70.432 21.0112 68.4622C21.0112 66.4924 19.304 64.7852 17.3342 64.7852Z" fill="#FFCB05"/>
<path d="M87.2468 74.8969C90.7925 74.8969 93.5503 72.0079 93.5503 68.5936C93.5503 65.1792 90.6611 62.29 87.2468 62.29C83.8324 62.29 80.9434 65.1792 80.9434 68.5936C80.9434 72.0079 83.8324 74.8969 87.2468 74.8969ZM87.2468 64.7852C89.348 64.7852 90.9238 66.4924 90.9238 68.4622C90.9238 70.432 89.2167 72.1393 87.2468 72.1393C85.277 72.1393 83.5698 70.432 83.5698 68.4622C83.5698 66.4924 85.277 64.7852 87.2468 64.7852Z" fill="#FFCB05"/>
<path d="M34.8005 85.0093C31.2548 85.0093 28.4971 82.1202 28.4971 78.7059C28.4971 75.2915 31.3861 72.4023 34.8005 72.4023C38.2148 72.4023 41.1039 75.2915 41.1039 78.7059C41.1039 82.1202 38.2148 85.0093 34.8005 85.0093ZM34.8005 74.8975C32.6993 74.8975 31.1234 76.6046 31.1234 78.5745C31.1234 80.5443 32.8307 82.2515 34.8005 82.2515C36.7703 82.2515 38.4775 80.5443 38.4775 78.5745C38.4775 76.6046 36.7703 74.8975 34.8005 74.8975Z" fill="#FFCB05"/>
<path d="M69.7805 85.0093C73.3262 85.0093 76.084 82.1202 76.084 78.7059C76.084 75.2915 73.1948 72.4023 69.7805 72.4023C66.3661 72.4023 63.4771 75.2915 63.4771 78.7059C63.4771 82.1202 66.3661 85.0093 69.7805 85.0093ZM69.7805 74.8975C71.8816 74.8975 73.4575 76.6046 73.4575 78.5745C73.4575 80.5443 71.7504 82.2515 69.7805 82.2515C67.8107 82.2515 66.1035 80.5443 66.1035 78.5745C66.1035 76.6046 67.8107 74.8975 69.7805 74.8975Z" fill="#FFCB05"/>
<path d="M52.2663 90.3931C48.7206 90.3931 45.9629 87.5039 45.9629 84.0895C45.9629 80.6752 48.8519 77.7861 52.2663 77.7861C55.6807 77.7861 58.5698 80.6752 58.5698 84.0895C58.5698 87.5039 55.6807 90.3931 52.2663 90.3931ZM52.2663 80.2812C50.1652 80.2812 48.5893 81.9884 48.5893 83.9582C48.5893 85.928 50.2965 87.6352 52.2663 87.6352C54.2361 87.6352 55.9433 85.928 55.9433 83.9582C55.9433 81.9884 54.2361 80.2812 52.2663 80.2812Z" fill="#FFCB05"/>
<path d="M52.0032 39.9654C51.6092 39.9654 51.3467 39.7028 51.3467 39.3088V38.6523C51.3467 38.2583 51.6092 37.9956 52.0032 37.9956C52.3972 37.9956 52.6598 38.2583 52.6598 38.6523V39.3088C52.6598 39.7028 52.3972 39.9654 52.0032 39.9654Z" fill="#FFCB05"/>
<path d="M52.0032 75.2914C51.6092 75.2914 51.3467 75.0287 51.3467 74.6347V73.3216C51.3467 72.9276 51.6092 72.6649 52.0032 72.6649C52.3972 72.6649 52.6598 72.9276 52.6598 73.3216V74.6347C52.6598 74.8974 52.3972 75.2914 52.0032 75.2914ZM52.0032 70.1698C51.6092 70.1698 51.3467 69.9072 51.3467 69.5132V68.2C51.3467 67.806 51.6092 67.5434 52.0032 67.5434C52.3972 67.5434 52.6598 67.806 52.6598 68.2V69.5132C52.6598 69.9072 52.3972 70.1698 52.0032 70.1698ZM52.0032 65.1796C51.6092 65.1796 51.3467 64.917 51.3467 64.5229V63.2098C51.3467 62.8158 51.6092 62.5532 52.0032 62.5532C52.3972 62.5532 52.6598 62.8158 52.6598 63.2098V64.5229C52.6598 64.917 52.3972 65.1796 52.0032 65.1796ZM52.0032 60.058C51.6092 60.058 51.3467 59.7955 51.3467 59.4014V58.0882C51.3467 57.6943 51.6092 57.4316 52.0032 57.4316C52.3972 57.4316 52.6598 57.6943 52.6598 58.0882V59.4014C52.6598 59.7955 52.3972 60.058 52.0032 60.058ZM52.0032 55.0678C51.6092 55.0678 51.3467 54.8052 51.3467 54.4112V53.098C51.3467 52.704 51.6092 52.4414 52.0032 52.4414C52.3972 52.4414 52.6598 52.704 52.6598 53.098V54.4112C52.6598 54.8052 52.3972 55.0678 52.0032 55.0678ZM52.0032 50.0776C51.6092 50.0776 51.3467 49.8149 51.3467 49.421V48.1078C51.3467 47.7138 51.6092 47.4512 52.0032 47.4512C52.3972 47.4512 52.6598 47.7138 52.6598 48.1078V49.421C52.6598 49.6837 52.3972 50.0776 52.0032 50.0776ZM52.0032 44.9561C51.6092 44.9561 51.3467 44.6934 51.3467 44.2994V42.9863C51.3467 42.5923 51.6092 42.3296 52.0032 42.3296C52.3972 42.3296 52.6598 42.5923 52.6598 42.9863V44.2994C52.6598 44.6934 52.3972 44.9561 52.0032 44.9561Z" fill="#FFCB05"/>
<path d="M52.0032 79.6247C51.6092 79.6247 51.3467 79.362 51.3467 78.968V78.3115C51.3467 77.9175 51.6092 77.6548 52.0032 77.6548C52.3972 77.6548 52.6598 77.9175 52.6598 78.3115V78.968C52.6598 79.362 52.3972 79.6247 52.0032 79.6247Z" fill="#FFCB05"/>
<path d="M43.2049 39.9654C42.8109 39.9654 42.5483 39.7028 42.5483 39.3088V38.6523C42.5483 38.2583 42.8109 37.9956 43.2049 37.9956C43.5989 37.9956 43.8615 38.2583 43.8615 38.6523V39.3088C43.8615 39.7028 43.4676 39.9654 43.2049 39.9654Z" fill="#FFCB05"/>
<path d="M38.2147 70.4316C38.0833 70.4316 38.0833 70.4316 37.952 70.3003C37.6893 70.169 37.4268 69.7749 37.6893 69.3811L38.2147 68.1992C38.346 67.9365 38.7399 67.6738 39.1339 67.9365C39.3966 68.0678 39.6592 68.4617 39.3966 68.8557L38.7399 70.0376C38.7399 70.3003 38.4773 70.4316 38.2147 70.4316ZM40.4471 65.704C40.3158 65.704 40.3158 65.704 40.1845 65.5727C39.9218 65.4413 39.6592 65.0473 39.9218 64.6534L40.4471 63.4715C40.5785 63.2089 40.9723 63.0775 41.3664 63.2089C41.629 63.3402 41.8917 63.7342 41.629 64.1281L41.1037 65.31C40.9723 65.5727 40.7098 65.704 40.4471 65.704ZM42.8109 60.9764C42.6796 60.9764 42.6796 60.9764 42.5483 60.8451C42.2856 60.7137 42.023 60.3198 42.2856 59.9258L42.5483 59.4005V59.0066C42.5483 58.6126 42.8109 58.3499 43.2048 58.3499C43.5988 58.3499 43.8615 58.6126 43.8615 59.0066V59.5318C43.8615 59.6632 43.8615 59.7945 43.7302 59.7945L43.3362 60.4511C43.3362 60.8451 43.0736 60.9764 42.8109 60.9764ZM43.2048 55.7236C42.8109 55.7236 42.5483 55.4609 42.5483 55.0669V53.7537C42.5483 53.3598 42.8109 53.0971 43.2048 53.0971C43.5988 53.0971 43.8615 53.3598 43.8615 53.7537V55.0669C43.8615 55.4609 43.4675 55.7236 43.2048 55.7236ZM43.2048 50.4706C42.8109 50.4706 42.5483 50.2081 42.5483 49.8141V48.5008C42.5483 48.1068 42.8109 47.8443 43.2048 47.8443C43.5988 47.8443 43.8615 48.1068 43.8615 48.5008V49.8141C43.8615 50.2081 43.4675 50.4706 43.2048 50.4706ZM43.2048 45.2178C42.8109 45.2178 42.5483 44.9551 42.5483 44.5612V43.248C42.5483 42.854 42.8109 42.5913 43.2048 42.5913C43.5988 42.5913 43.8615 42.854 43.8615 43.248V44.5612C43.8615 44.9551 43.4675 45.2178 43.2048 45.2178Z" fill="#FFCB05"/>
<path d="M36.2444 74.6341C36.113 74.6341 36.113 74.6341 35.9818 74.5028C35.7192 74.3715 35.4565 73.9776 35.7192 73.5836L35.9818 73.0583C36.113 72.7957 36.507 72.6643 36.9011 72.7957C37.1637 72.927 37.4263 73.3209 37.1637 73.7149L36.7697 74.2402C36.6384 74.5028 36.3757 74.6341 36.2444 74.6341Z" fill="#FFCB05"/>
<path d="M61.3763 39.9654C61.7703 39.9654 62.033 39.7028 62.033 39.3088V38.6523C62.033 38.2583 61.7703 37.9956 61.3763 37.9956C60.9824 37.9956 60.7197 38.2583 60.7197 38.6523V39.3088C60.7197 39.7028 61.1137 39.9654 61.3763 39.9654Z" fill="#FFCB05"/>
<path d="M66.3666 70.4316C66.4979 70.4316 66.4979 70.4316 66.6292 70.3003C66.8919 70.169 67.1546 69.7749 66.8919 69.3811L66.3666 68.1992C66.2353 67.9365 65.8413 67.6738 65.4473 67.9365C65.1848 68.0678 64.9221 68.4617 65.1848 68.8557L65.8413 70.0376C65.8413 70.3003 66.104 70.4316 66.3666 70.4316ZM64.1341 65.704C64.2654 65.704 64.2654 65.704 64.3968 65.5727C64.6594 65.4413 64.9221 65.0473 64.6594 64.6534L64.1341 63.4715C64.0029 63.2089 63.6089 63.0775 63.2149 63.2089C62.9522 63.3402 62.6896 63.7342 62.9522 64.1281L63.4775 65.31C63.6089 65.5727 63.8715 65.704 64.1341 65.704ZM61.7704 60.9764C61.9016 60.9764 61.9016 60.9764 62.033 60.8451C62.2956 60.7137 62.5583 60.3198 62.2956 59.9258L62.033 59.4005V59.0066C62.033 58.6126 61.7704 58.3499 61.3764 58.3499C60.9824 58.3499 60.7197 58.6126 60.7197 59.0066V59.5318C60.7197 59.6632 60.7197 59.7945 60.8511 59.7945L61.2451 60.4511C61.2451 60.8451 61.5077 60.9764 61.7704 60.9764ZM61.3764 55.7236C61.7704 55.7236 62.033 55.4609 62.033 55.0669V53.7537C62.033 53.3598 61.7704 53.0971 61.3764 53.0971C60.9824 53.0971 60.7197 53.3598 60.7197 53.7537V55.0669C60.7197 55.4609 61.1137 55.7236 61.3764 55.7236ZM61.3764 50.4706C61.7704 50.4706 62.033 50.2081 62.033 49.8141V48.5008C62.033 48.1068 61.7704 47.8443 61.3764 47.8443C60.9824 47.8443 60.7197 48.1068 60.7197 48.5008V49.8141C60.7197 50.2081 61.1137 50.4706 61.3764 50.4706ZM61.3764 45.2178C61.7704 45.2178 62.033 44.9551 62.033 44.5612V43.248C62.033 42.854 61.7704 42.5913 61.3764 42.5913C60.9824 42.5913 60.7197 42.854 60.7197 43.248V44.5612C60.7197 44.9551 61.1137 45.2178 61.3764 45.2178Z" fill="#FFCB05"/>
<path d="M68.3366 74.6341C68.468 74.6341 68.468 74.6341 68.5993 74.5028C68.862 74.3715 69.1245 73.9776 68.862 73.5836L68.5993 73.0583C68.468 72.7957 68.074 72.6643 67.6801 72.7957C67.4174 72.927 67.1547 73.3209 67.4174 73.7149L67.8113 74.2402C67.9426 74.5028 68.2053 74.6341 68.3366 74.6341Z" fill="#FFCB05"/>
<path d="M34.2748 39.9654C33.8808 39.9654 33.6182 39.7028 33.6182 39.3088V38.6523C33.6182 38.2583 33.8808 37.9956 34.2748 37.9956C34.6688 37.9956 34.9314 38.2583 34.9314 38.6523V39.3088C34.9314 39.7028 34.5375 39.9654 34.2748 39.9654Z" fill="#FFCB05"/>
<path d="M34.2748 51.3904C33.8808 51.3904 33.6182 51.1278 33.6182 50.7338V49.2892C33.6182 48.8953 33.8808 48.6327 34.2748 48.6327C34.6688 48.6327 34.9314 48.8953 34.9314 49.2892V50.7338C34.9314 51.1278 34.5375 51.3904 34.2748 51.3904ZM34.2748 45.7436C33.8808 45.7436 33.6182 45.481 33.6182 45.087V43.6424C33.6182 43.2485 33.8808 42.9858 34.2748 42.9858C34.6688 42.9858 34.9314 43.2485 34.9314 43.6424V45.087C34.9314 45.3496 34.5375 45.7436 34.2748 45.7436Z" fill="#FFCB05"/>
<path d="M33.7495 56.7755C33.4868 56.7755 33.3555 56.6441 33.2242 56.5128C32.9616 56.2501 33.0929 55.8561 33.3555 55.5935L33.6182 55.4622V55.1995C33.6182 54.8055 33.8808 54.543 34.2747 54.543C34.6687 54.543 34.9314 54.8055 34.9314 55.1995V55.8561C34.9314 56.1188 34.8001 56.2501 34.6687 56.3814L34.1435 56.7755C33.8808 56.7755 33.7495 56.7755 33.7495 56.7755Z" fill="#FFCB05"/>
<path d="M24.5566 62.9464C24.294 62.9464 24.1626 62.815 24.0313 62.6837C23.7687 62.421 23.9001 62.0271 24.1626 61.7645L25.3445 60.9766C25.6072 60.7139 26.0012 60.8452 26.2639 61.1079C26.5264 61.3705 26.3951 61.7645 26.1325 62.0271L24.9506 62.815C24.8193 62.9464 24.688 62.9464 24.5566 62.9464ZM29.1529 59.926C28.8902 59.926 28.7589 59.7947 28.6276 59.6633C28.365 59.4007 28.4963 59.0068 28.7589 58.7441L29.9408 57.9561C30.2035 57.6935 30.5975 57.8249 30.86 58.0874C31.1227 58.3501 30.9914 58.7441 30.7288 59.0067L29.5469 59.7947C29.4156 59.7947 29.2842 59.926 29.1529 59.926Z" fill="#FFCB05"/>
<path d="M20.6177 65.7048C20.355 65.7048 20.2237 65.5735 20.0923 65.4421C19.8298 65.1796 19.961 64.7856 20.2237 64.5229L20.749 64.129C21.0116 63.8664 21.4056 63.9977 21.6683 64.2602C21.9309 64.5229 21.7996 64.9169 21.5369 65.1796L21.0116 65.5735C20.749 65.7048 20.749 65.7048 20.6177 65.7048Z" fill="#FFCB05"/>
<path d="M70.306 39.9654C70.7 39.9654 70.9626 39.7028 70.9626 39.3088V38.6523C70.9626 38.2583 70.7 37.9956 70.306 37.9956C69.9121 37.9956 69.6494 38.2583 69.6494 38.6523V39.3088C69.6494 39.7028 70.0434 39.9654 70.306 39.9654Z" fill="#FFCB05"/>
<path d="M70.306 51.3904C70.7 51.3904 70.9626 51.1278 70.9626 50.7338V49.2892C70.9626 48.8953 70.7 48.6327 70.306 48.6327C69.9121 48.6327 69.6494 48.8953 69.6494 49.2892V50.7338C69.6494 51.1278 70.0434 51.3904 70.306 51.3904ZM70.306 45.7436C70.7 45.7436 70.9626 45.481 70.9626 45.087V43.6424C70.9626 43.2485 70.7 42.9858 70.306 42.9858C69.9121 42.9858 69.6494 43.2485 69.6494 43.6424V45.087C69.6494 45.3496 70.0434 45.7436 70.306 45.7436Z" fill="#FFCB05"/>
<path d="M70.8313 56.7755C71.094 56.7755 71.2253 56.6441 71.3567 56.5128C71.6193 56.2501 71.488 55.8561 71.2253 55.5935L70.9627 55.4622V55.1995C70.9627 54.8055 70.7001 54.543 70.3061 54.543C69.9121 54.543 69.6494 54.8055 69.6494 55.1995V55.8561C69.6494 56.1188 69.7807 56.2501 69.9121 56.3814L70.4374 56.7755C70.7001 56.7755 70.8313 56.7755 70.8313 56.7755Z" fill="#FFCB05"/>
<path d="M80.0242 62.9464C80.2869 62.9464 80.4182 62.815 80.5496 62.6837C80.8122 62.421 80.6809 62.0271 80.4182 61.7645L79.2363 60.9766C78.9737 60.7139 78.5798 60.8452 78.3171 61.1079C78.0544 61.3705 78.1857 61.7645 78.4484 62.0271L79.6303 62.815C79.7617 62.9464 79.8929 62.9464 80.0242 62.9464ZM75.4279 59.926C75.6906 59.926 75.822 59.7947 75.9533 59.6633C76.216 59.4007 76.0846 59.0068 75.8219 58.7441L74.64 57.9561C74.3774 57.6935 73.9835 57.8249 73.7208 58.0874C73.4581 58.3501 73.5895 58.7441 73.8522 59.0067L75.034 59.7947C75.1654 59.7947 75.2967 59.926 75.4279 59.926Z" fill="#FFCB05"/>
<path d="M83.9633 65.7048C84.2259 65.7048 84.3572 65.5735 84.4885 65.4421C84.7512 65.1796 84.6199 64.7856 84.3572 64.5229L83.832 64.129C83.5693 63.8664 83.1753 63.9977 82.9126 64.2602C82.6501 64.5229 82.7814 64.9169 83.044 65.1796L83.5693 65.5735C83.832 65.7048 83.832 65.7048 83.9633 65.7048Z" fill="#FFCB05"/>
</svg>
