<svg width="90" height="108" viewBox="0 0 90 108" fill="none" xmlns="http://www.w3.org/2000/svg">
<path d="M4.62705 47.6631H1.125V106.875L40.8491 104.605H48.7909L88.5295 106.875V47.6631H85.0278" stroke="#FFCB05" stroke-width="1.33333" stroke-miterlimit="10"/>
<path d="M38.5776 99.4312V104.735" stroke="#FFCB05" stroke-width="1.33333" stroke-miterlimit="10"/>
<path d="M51.062 99.4312V104.735" stroke="#FFCB05" stroke-width="1.33333" stroke-miterlimit="10"/>
<path d="M11.0596 20.4233L11.6898 20.7897" stroke="#FFCB05" stroke-width="1.33333" stroke-linecap="round" stroke-linejoin="round"/>
<path d="M15.2798 22.7969L27.8374 29.8155" stroke="#FFCB05" stroke-width="1.33333" stroke-linecap="round" stroke-linejoin="round" stroke-dasharray="1.17 3.51"/>
<path d="M29.6245 30.8267L30.2693 31.1783" stroke="#FFCB05" stroke-width="1.33333" stroke-linecap="round" stroke-linejoin="round"/>
<path d="M25.2583 6.69287L25.6834 7.29374" stroke="#FFCB05" stroke-width="1.33333" stroke-linecap="round" stroke-linejoin="round"/>
<path d="M27.8813 10.4736L35.6035 21.5806" stroke="#FFCB05" stroke-width="1.33333" stroke-linecap="round" stroke-linejoin="round" stroke-dasharray="1.1 3.3"/>
<path d="M36.7021 23.1631L37.1125 23.7639" stroke="#FFCB05" stroke-width="1.33333" stroke-linecap="round" stroke-linejoin="round"/>
<path d="M79.0194 20.4233L78.3892 20.7897" stroke="#FFCB05" stroke-width="1.33333" stroke-linecap="round" stroke-linejoin="round"/>
<path d="M74.8006 22.7969L62.2427 29.8155" stroke="#FFCB05" stroke-width="1.33333" stroke-linecap="round" stroke-linejoin="round" stroke-dasharray="1.17 3.51"/>
<path d="M60.4545 30.8267L59.8096 31.1783" stroke="#FFCB05" stroke-width="1.33333" stroke-linecap="round" stroke-linejoin="round"/>
<path d="M64.8064 6.69287L64.396 7.29374" stroke="#FFCB05" stroke-width="1.33333" stroke-linecap="round" stroke-linejoin="round"/>
<path d="M62.1987 10.4736L54.4766 21.5806" stroke="#FFCB05" stroke-width="1.33333" stroke-linecap="round" stroke-linejoin="round" stroke-dasharray="1.1 3.3"/>
<path d="M53.3772 23.1631L52.9668 23.7639" stroke="#FFCB05" stroke-width="1.33333" stroke-linecap="round" stroke-linejoin="round"/>
<path d="M45.04 1.125V1.85778" stroke="#FFCB05" stroke-width="1.33333" stroke-linecap="round" stroke-linejoin="round"/>
<path d="M45.04 6.15088V15.4408" stroke="#FFCB05" stroke-width="1.33333" stroke-linecap="round" stroke-linejoin="round" stroke-dasharray="1.23 3.66"/>
<path d="M45.04 17.5801V18.3128" stroke="#FFCB05" stroke-width="1.33333" stroke-linecap="round" stroke-linejoin="round"/>
<path d="M11.3818 47.2822L27.5 44.967C31.3434 44.4062 35.2615 44.6558 39.0026 45.6997" stroke="#FFCB05" stroke-width="1.33333" stroke-miterlimit="10"/>
<path d="M78.785 47.2822L62.6671 44.967C58.8238 44.4062 54.9056 44.6558 51.1646 45.6997" stroke="#FFCB05" stroke-width="1.33333" stroke-miterlimit="10"/>
<path d="M11.3818 59.7656L27.5 57.4504C31.3434 56.8897 35.2615 57.1392 39.0026 58.1831" stroke="#FFCB05" stroke-width="1.33333" stroke-miterlimit="10"/>
<path d="M78.785 59.7656L62.6671 57.4504C58.8238 56.8897 54.9056 57.1392 51.1646 58.1831" stroke="#FFCB05" stroke-width="1.33333" stroke-miterlimit="10"/>
<path d="M11.3818 72.1917L27.5 69.8763C31.3434 69.3154 35.2615 69.565 39.0026 70.6088" stroke="#FFCB05" stroke-width="1.33333" stroke-miterlimit="10"/>
<path d="M78.785 72.1916L62.6671 69.9348C58.8238 69.374 54.9056 69.6236 51.1646 70.6675" stroke="#FFCB05" stroke-width="1.33333" stroke-miterlimit="10"/>
<path d="M11.3818 84.7348L27.5 82.4492C31.3434 81.888 35.2615 82.1376 39.0026 83.1817" stroke="#FFCB05" stroke-width="1.33333" stroke-miterlimit="10"/>
<path d="M78.785 84.7348L62.6671 82.4492C58.8238 81.888 54.9056 82.1376 51.1646 83.1817" stroke="#FFCB05" stroke-width="1.33333" stroke-miterlimit="10"/>
<path d="M84.339 98.9337L65.7295 93.864C61.5819 92.7247 57.1955 92.791 53.0841 94.0543L44.6147 96.6621L37.3908 94.2595C33.2203 92.8707 28.737 92.7177 24.4816 93.8196L4.89062 98.9337L5.31556 38.4904L27.5001 35.2521C28.8111 35.0714 30.1329 34.9784 31.4564 34.9737C36.052 34.9792 40.5774 36.1006 44.644 38.2413L44.9371 38.4025L45.2302 38.2413C46.8333 37.3929 48.517 36.7056 50.256 36.1899C52.6203 35.4053 55.0916 34.9901 57.5825 34.959H58.3151C59.6631 34.9612 61.0093 35.0542 62.3448 35.2374L84.7634 38.4904L84.339 98.9337Z" stroke="#FFCB05" stroke-width="1.33333" stroke-miterlimit="10"/>
<path d="M6.83936 98.5664V102.611L26.5035 99.387C28.5799 99.0782 30.6758 98.9168 32.775 98.9034C36.365 98.823 39.9295 99.5231 43.2224 100.955L44.1456 101.439L45.0834 101.013C48.4997 99.5217 52.1997 98.792 55.9266 98.8745C58.1046 98.8914 60.2788 99.0627 62.4325 99.387L82.8144 102.728V98.5664" stroke="#FFCB05" stroke-width="1.33333" stroke-miterlimit="10"/>
<path d="M44.8198 101.204V96.6616" stroke="#FFCB05" stroke-width="1.33333" stroke-miterlimit="10"/>
</svg>
