<svg width="78" height="108" viewBox="0 0 78 108" fill="none" xmlns="http://www.w3.org/2000/svg">
<path fill-rule="evenodd" clip-rule="evenodd" d="M22.11 6.574C22.4042 6.34767 22.8262 6.40269 23.0525 6.6969L23.5103 7.29187C23.7365 7.58606 23.6815 8.00805 23.3873 8.23442C23.0932 8.46071 22.6712 8.40571 22.4448 8.11151L21.9871 7.51651C21.7607 7.22232 21.8158 6.80034 22.11 6.574Z" fill="#FFCB05"/>
<path fill-rule="evenodd" clip-rule="evenodd" d="M24.3673 9.50318C24.6615 9.27688 25.0835 9.33189 25.3098 9.62608L25.7197 10.1588C25.946 10.453 25.891 10.875 25.5968 11.1014C25.3026 11.3277 24.8806 11.2726 24.6543 10.9785L24.2444 10.4457C24.0181 10.1515 24.0731 9.72954 24.3673 9.50318ZM26.425 12.178C26.7193 11.9516 27.1413 12.0066 27.3676 12.3009L28.1873 13.3663C28.4137 13.6605 28.3586 14.0825 28.0644 14.3089C27.7702 14.5352 27.3482 14.4802 27.1219 14.186L26.3022 13.1205C26.0758 12.8263 26.1308 12.4043 26.425 12.178ZM28.8927 15.3855C29.1869 15.1591 29.6089 15.2141 29.8352 15.5083L30.6549 16.5739C30.8813 16.8681 30.8263 17.29 30.5321 17.5163C30.2379 17.7427 29.8159 17.6877 29.5895 17.3935L28.7698 16.328C28.5435 16.0338 28.5985 15.6118 28.8927 15.3855ZM31.3604 18.593C31.6545 18.3667 32.0765 18.4217 32.3028 18.7159L33.1225 19.7813C33.3489 20.0756 33.2939 20.4976 32.9996 20.7239C32.7055 20.9502 32.2835 20.8952 32.0572 20.601L31.2374 19.5355C31.0111 19.2413 31.0661 18.8193 31.3604 18.593ZM33.8279 21.8005C34.1221 21.5742 34.5441 21.6292 34.7705 21.9234L35.1803 22.4561C35.4067 22.7503 35.3517 23.1723 35.0575 23.3987C34.7632 23.625 34.3413 23.57 34.1149 23.2758L33.7051 22.743C33.4787 22.4488 33.5337 22.0269 33.8279 21.8005Z" fill="#FFCB05"/>
<path fill-rule="evenodd" clip-rule="evenodd" d="M35.1449 23.5031C35.4418 23.2804 35.8631 23.3406 36.0858 23.6376L36.5434 24.2477C36.7661 24.5447 36.7059 24.966 36.4089 25.1887C36.1119 25.4114 35.6907 25.3512 35.468 25.0542L35.0104 24.4441C34.7877 24.1471 34.8479 23.7258 35.1449 23.5031Z" fill="#FFCB05"/>
<path fill-rule="evenodd" clip-rule="evenodd" d="M17.6803 30.9867C17.998 31.1788 18.0998 31.592 17.9078 31.9096L17.511 32.5657C17.319 32.8834 16.9058 32.9852 16.5881 32.7932C16.2705 32.6011 16.1687 32.1879 16.3608 31.8703L16.7574 31.2141C16.9494 30.8965 17.3626 30.7947 17.6803 30.9867Z" fill="#FFCB05"/>
<path fill-rule="evenodd" clip-rule="evenodd" d="M33.4681 4.62345C33.7866 4.81419 33.8901 5.22696 33.6994 5.54541L33.307 6.20056C33.1163 6.519 32.7035 6.62253 32.385 6.4318C32.0666 6.24105 31.963 5.82828 32.1538 5.50984L32.5462 4.85469C32.737 4.53624 33.1498 4.43271 33.4681 4.62345ZM31.5061 7.89921C31.8245 8.08994 31.9281 8.50272 31.7373 8.82117L30.9525 10.1314C30.7618 10.4499 30.349 10.5534 30.0306 10.3627C29.7121 10.172 29.6086 9.75919 29.7993 9.44073L30.5842 8.1304C30.7749 7.81202 31.1877 7.70848 31.5061 7.89921ZM29.1516 11.8301C29.47 12.0209 29.5736 12.4336 29.3829 12.7521L28.5981 14.0623C28.4073 14.3808 27.9945 14.4843 27.6761 14.2936C27.3576 14.1029 27.2541 13.6901 27.4448 13.3716L28.2297 12.0613C28.4204 11.7429 28.8332 11.6394 29.1516 11.8301ZM26.7971 15.761C27.1156 15.9518 27.2191 16.3645 27.0284 16.6829L26.2436 17.9933C26.0528 18.3117 25.6401 18.4152 25.3216 18.2245C25.0032 18.0337 24.8996 17.6209 25.0904 17.3026L25.8752 15.9922C26.066 15.6738 26.4787 15.5702 26.7971 15.761ZM24.4426 19.6919C24.7611 19.8826 24.8646 20.2954 24.6739 20.6138L23.8891 21.9242C23.6983 22.2426 23.2855 22.3462 22.9672 22.1554C22.6487 21.9646 22.5452 21.5519 22.7359 21.2334L23.5207 19.9231C23.7115 19.6047 24.1243 19.5012 24.4426 19.6919ZM22.0882 23.6228C22.4066 23.8135 22.5102 24.2263 22.3194 24.5448L21.5346 25.8551C21.3438 26.1735 20.9311 26.277 20.6127 26.0863C20.2942 25.8955 20.1907 25.4828 20.3814 25.1643L21.1662 23.8541C21.3569 23.5356 21.7697 23.4321 22.0882 23.6228ZM19.7337 27.5537C20.0522 27.7444 20.1557 28.1572 19.965 28.4757L19.5726 29.1308C19.3818 29.4492 18.9691 29.5528 18.6506 29.3621C18.3321 29.1713 18.2286 28.7585 18.4193 28.4401L18.8117 27.7849C19.0025 27.4665 19.4152 27.363 19.7337 27.5537Z" fill="#FFCB05"/>
<path fill-rule="evenodd" clip-rule="evenodd" d="M34.6966 2.59928C35.0122 2.79467 35.1097 3.20892 34.9143 3.52453L34.5176 4.16527C34.3222 4.48088 33.908 4.57833 33.5923 4.38294C33.2768 4.18754 33.1793 3.7733 33.3747 3.45769L33.7713 2.81695C33.9667 2.50134 34.381 2.40389 34.6966 2.59928Z" fill="#FFCB05"/>
<path fill-rule="evenodd" clip-rule="evenodd" d="M19.007 32.5531C19.2769 32.2983 19.7022 32.3104 19.9571 32.5803L20.4759 33.1295C20.7308 33.3994 20.7186 33.8247 20.4487 34.0796C20.1789 34.3345 19.7534 34.3223 19.4986 34.0525L18.9799 33.5033C18.725 33.2334 18.7372 32.808 19.007 32.5531Z" fill="#FFCB05"/>
<path fill-rule="evenodd" clip-rule="evenodd" d="M21.7383 35.4513C22.0083 35.1965 22.4337 35.209 22.6884 35.479L23.1956 36.0168C23.4503 36.2868 23.4379 36.7122 23.1679 36.9669C22.8979 37.2216 22.4725 37.2092 22.2178 36.9392L21.7106 36.4014C21.4558 36.1314 21.4682 35.706 21.7383 35.4513ZM24.2746 38.1401C24.5446 37.8854 24.9699 37.8978 25.2247 38.1678L26.2392 39.2434C26.4939 39.5134 26.4814 39.9388 26.2114 40.1935C25.9414 40.4482 25.516 40.4358 25.2613 40.1658L24.2468 39.0902C23.9921 38.8202 24.0045 38.3948 24.2746 38.1401ZM27.3181 41.3667C27.5881 41.1121 28.0135 41.1244 28.2682 41.3944L29.2827 42.47C29.5374 42.74 29.525 43.1654 29.255 43.4201C28.985 43.6748 28.5596 43.6624 28.3048 43.3924L27.2904 42.3168C27.0356 42.0468 27.0481 41.6215 27.3181 41.3667ZM30.3616 44.5933C30.6317 44.3387 31.057 44.351 31.3117 44.621L32.3263 45.6966C32.5809 45.9667 32.5685 46.392 32.2985 46.6467C32.0285 46.9014 31.6031 46.889 31.3484 46.619L30.3339 45.5434C30.0791 45.2734 30.0916 44.8481 30.3616 44.5933ZM33.4051 47.8199C33.6752 47.5653 34.1006 47.5777 34.3552 47.8477L34.8625 48.3854C35.1172 48.6555 35.1048 49.0809 34.8347 49.3355C34.5647 49.5903 34.1394 49.5778 33.8846 49.3078L33.3774 48.77C33.1227 48.5 33.1351 48.0747 33.4051 47.8199Z" fill="#FFCB05"/>
<path fill-rule="evenodd" clip-rule="evenodd" d="M35.0323 49.5263C35.3057 49.2752 35.7308 49.2932 35.982 49.5665L36.5006 50.131C36.7517 50.4043 36.7337 50.8295 36.4603 51.0806C36.187 51.3318 35.7619 51.3138 35.5107 51.0404L34.9921 50.476C34.741 50.2027 34.759 49.7774 35.0323 49.5263Z" fill="#FFCB05"/>
<path fill-rule="evenodd" clip-rule="evenodd" d="M14.715 55.453C15.0181 55.6673 15.09 56.0867 14.8758 56.3898L14.4333 57.0154C14.2191 57.3185 13.7996 57.3904 13.4965 57.1761C13.1934 56.9618 13.1215 56.5424 13.3358 56.2393L13.7782 55.6137C13.9925 55.3106 14.4119 55.2387 14.715 55.453Z" fill="#FFCB05"/>
<path fill-rule="evenodd" clip-rule="evenodd" d="M33.4486 28.8615C33.752 29.0753 33.8247 29.4946 33.6109 29.7981L33.2562 30.3015C33.0425 30.6049 32.6231 30.6776 32.3197 30.4638C32.0162 30.25 31.9435 29.8307 32.1574 29.5273L32.512 29.0238C32.7259 28.7204 33.1451 28.6477 33.4486 28.8615ZM31.6751 31.3787C31.9785 31.5924 32.0512 32.0118 31.8375 32.3153L31.1281 33.3221C30.9142 33.6256 30.495 33.6982 30.1915 33.4845C29.8881 33.2706 29.8154 32.8514 30.0292 32.5479L30.7385 31.541C30.9524 31.2376 31.3716 31.1649 31.6751 31.3787ZM29.5469 34.3993C29.8503 34.6131 29.9231 35.0325 29.7092 35.3359L28.9999 36.3427C28.786 36.6462 28.3667 36.7188 28.0633 36.5051C27.7598 36.2913 27.6872 35.872 27.9009 35.5686L28.6104 34.5617C28.8241 34.2582 29.2435 34.1855 29.5469 34.3993ZM27.4187 37.42C27.7222 37.6338 27.7948 38.0531 27.581 38.3565L26.8716 39.3634C26.6579 39.6668 26.2385 39.7395 25.9351 39.5257C25.6316 39.3119 25.559 38.8926 25.7728 38.5892L26.4822 37.5823C26.696 37.2789 27.1153 37.2061 27.4187 37.42ZM25.2905 40.4406C25.594 40.6544 25.6666 41.0737 25.4529 41.3772L24.7435 42.384C24.5297 42.6875 24.1104 42.7602 23.8069 42.5464C23.5035 42.3325 23.4308 41.9133 23.6446 41.6098L24.354 40.603C24.5678 40.2995 24.9871 40.2268 25.2905 40.4406ZM23.1623 43.4613C23.4657 43.6751 23.5385 44.0944 23.3247 44.3978L22.6153 45.4047C22.4014 45.7081 21.9822 45.7808 21.6787 45.567C21.3753 45.3532 21.3026 44.9339 21.5164 44.6305L22.2258 43.6236C22.4396 43.3202 22.8589 43.2474 23.1623 43.4613ZM21.0342 46.4819C21.3376 46.6957 21.4103 47.115 21.1964 47.4184L20.4871 48.4253C20.2733 48.7287 19.8539 48.8015 19.5505 48.5876C19.247 48.3738 19.1744 47.9545 19.3882 47.6511L20.0976 46.6442C20.3114 46.3408 20.7307 46.2681 21.0342 46.4819ZM18.9059 49.5025C19.2094 49.7164 19.282 50.1356 19.0683 50.4391L18.3589 51.4459C18.1451 51.7494 17.7258 51.8221 17.4224 51.6083C17.1189 51.3945 17.0462 50.9752 17.26 50.6717L17.9694 49.6649C18.1832 49.3614 18.6025 49.2887 18.9059 49.5025ZM16.7777 52.5232C17.0812 52.737 17.1539 53.1563 16.9401 53.4597L16.5854 53.9631C16.3716 54.2666 15.9523 54.3393 15.6488 54.1255C15.3454 53.9117 15.2727 53.4924 15.4865 53.1889L15.8412 52.6855C16.055 52.3821 16.4743 52.3094 16.7777 52.5232Z" fill="#FFCB05"/>
<path fill-rule="evenodd" clip-rule="evenodd" d="M34.7375 27.0357C35.0381 27.2536 35.105 27.6738 34.8872 27.9744L34.4448 28.5846C34.227 28.8852 33.8067 28.9522 33.5062 28.7343C33.2057 28.5165 33.1387 28.0963 33.3565 27.7957L33.7989 27.1855C34.0167 26.8849 34.437 26.8178 34.7375 27.0357Z" fill="#FFCB05"/>
<path fill-rule="evenodd" clip-rule="evenodd" d="M11.3265 60.0697C11.5656 59.7858 11.9896 59.7495 12.2736 59.9886L12.8532 60.4768C13.1372 60.7159 13.1735 61.1399 12.9344 61.4238C12.6953 61.7078 12.2713 61.7441 11.9874 61.505L11.4076 61.0168C11.1237 60.7777 11.0874 60.3537 11.3265 60.0697Z" fill="#FFCB05"/>
<path fill-rule="evenodd" clip-rule="evenodd" d="M14.4232 62.6776C14.6623 62.3938 15.0863 62.3574 15.3703 62.5965L15.9583 63.0919C16.2423 63.331 16.2786 63.755 16.0394 64.0389C15.8003 64.3228 15.3763 64.3591 15.0924 64.1199L14.5043 63.6247C14.2204 63.3856 14.1841 62.9615 14.4232 62.6776ZM17.3745 65.1633C17.6136 64.8794 18.0376 64.8431 18.3215 65.0822L19.4977 66.0728C19.7816 66.3119 19.8179 66.7359 19.5787 67.0199C19.3396 67.3038 18.9156 67.3401 18.6317 67.101L17.4555 66.1104C17.1716 65.8712 17.1354 65.4472 17.3745 65.1633ZM20.9138 68.1443C21.153 67.8603 21.577 67.8241 21.8609 68.0632L23.037 69.0538C23.3209 69.2929 23.3572 69.7169 23.1181 70.0008C22.879 70.2847 22.455 70.3211 22.171 70.0819L20.9949 69.0913C20.711 68.8522 20.6747 68.4282 20.9138 68.1443ZM24.4531 71.1253C24.6923 70.8414 25.1163 70.8051 25.4002 71.0442L26.5764 72.0349C26.8602 72.2739 26.8966 72.698 26.6574 72.9817C26.4183 73.2654 25.9943 73.3021 25.7104 73.0631L24.5343 72.0723C24.2503 71.8332 24.214 71.4092 24.4531 71.1253ZM27.9925 74.1063C28.2316 73.8227 28.6556 73.7859 28.9395 74.025L30.1157 75.0157C30.3996 75.2547 30.4359 75.6788 30.1968 75.9625C29.9577 76.2469 29.5337 76.2829 29.2498 76.0439L28.0736 75.0531C27.7897 74.8141 27.7534 74.39 27.9925 74.1063ZM31.5318 77.0871C31.7709 76.8035 32.1949 76.7667 32.4789 77.0058L33.0669 77.5011C33.3509 77.7409 33.3872 78.1643 33.1481 78.4487C32.909 78.7323 32.485 78.7683 32.201 78.5293L31.613 78.0339C31.329 77.7949 31.2927 77.3708 31.5318 77.0871Z" fill="#FFCB05"/>
<path fill-rule="evenodd" clip-rule="evenodd" d="M33.3932 78.6275C33.6367 78.3474 34.0612 78.3171 34.3414 78.5605L34.921 79.0645C35.2012 79.3079 35.2311 79.7327 34.9876 80.0127C34.7442 80.2928 34.3197 80.3223 34.0394 80.079L33.4598 79.5757C33.1796 79.3323 33.1498 78.9075 33.3932 78.6275Z" fill="#FFCB05"/>
<path fill-rule="evenodd" clip-rule="evenodd" d="M7.17164 89.0754C7.45859 89.3108 7.50033 89.7342 7.26487 90.0215L6.77667 90.6162C6.54121 90.9035 6.1177 90.9452 5.83074 90.7098C5.54379 90.4744 5.50205 90.0503 5.73751 89.7637L6.22571 89.1683C6.46118 88.8817 6.88468 88.84 7.17164 89.0754Z" fill="#FFCB05"/>
<path fill-rule="evenodd" clip-rule="evenodd" d="M34.8263 54.8075C35.115 55.0407 35.1601 55.4639 34.9268 55.7526L34.4986 56.2827C34.2654 56.5715 33.8422 56.6166 33.5535 56.3833C33.2647 56.1501 33.2197 55.7269 33.4529 55.4382L33.8811 54.908C34.1143 54.6192 34.5375 54.5742 34.8263 54.8075ZM32.6854 57.4581C32.9741 57.6913 33.0191 58.1146 32.7859 58.4034L31.9296 59.4636C31.6963 59.7523 31.2731 59.7974 30.9844 59.5641C30.6956 59.3309 30.6506 58.9078 30.8838 58.619L31.7402 57.5587C31.9734 57.2699 32.3966 57.2249 32.6854 57.4581ZM30.1162 60.639C30.405 60.8722 30.45 61.2954 30.2168 61.5842L29.3605 62.6444C29.1273 62.9332 28.704 62.9782 28.4153 62.745C28.1265 62.5117 28.0815 62.0886 28.3147 61.7998L29.1711 60.7395C29.4043 60.4507 29.8275 60.4057 30.1162 60.639ZM27.5472 63.8198C27.8359 64.0531 27.881 64.4762 27.6477 64.765L26.7914 65.8253C26.5582 66.114 26.135 66.159 25.8462 65.9258C25.5574 65.6926 25.5124 65.2694 25.7456 64.9806L26.602 63.9204C26.8353 63.6316 27.2584 63.5866 27.5472 63.8198ZM24.9781 67.0007C25.2669 67.2339 25.3119 67.657 25.0787 67.9458L24.2223 69.0061C23.9891 69.2949 23.5659 69.3399 23.2771 69.1067C22.9884 68.8734 22.9433 68.4502 23.1766 68.1614L24.033 67.1012C24.2662 66.8124 24.6893 66.7674 24.9781 67.0007ZM22.409 70.1815C22.6978 70.4147 22.7428 70.8378 22.5096 71.1266L21.6532 72.187C21.42 72.4758 20.9969 72.5204 20.7081 72.2871C20.4193 72.0546 20.3743 71.631 20.6075 71.3423L21.4639 70.282C21.6971 69.9933 22.1203 69.9482 22.409 70.1815ZM19.84 73.3621C20.1288 73.5954 20.1738 74.0187 19.9405 74.3074L19.0842 75.368C18.8509 75.6567 18.4278 75.7014 18.139 75.4681C17.8502 75.2348 17.8052 74.8121 18.0384 74.5234L18.8948 73.4629C19.128 73.1742 19.5512 73.1288 19.84 73.3621ZM17.2709 76.543C17.5597 76.7763 17.6047 77.1997 17.3715 77.4884L16.5151 78.5482C16.2819 78.8377 15.8587 78.8823 15.5699 78.649C15.2812 78.4158 15.2361 77.9924 15.4694 77.7037L16.3257 76.6438C16.5589 76.3551 16.9821 76.3097 17.2709 76.543ZM14.7018 79.724C14.9906 79.9573 15.0356 80.3806 14.8024 80.6694L13.946 81.7292C13.7128 82.0179 13.2896 82.0633 13.0008 81.83C12.712 81.5967 12.667 81.1733 12.9003 80.8846L13.7566 79.8248C13.9898 79.5353 14.413 79.4907 14.7018 79.724ZM12.1327 82.905C12.4215 83.1382 12.4665 83.5609 12.2333 83.8496L11.377 84.9102C11.1437 85.1989 10.7205 85.2442 10.4317 85.011C10.1429 84.7777 10.0979 84.3543 10.3312 84.0656L11.1875 83.005C11.4208 82.7163 11.8439 82.6717 12.1327 82.905ZM9.56363 86.0859C9.85242 86.3185 9.89742 86.7418 9.66422 87.0305L9.23603 87.5612C9.00282 87.8499 8.57961 87.8946 8.29082 87.6613C8.0021 87.428 7.95702 87.0054 8.1903 86.7159L8.61849 86.186C8.8517 85.8973 9.27484 85.8526 9.56363 86.0859Z" fill="#FFCB05"/>
<path fill-rule="evenodd" clip-rule="evenodd" d="M36.2935 52.9945C36.5811 53.2292 36.6241 53.6525 36.3895 53.9402L35.9166 54.52C35.682 54.8076 35.2586 54.8506 34.9709 54.616C34.6833 54.3813 34.6403 53.958 34.875 53.6703L35.3479 53.0906C35.5825 52.8029 36.0059 52.76 36.2935 52.9945Z" fill="#FFCB05"/>
<path fill-rule="evenodd" clip-rule="evenodd" d="M50.6489 6.55173C50.9554 6.76108 51.0342 7.17929 50.8248 7.48583L50.3976 8.1113C50.1882 8.4178 49.7701 8.49657 49.4636 8.28727C49.157 8.07789 49.0782 7.65971 49.2876 7.35314L49.7148 6.72768C49.9241 6.42115 50.3423 6.34238 50.6489 6.55173Z" fill="#FFCB05"/>
<path fill-rule="evenodd" clip-rule="evenodd" d="M48.6351 9.49652C48.9417 9.7059 49.0205 10.1241 48.8111 10.4306L48.4482 10.962C48.2388 11.2685 47.8206 11.3473 47.5141 11.138C47.2076 10.9286 47.1288 10.5104 47.3382 10.2039L47.701 9.67249C47.9104 9.36599 48.3286 9.28722 48.6351 9.49652ZM46.8126 12.1651C47.1192 12.3744 47.198 12.7926 46.9886 13.0991L46.2628 14.1619C46.0534 14.4684 45.6352 14.5472 45.3287 14.3379C45.0221 14.1285 44.9434 13.7103 45.1528 13.4038L45.8786 12.341C46.0879 12.0345 46.5061 11.9557 46.8126 12.1651ZM44.6272 15.365C44.9338 15.5743 45.0126 15.9925 44.8032 16.299L44.0774 17.3618C43.8681 17.6683 43.4498 17.7471 43.1433 17.5378C42.8367 17.3284 42.758 16.9102 42.9673 16.6037L43.6932 15.5409C43.9025 15.2343 44.3207 15.1556 44.6272 15.365ZM42.4418 18.5648C42.7484 18.7742 42.8272 19.1924 42.6178 19.4989L41.8919 20.5617C41.6826 20.8682 41.2644 20.947 40.9579 20.7377C40.6514 20.5283 40.5726 20.1101 40.7819 19.8036L41.5078 18.7408C41.7171 18.4342 42.1353 18.3555 42.4418 18.5648ZM40.2565 21.7647C40.563 21.974 40.6417 22.3923 40.4324 22.6988L40.0695 23.2302C39.8601 23.5367 39.4419 23.6155 39.1354 23.4062C38.8289 23.1968 38.7501 22.7787 38.9595 22.4721L39.3223 21.9407C39.5317 21.6341 39.9499 21.5554 40.2565 21.7647Z" fill="#FFCB05"/>
<path fill-rule="evenodd" clip-rule="evenodd" d="M39.0943 23.4513C39.4031 23.6573 39.4866 24.0745 39.2807 24.3834L38.8535 25.0242C38.6476 25.3331 38.2303 25.4165 37.9214 25.2106C37.6126 25.0047 37.5291 24.5874 37.735 24.2786L38.1622 23.6378C38.3681 23.3289 38.7854 23.2454 39.0943 23.4513Z" fill="#FFCB05"/>
<path fill-rule="evenodd" clip-rule="evenodd" d="M55.0381 27.967C55.347 27.7611 55.7643 27.8445 55.9702 28.1534L56.3974 28.7942C56.6033 29.103 56.5198 29.5203 56.211 29.7262C55.9021 29.9321 55.4848 29.8486 55.2789 29.5398L54.8517 28.899C54.6458 28.5901 54.7293 28.1728 55.0381 27.967Z" fill="#FFCB05"/>
<path fill-rule="evenodd" clip-rule="evenodd" d="M39.3084 4.47363C39.6168 4.26705 40.0342 4.34961 40.2408 4.65801L40.6333 5.24397C40.8399 5.55237 40.7573 5.96984 40.4489 6.17642C40.1405 6.38299 39.7231 6.30044 39.5165 5.99203L39.124 5.40608C38.9175 5.09767 39 4.6802 39.3084 4.47363ZM41.2627 7.39141C41.5712 7.18486 41.9886 7.26743 42.1952 7.5758L42.9801 8.74775C43.1867 9.05612 43.1042 9.47358 42.7957 9.68015C42.4874 9.88671 42.0699 9.8042 41.8633 9.49575L41.0784 8.32388C40.8718 8.01551 40.9543 7.59798 41.2627 7.39141ZM43.6096 10.8951C43.918 10.6886 44.3355 10.7712 44.542 11.0795L45.327 12.2515C45.5335 12.5599 45.451 12.9774 45.1426 13.184C44.8342 13.3905 44.4167 13.3079 44.2102 12.9996L43.4252 11.8276C43.2186 11.5192 43.3012 11.1018 43.6096 10.8951ZM45.9564 14.399C46.2648 14.1924 46.6823 14.2749 46.8889 14.5833L47.6738 15.7552C47.8804 16.0637 47.7979 16.4811 47.4894 16.6877C47.181 16.8943 46.7636 16.8117 46.557 16.5033L45.772 15.3314C45.5654 15.023 45.648 14.6055 45.9564 14.399ZM48.3032 17.9027C48.6117 17.6961 49.0291 17.7786 49.2357 18.0871L50.0206 19.259C50.2272 19.5674 50.1447 19.9849 49.8363 20.1914C49.5279 20.398 49.1104 20.3155 48.9038 20.007L48.1188 18.8352C47.9123 18.5267 47.9949 18.1093 48.3032 17.9027ZM50.6501 21.4064C50.9585 21.1999 51.376 21.2824 51.5825 21.5908L52.3675 22.7628C52.5741 23.0711 52.4915 23.4886 52.1831 23.6952C51.8747 23.9017 51.4573 23.8192 51.2506 23.5108L50.4657 22.3389C50.2591 22.0305 50.3417 21.613 50.6501 21.4064ZM52.9969 24.9102C53.3054 24.7036 53.7228 24.7862 53.9294 25.0946L54.3219 25.6806C54.5284 25.9889 54.4459 26.4064 54.1375 26.613C53.8291 26.8195 53.4116 26.737 53.205 26.4286L52.8125 25.8426C52.606 25.5343 52.6885 25.1167 52.9969 24.9102Z" fill="#FFCB05"/>
<path fill-rule="evenodd" clip-rule="evenodd" d="M38.053 2.61564C38.3595 2.40633 38.7777 2.48517 38.987 2.79172L39.4141 3.41721C39.6234 3.72376 39.5445 4.14195 39.238 4.35126C38.9314 4.56057 38.5132 4.48173 38.3039 4.17518L37.8769 3.5497C37.6676 3.24314 37.7464 2.82495 38.053 2.61564Z" fill="#FFCB05"/>
<path fill-rule="evenodd" clip-rule="evenodd" d="M58.3866 31.0543C58.6415 31.3242 58.6294 31.7495 58.3596 32.0044L57.8104 32.5232C57.5406 32.7781 57.1152 32.766 56.8603 32.4962C56.6054 32.2263 56.6175 31.8009 56.8873 31.546L57.4365 31.0273C57.7063 30.7723 58.1317 30.7845 58.3866 31.0543Z" fill="#FFCB05"/>
<path fill-rule="evenodd" clip-rule="evenodd" d="M55.4651 33.8689C55.7243 34.1347 55.7189 34.5603 55.4531 34.8194L54.9034 35.3554C54.6376 35.6145 54.2121 35.6091 53.953 35.3433C53.6939 35.0776 53.6993 34.6521 53.965 34.3929L54.5147 33.8569C54.7805 33.5978 55.206 33.6032 55.4651 33.8689ZM52.7166 36.5488C52.9757 36.8146 52.9703 37.2402 52.7046 37.4993L51.6051 38.5713C51.3393 38.8304 50.9138 38.825 50.6547 38.5593C50.3955 38.2935 50.4009 37.8679 50.6667 37.6088L51.7661 36.5369C52.0319 36.2777 52.4574 36.2831 52.7166 36.5488ZM49.4183 39.7648C49.6774 40.0305 49.672 40.456 49.4063 40.7152L48.3068 41.7872C48.0411 42.0463 47.6156 42.041 47.3564 41.7752C47.0972 41.5094 47.1026 41.0839 47.3684 40.8248L48.4678 39.7528C48.7336 39.4936 49.1592 39.499 49.4183 39.7648ZM46.12 42.9807C46.3791 43.2465 46.3738 43.672 46.1079 43.9311L45.0085 45.0031C44.7428 45.2623 44.3172 45.2569 44.0581 44.9911C43.799 44.7254 43.8044 44.2998 44.0701 44.0406L45.1696 42.9687C45.4353 42.7096 45.8608 42.7149 46.12 42.9807ZM42.8217 46.1966C43.0809 46.4624 43.0755 46.888 42.8097 47.1471L41.7103 48.219C41.4444 48.4781 41.0189 48.4728 40.7598 48.207C40.5007 47.9412 40.5061 47.5157 40.7718 47.2566L41.8712 46.1846C42.137 45.9255 42.5625 45.9309 42.8217 46.1966ZM39.5234 49.4126C39.7825 49.6783 39.7771 50.1038 39.5114 50.363L38.9617 50.899C38.6959 51.1581 38.2704 51.1527 38.0112 50.887C37.7521 50.6212 37.7575 50.1956 38.0232 49.9365L38.5729 49.4005C38.8388 49.1414 39.2643 49.1468 39.5234 49.4126Z" fill="#FFCB05"/>
<path fill-rule="evenodd" clip-rule="evenodd" d="M37.7995 51.1084C38.0582 51.3746 38.0522 51.8001 37.786 52.0588L37.2368 52.5928C36.9706 52.8515 36.5451 52.8455 36.2864 52.5793C36.0277 52.3132 36.0336 51.8877 36.2998 51.6289L36.849 51.095C37.1152 50.8363 37.5407 50.8422 37.7995 51.1084Z" fill="#FFCB05"/>
<path fill-rule="evenodd" clip-rule="evenodd" d="M62.5453 55.5336C62.8292 55.2944 63.2532 55.3308 63.4923 55.6146L63.9806 56.1942C64.2197 56.4781 64.1834 56.9021 63.8995 57.1413C63.6156 57.3804 63.1916 57.3442 62.9525 57.0603L62.4642 56.4806C62.2251 56.1967 62.2614 55.7727 62.5453 55.5336Z" fill="#FFCB05"/>
<path fill-rule="evenodd" clip-rule="evenodd" d="M39.5337 28.8563C39.8149 28.614 40.2393 28.6455 40.4816 28.9268L40.917 29.4322C41.1593 29.7133 41.1278 30.1377 40.8466 30.38C40.5653 30.6223 40.141 30.5908 39.8987 30.3095L39.4632 29.8042C39.2209 29.523 39.2525 29.0986 39.5337 28.8563ZM41.7108 31.3831C41.992 31.1408 42.4164 31.1723 42.6587 31.4535L43.5296 32.4642C43.7719 32.7454 43.7403 33.1698 43.4591 33.4121C43.1779 33.6544 42.7535 33.6228 42.5112 33.3417L41.6404 32.3309C41.3981 32.0497 41.4296 31.6253 41.7108 31.3831ZM44.3234 34.4151C44.6046 34.1728 45.029 34.2044 45.2712 34.4856L46.1421 35.4963C46.3844 35.7775 46.3528 36.2019 46.0717 36.4442C45.7904 36.6865 45.3661 36.655 45.1238 36.3737L44.2529 35.363C44.0106 35.0818 44.0421 34.6574 44.3234 34.4151ZM46.9359 37.4472C47.2171 37.2049 47.6415 37.2364 47.8838 37.5177L48.7547 38.5283C48.997 38.8096 48.9654 39.2339 48.6842 39.4763C48.403 39.7186 47.9786 39.687 47.7363 39.4058L46.8655 38.3951C46.6232 38.1139 46.6547 37.6895 46.9359 37.4472ZM49.5485 40.4793C49.8296 40.237 50.2541 40.2686 50.4964 40.5497L51.3672 41.5605C51.6095 41.8416 51.5779 42.2661 51.2968 42.5084C51.0155 42.7506 50.5912 42.7191 50.3488 42.4379L49.478 41.4272C49.2357 41.146 49.2672 40.7216 49.5485 40.4793ZM52.161 43.5114C52.4422 43.2691 52.8666 43.3006 53.1089 43.5819L53.9798 44.5925C54.2221 44.8738 54.1905 45.2981 53.9093 45.5404C53.6281 45.7827 53.2037 45.7512 52.9614 45.47L52.0906 44.4593C51.8482 44.1781 51.8798 43.7537 52.161 43.5114ZM54.7736 46.5435C55.0548 46.3012 55.4792 46.3327 55.7215 46.6139L56.5923 47.6246C56.8346 47.9058 56.8031 48.3302 56.5218 48.5725C56.2407 48.8148 55.8163 48.7833 55.5739 48.5021L54.7031 47.4914C54.4608 47.2102 54.4924 46.7858 54.7736 46.5435ZM57.3861 49.5756C57.6673 49.3332 58.0917 49.3648 58.334 49.646L59.2048 50.6567C59.4472 50.9379 59.4156 51.3623 59.1344 51.6046C58.8532 51.8469 58.4288 51.8154 58.1865 51.5341L57.3157 50.5235C57.0733 50.2422 57.1049 49.8179 57.3861 49.5756ZM59.9987 52.6077C60.2799 52.3654 60.7042 52.3969 60.9466 52.6781L61.382 53.1834C61.6243 53.4647 61.5927 53.889 61.3115 54.1313C61.0303 54.3737 60.6059 54.3421 60.3637 54.0609L59.9282 53.5555C59.6859 53.2743 59.7175 52.8499 59.9987 52.6077Z" fill="#FFCB05"/>
<path fill-rule="evenodd" clip-rule="evenodd" d="M37.9846 27.0787C38.2616 26.8316 38.6865 26.856 38.9335 27.133L39.437 27.6976C39.684 27.9747 39.6597 28.3996 39.3826 28.6466C39.1056 28.8936 38.6807 28.8693 38.4336 28.5922L37.9302 28.0277C37.6832 27.7506 37.7075 27.3258 37.9846 27.0787Z" fill="#FFCB05"/>
<path fill-rule="evenodd" clip-rule="evenodd" d="M64.5438 60.1082C64.7617 60.4087 64.6948 60.829 64.3943 61.0468L63.784 61.4894C63.4835 61.7073 63.0632 61.6403 62.8454 61.3398C62.6274 61.0393 62.6944 60.619 62.9949 60.4012L63.6052 59.9586C63.9057 59.7407 64.326 59.8077 64.5438 60.1082Z" fill="#FFCB05"/>
<path fill-rule="evenodd" clip-rule="evenodd" d="M61.4737 62.3594C61.695 62.6574 61.6328 63.0784 61.3348 63.2997L60.7572 63.7285C60.4592 63.9498 60.0382 63.8876 59.8169 63.5896C59.5956 63.2915 59.6578 62.8706 59.9559 62.6493L60.5335 62.2204C60.8315 61.9991 61.2525 62.0614 61.4737 62.3594ZM58.5857 64.5037C58.8071 64.8017 58.7448 65.2227 58.4468 65.444L57.2916 66.3017C56.9935 66.523 56.5725 66.4608 56.3513 66.1627C56.13 65.8647 56.1922 65.4437 56.4902 65.2224L57.6454 64.3647C57.9435 64.1434 58.3645 64.2057 58.5857 64.5037ZM55.1201 67.0768C55.3414 67.3748 55.2792 67.7958 54.9812 68.0171L53.8259 68.8748C53.5279 69.0961 53.107 69.0339 52.8856 68.7358C52.6644 68.4378 52.7266 68.0168 53.0246 67.7956L54.1798 66.9378C54.4778 66.7166 54.8988 66.7788 55.1201 67.0768ZM51.6545 69.6499C51.8758 69.9479 51.8135 70.3689 51.5155 70.5903L50.3603 71.4479C50.0623 71.6693 49.6413 71.607 49.4201 71.309C49.1987 71.011 49.261 70.59 49.559 70.3687L50.7142 69.511C51.0123 69.2897 51.4332 69.3519 51.6545 69.6499ZM48.1889 72.2231C48.4102 72.5212 48.348 72.9424 48.0499 73.1634L46.8947 74.0209C46.5967 74.2427 46.1757 74.18 45.9544 73.882C45.7331 73.5839 45.7954 73.1634 46.0934 72.9416L47.2486 72.0841C47.5466 71.8629 47.9676 71.9251 48.1889 72.2231ZM44.7233 74.7964C44.9445 75.0944 44.8823 75.5149 44.5843 75.7367L43.4291 76.5942C43.1311 76.8152 42.7101 76.7533 42.4888 76.4552C42.2675 76.1572 42.3298 75.736 42.6278 75.5149L43.783 74.6574C44.081 74.4356 44.502 74.4983 44.7233 74.7964ZM41.2577 77.3696C41.479 77.6677 41.4167 78.0882 41.1187 78.31L40.5411 78.7384C40.2431 78.9601 39.8221 78.8975 39.6008 78.5994C39.3795 78.3013 39.4417 77.8808 39.7398 77.6591L40.3174 77.2307C40.6154 77.0089 41.0364 77.0716 41.2577 77.3696Z" fill="#FFCB05"/>
<path fill-rule="evenodd" clip-rule="evenodd" d="M39.4422 78.7112C39.6649 79.0078 39.6047 79.4298 39.3078 79.6522L38.6975 80.1102C38.4005 80.3327 37.9792 80.2722 37.7565 79.9755C37.5338 79.6782 37.594 79.257 37.891 79.0345L38.5012 78.5766C38.7982 78.3541 39.2195 78.4146 39.4422 78.7112Z" fill="#FFCB05"/>
<path fill-rule="evenodd" clip-rule="evenodd" d="M38.0038 54.6863C38.2754 54.4333 38.7007 54.4482 38.9537 54.7197L39.4104 55.2095C39.6635 55.481 39.6486 55.9063 39.3771 56.1594C39.1056 56.4125 38.6803 56.3976 38.4272 56.1261L37.9705 55.6363C37.7174 55.3648 37.7323 54.9395 38.0038 54.6863ZM40.278 57.1257C40.5495 56.8725 40.9748 56.8874 41.2279 57.159L42.1412 58.1386C42.3943 58.4101 42.3794 58.8354 42.1079 59.0885C41.8364 59.3416 41.4111 59.3267 41.158 59.0552L40.2447 58.0756C39.9915 57.8041 40.0065 57.3788 40.278 57.1257ZM43.0088 60.0548C43.2803 59.8016 43.7055 59.8165 43.9587 60.0881L44.872 61.0677C45.1251 61.3392 45.1102 61.7645 44.8387 62.0177C44.5672 62.2707 44.1419 62.2558 43.8888 61.9843L42.9754 61.0047C42.7224 60.7332 42.7373 60.3079 43.0088 60.0548ZM45.7395 62.9839C46.011 62.7307 46.4363 62.7456 46.6895 63.0172L47.6028 63.9968C47.8559 64.2683 47.841 64.6936 47.5695 64.9468C47.298 65.1998 46.8727 65.1849 46.6196 64.9134L45.7063 63.9338C45.4531 63.6623 45.468 63.237 45.7395 62.9839ZM48.4703 65.913C48.7419 65.6598 49.1672 65.6748 49.4202 65.9463L50.3336 66.9259C50.5867 67.1974 50.5718 67.6227 50.3003 67.8759C50.0288 68.1289 49.6035 68.114 49.3504 67.8426L48.4371 66.8629C48.1839 66.5915 48.1988 66.1662 48.4703 65.913ZM51.2012 68.8421C51.4727 68.589 51.898 68.6039 52.1511 68.8754L53.0644 69.8551C53.3175 70.1266 53.3026 70.5518 53.0311 70.805C52.7596 71.0581 52.3343 71.0432 52.0811 70.7717L51.1678 69.7921C50.9147 69.5206 50.9296 69.0953 51.2012 68.8421ZM53.9319 71.7712C54.2034 71.5181 54.6287 71.533 54.8819 71.8045L55.7952 72.7842C56.0483 73.0556 56.0334 73.4811 55.7619 73.7339C55.4903 73.9873 55.0651 73.9722 54.812 73.7007L53.8986 72.7208C53.6455 72.4494 53.6604 72.0246 53.9319 71.7712ZM56.6627 74.7001C56.9342 74.4474 57.3595 74.4618 57.6126 74.7339L58.5259 75.7131C58.7791 75.9846 58.7642 76.4101 58.4927 76.6635C58.2212 76.9163 57.7959 76.9011 57.5428 76.6297L56.6295 75.6505C56.3763 75.3791 56.3912 74.9535 56.6627 74.7001ZM59.3935 77.6298C59.665 77.3763 60.0904 77.3915 60.3434 77.6629L61.2568 78.6421C61.5099 78.9135 61.495 79.3391 61.2235 79.5925C60.952 79.8452 60.5267 79.8308 60.2735 79.5594L59.3602 78.5795C59.1071 78.308 59.122 77.8825 59.3935 77.6298ZM62.1243 80.5587C62.3958 80.3053 62.8211 80.3204 63.0742 80.5919L63.9876 81.5718C64.2406 81.8432 64.2257 82.268 63.9542 82.5215C63.6827 82.7749 63.2575 82.7598 63.0043 82.4883L62.091 81.5084C61.8379 81.237 61.8528 80.8115 62.1243 80.5587ZM64.8551 83.4877C65.1266 83.2343 65.5519 83.2494 65.8051 83.5208L66.7183 84.5007C66.9715 84.7722 66.9566 85.1977 66.685 85.4504C66.4135 85.7039 65.9882 85.6887 65.7352 85.4173L64.8218 84.4374C64.5687 84.1659 64.5836 83.7411 64.8551 83.4877ZM67.5859 86.4167C67.8574 86.1639 68.2827 86.1783 68.5358 86.4498L68.9925 86.9401C69.2456 87.2115 69.2307 87.6371 68.9592 87.8898C68.6877 88.1432 68.2624 88.1281 68.0093 87.8567L67.5526 87.3671C67.2995 87.0949 67.3144 86.6701 67.5859 86.4167Z" fill="#FFCB05"/>
<path fill-rule="evenodd" clip-rule="evenodd" d="M36.4441 53.0267C36.7139 52.7719 37.1393 52.784 37.3942 53.0539L37.9129 53.6032C38.1677 53.873 38.1556 54.2984 37.8857 54.5533C37.6159 54.8082 37.1905 54.796 36.9356 54.5261L36.4168 53.9769C36.162 53.707 36.1741 53.2816 36.4441 53.0267Z" fill="#FFCB05"/>
<path fill-rule="evenodd" clip-rule="evenodd" d="M36.7686 0L52.8194 4.81524L77.3551 107.56L75.5119 108L51.2293 6.31704L36.7686 1.97881L22.3341 6.30919L2.61065 107.96L0.75 107.6L20.6917 4.82309L36.7686 0Z" fill="#FFCB05"/>
<path fill-rule="evenodd" clip-rule="evenodd" d="M36.9534 0.242188V107.033H35.0581V0.242188H36.9534Z" fill="#FFCB05"/>
<path fill-rule="evenodd" clip-rule="evenodd" d="M35.9868 80.4507L72.2568 89.622L71.7922 91.4595L36.0246 82.4156L5.30381 91.4501L4.76904 89.6314L35.9868 80.4507Z" fill="#FFCB05"/>
<path fill-rule="evenodd" clip-rule="evenodd" d="M36.3308 50.9634L64.4613 58.0729L63.9969 59.9105L36.3524 52.9238L11.0863 59.9052L10.5815 58.0783L36.3308 50.9634Z" fill="#FFCB05"/>
<path fill-rule="evenodd" clip-rule="evenodd" d="M36.3239 23.481L58.4187 30.6293L57.8353 32.4326L36.3595 25.4845L17.2599 32.4216L16.6128 30.6401L36.3239 23.481Z" fill="#FFCB05"/>
</svg>
