<?xml version="1.0" encoding="utf-8"?>
<!-- Generator: Adobe Illustrator 26.3.1, SVG Export Plug-In . SVG Version: 6.00 Build 0)  -->
<svg width="108" height="91" version="1.1" id="Layer_1" xmlns="http://www.w3.org/2000/svg" xmlns:xlink="http://www.w3.org/1999/xlink" x="0px" y="0px"
	 viewBox="0 0 196 101" style="enable-background:new 0 0 196 101;" xml:space="preserve">
<style type="text/css">
	.st0{fill:#FFCC06;}
	.st1{fill-rule:evenodd;clip-rule:evenodd;fill:#FFCB05;}
</style>
<path class="st0" d="M176.2,16.8h-0.8c-0.3,0-0.6-0.2-0.6-0.5l-0.5-0.6c-0.2-0.3,0-0.8,0.3-1.1c0.3-0.2,0.8,0,1.1,0.3l0.2,0.3h0.3
	c0.5,0,0.8,0.3,0.8,0.8C177,16.5,176.7,16.8,176.2,16.8z"/>
<path class="st0" d="M172.3,12.2c-0.2,0-0.5-0.2-0.6-0.3c-0.3-0.5-0.6-0.8-0.9-1.3c-0.3-0.3-0.3-0.8,0-1.1c0.3-0.3,0.8-0.3,1.1,0
	c0.3,0.5,0.8,0.8,1.1,1.3c0.3,0.5,0.3,0.9-0.2,1.3C172.8,12.1,172.5,12.2,172.3,12.2z M130.7,9.1c-0.2,0-0.5-0.2-0.6-0.3
	c-0.3-0.3-0.3-0.8,0-1.1c0.5-0.3,0.8-0.8,1.3-1.1c0.3-0.3,0.8-0.2,1.1,0.2c0.3,0.3,0.3,0.8,0,1.1c-0.5,0.3-0.8,0.6-1.3,1.1
	C131.2,9.1,130.9,9.1,130.7,9.1z M167.8,7.7c-0.2,0-0.3,0-0.5-0.2c-0.5-0.3-0.8-0.6-1.3-0.9c-0.3-0.3-0.5-0.8-0.2-1.1
	c0.3-0.3,0.8-0.5,1.1-0.2c0.5,0.3,0.9,0.6,1.4,0.9c0.3,0.3,0.5,0.8,0.2,1.1C168.2,7.5,168.1,7.7,167.8,7.7z M135.9,5.3
	c-0.3,0-0.5-0.2-0.6-0.5c-0.2-0.3-0.2-0.8,0.3-1.1c0.5-0.3,0.9-0.5,1.4-0.8c0.3-0.2,0.8,0,1.1,0.3c0.2,0.3,0,0.8-0.3,1.1
	c-0.5,0.2-0.9,0.5-1.4,0.8C136.2,5.3,136.1,5.3,135.9,5.3z M162.3,4.2c-0.2,0-0.2,0-0.3,0c-0.5-0.2-0.9-0.5-1.4-0.6
	c-0.5-0.2-0.6-0.6-0.5-1.1c0.2-0.5,0.6-0.6,1.1-0.5c0.5,0.2,0.9,0.5,1.6,0.6c0.3,0.2,0.6,0.6,0.3,1.1C162.9,4.1,162.6,4.2,162.3,4.2
	z M141.9,2.8c-0.3,0-0.6-0.2-0.8-0.6c-0.2-0.5,0.2-0.8,0.5-0.9c0.5-0.2,1.1-0.3,1.6-0.5c0.5-0.2,0.8,0.2,0.9,0.6
	c0.2,0.5-0.2,0.8-0.6,0.9C143,2.5,142.5,2.7,141.9,2.8C141.9,2.8,142,2.8,141.9,2.8z M156.2,2.2H156c-0.5-0.2-1.1-0.2-1.6-0.3
	c-0.5,0-0.8-0.5-0.6-0.9c0-0.5,0.5-0.8,0.9-0.6c0.5,0.2,1.1,0.2,1.6,0.3c0.5,0.2,0.6,0.5,0.6,0.9C156.9,2,156.6,2.2,156.2,2.2z
	 M148.2,1.6c-0.5,0-0.8-0.3-0.8-0.8c0-0.5,0.3-0.8,0.8-0.8c0.6,0,1.1,0,1.7,0c0.5,0,0.8,0.3,0.8,0.8c0,0.5-0.3,0.8-0.8,0.8
	C149.2,1.6,148.8,1.6,148.2,1.6C148.3,1.6,148.2,1.6,148.2,1.6z"/>
<path class="st0" d="M127,13.3h-0.8c-0.5,0-0.8-0.3-0.8-0.8c0-0.5,0.3-0.8,0.8-0.8h0.5c0.2-0.2,0.2-0.2,0.3-0.3
	c0.3-0.3,0.8-0.3,1.1-0.2c0.3,0.3,0.3,0.8,0.2,1.1c-0.2,0.2-0.3,0.3-0.5,0.6C127.4,13.2,127.3,13.3,127,13.3z"/>
<path class="st0" d="M113,15.5c-0.3,0-0.6-0.2-0.6-0.5c-0.2-0.3,0-0.8,0.3-1.1c0.5-0.3,1.1-0.5,1.6-0.8c0.3-0.2,0.8,0,1.1,0.5
	c0.2,0.5,0,0.8-0.5,1.1c-0.5,0.2-0.9,0.5-1.4,0.8C113.2,15.5,113,15.5,113,15.5z M119.4,13.3c-0.3,0-0.6-0.3-0.8-0.6
	c0-0.5,0.2-0.8,0.6-0.9c0.6-0.2,1.1-0.2,1.7-0.3c0.5,0,0.8,0.3,0.8,0.6c0,0.5-0.3,0.8-0.6,0.8C120.7,13.2,120.1,13.3,119.4,13.3z"/>
<path class="st0" d="M108.8,19.5c-0.2,0-0.3,0-0.5-0.2l-0.6-0.5c-0.2,0-0.3-0.3-0.3-0.5c0-0.2,0.2-0.5,0.3-0.6l0.6-0.5
	c0.3-0.3,0.8-0.3,1.1,0c0.3,0.3,0.3,0.6,0,0.9c0.3,0.3,0.3,0.6,0,0.9C109.2,19.5,108.9,19.5,108.8,19.5z"/>
<path class="st0" d="M159.1,57.3c-0.2,0-0.3,0-0.5-0.2c-0.2-0.2-0.3-0.3-0.3-0.5v-0.2c0-0.2-0.2-0.5-0.2-0.8c0-0.5,0.3-0.8,0.8-0.8
	c0.3,0,0.6,0.2,0.8,0.5c0.3-0.2,0.8,0.2,0.9,0.5c0.2,0.5-0.2,0.8-0.5,0.9l-0.8,0.3C159.3,57.3,159.3,57.3,159.1,57.3z"/>
<path class="st0" d="M163.7,55.4c-0.3,0-0.6-0.2-0.6-0.5c-0.2-0.3,0-0.8,0.3-1.1c0.5-0.2,0.8-0.5,1.3-0.6c0.3-0.2,0.8-0.2,1.1,0.3
	c0.3,0.5,0.2,0.8-0.3,1.1c-0.5,0.3-0.8,0.5-1.3,0.8C164,55.4,163.8,55.4,163.7,55.4z"/>
<path class="st0" d="M168.2,52.2c-0.2,0-0.5-0.2-0.6-0.3c-0.3-0.3-0.3-0.8,0.2-1.1l0.6-0.5c0.2-0.2,0.6-0.3,0.8-0.2l0.6,0.3
	c0.3,0.2,0.6,0.6,0.3,1.1c-0.3,0.5-0.6,0.6-1.1,0.3l-0.3-0.2l-0.2,0.2C168.7,52.2,168.5,52.2,168.2,52.2z"/>
<path class="st0" d="M175.6,53.5C175.6,53.5,175.4,53.5,175.6,53.5c-0.6,0-1.1-0.2-1.7-0.2c-0.5,0-0.8-0.5-0.6-0.9
	c0-0.5,0.5-0.8,0.9-0.6c0.5,0,0.9,0.2,1.4,0.2c0.5,0,0.8,0.5,0.8,0.8C176.2,53.2,175.9,53.5,175.6,53.5z M180.2,53.3
	c-0.3,0-0.6-0.3-0.8-0.6c0-0.5,0.2-0.8,0.6-0.9c0.5-0.2,0.9-0.2,1.4-0.3c0.5-0.2,0.8,0.2,0.9,0.6c0.2,0.5-0.2,0.8-0.6,0.9
	C181.3,53,180.8,53.2,180.2,53.3z M186,51.3c-0.3,0-0.5-0.2-0.6-0.5c-0.2-0.3-0.2-0.8,0.3-1.1c0.5-0.3,0.8-0.5,1.3-0.8
	c0.3-0.3,0.8-0.2,1.1,0.2c0.3,0.3,0.2,0.8-0.2,1.1c-0.5,0.3-0.9,0.6-1.4,0.8C186.1,51.1,186,51.3,186,51.3z M190.7,47.4
	c-0.2,0-0.3,0-0.5-0.2c-0.3-0.3-0.3-0.8,0-1.1c0.3-0.3,0.6-0.8,0.9-1.1c0.3-0.3,0.8-0.5,1.1-0.2c0.3,0.3,0.5,0.8,0.2,1.1
	c-0.3,0.5-0.6,0.8-0.9,1.3C191.1,47.4,190.8,47.4,190.7,47.4z M194,42.2c-0.2,0-0.2,0-0.3,0c-0.5-0.2-0.6-0.6-0.5-1.1
	c0.2-0.5,0.3-0.9,0.5-1.4c0.2-0.5,0.6-0.6,0.9-0.5c0.5,0.2,0.6,0.6,0.5,0.9c-0.2,0.5-0.3,0.9-0.5,1.6C194.4,42,194.3,42.2,194,42.2z
	 M195.2,36.2c-0.5,0-0.8-0.5-0.8-0.8c0-0.3,0-0.6,0-0.9V34c0-0.5,0.3-0.8,0.8-0.8c0.5,0,0.8,0.3,0.8,0.8v0.5c0,0.3,0,0.8,0,1.1
	C196,35.9,195.7,36.2,195.2,36.2z M194.6,30.1c-0.3,0-0.6-0.2-0.8-0.6c-0.2-0.5-0.3-0.9-0.5-1.4c-0.2-0.5,0-0.8,0.5-0.9
	c0.5-0.2,0.8,0,0.9,0.5c0.2,0.5,0.3,0.9,0.5,1.6c0.2,0.5-0.2,0.8-0.5,0.9H194.6z M191.9,24.6c-0.3,0-0.5-0.2-0.6-0.3
	c-0.3-0.5-0.6-0.8-0.9-1.1c-0.3-0.3-0.2-0.8,0.2-1.1c0.3-0.3,0.8-0.2,1.1,0.2c0.3,0.5,0.6,0.8,0.9,1.3c0.3,0.3,0.2,0.8-0.2,1.1
	C192.2,24.6,192.1,24.6,191.9,24.6z M187.7,20.2c-0.2,0-0.3,0-0.5-0.2c-0.5-0.3-0.8-0.6-1.3-0.8c-0.3-0.2-0.5-0.6-0.3-1.1
	c0.2-0.3,0.8-0.5,1.1-0.3c0.5,0.3,0.9,0.6,1.4,0.9c0.3,0.3,0.5,0.8,0.2,1.1C188.2,20.2,187.8,20.2,187.7,20.2z M182.2,17.6H182
	c-0.5-0.2-0.9-0.3-1.4-0.3c-0.5-0.2-0.6-0.5-0.6-0.9c0.2-0.5,0.5-0.6,0.9-0.6c0.5,0.2,1.1,0.3,1.6,0.3c0.5,0.2,0.6,0.6,0.5,0.9
	C182.8,17.4,182.5,17.6,182.2,17.6z"/>
<path class="st0" d="M14.9,17.2h0.6c0.2,0,0.5-0.1,0.5-0.4l0.4-0.5c0.1-0.2,0-0.6-0.2-0.8c-0.2-0.1-0.6,0-0.8,0.2L15.2,16h-0.2
	c-0.4,0-0.6,0.2-0.6,0.6C14.4,17,14.6,17.2,14.9,17.2z"/>
<path class="st0" d="M17.9,13.8c0.1,0,0.4-0.1,0.5-0.2c0.2-0.4,0.5-0.6,0.7-0.9c0.2-0.2,0.2-0.6,0-0.8c-0.2-0.2-0.6-0.2-0.8,0
	c-0.2,0.4-0.6,0.6-0.8,0.9c-0.2,0.4-0.2,0.7,0.1,0.9C17.5,13.7,17.8,13.8,17.9,13.8z M49.3,11.4c0.1,0,0.4-0.1,0.5-0.2
	c0.2-0.2,0.2-0.6,0-0.8c-0.4-0.2-0.6-0.6-0.9-0.8c-0.2-0.2-0.6-0.1-0.8,0.1c-0.2,0.2-0.2,0.6,0,0.8c0.4,0.2,0.6,0.5,0.9,0.8
	C49,11.4,49.2,11.4,49.3,11.4z M21.3,10.4c0.1,0,0.2,0,0.4-0.1c0.4-0.2,0.6-0.5,0.9-0.7c0.2-0.2,0.4-0.6,0.1-0.8
	c-0.2-0.2-0.6-0.4-0.8-0.1c-0.4,0.2-0.7,0.5-1.1,0.7c-0.2,0.2-0.4,0.6-0.1,0.8C21,10.2,21.1,10.4,21.3,10.4z M45.4,8.6
	c0.2,0,0.4-0.1,0.5-0.4C46,8,46,7.6,45.6,7.4c-0.4-0.2-0.7-0.4-1.1-0.6c-0.2-0.1-0.6,0-0.8,0.2c-0.1,0.2,0,0.6,0.2,0.8
	C44.3,8,44.7,8.2,45,8.5C45.2,8.6,45.3,8.6,45.4,8.6z M25.5,7.8c0.1,0,0.1,0,0.2,0c0.4-0.1,0.7-0.4,1.1-0.5c0.4-0.1,0.5-0.5,0.4-0.8
	C27,6.1,26.7,6,26.3,6.1c-0.4,0.1-0.7,0.4-1.2,0.5c-0.2,0.1-0.5,0.5-0.2,0.8C25,7.6,25.3,7.8,25.5,7.8z M40.9,6.7
	c0.2,0,0.5-0.1,0.6-0.5c0.1-0.4-0.1-0.6-0.4-0.7c-0.4-0.1-0.8-0.2-1.2-0.4c-0.4-0.1-0.6,0.1-0.7,0.5c-0.1,0.4,0.1,0.6,0.5,0.7
	C40.1,6.4,40.4,6.6,40.9,6.7C40.9,6.7,40.8,6.7,40.9,6.7z M30.1,6.2h0.1c0.4-0.1,0.8-0.1,1.2-0.2c0.4,0,0.6-0.4,0.5-0.7
	c0-0.4-0.4-0.6-0.7-0.5C30.8,4.9,30.3,4.9,30,5c-0.4,0.1-0.5,0.4-0.5,0.7C29.5,6.1,29.8,6.2,30.1,6.2z M36.2,5.7
	c0.4,0,0.6-0.2,0.6-0.6c0-0.4-0.2-0.6-0.6-0.6c-0.5,0-0.8,0-1.3,0c-0.4,0-0.6,0.2-0.6,0.6c0,0.4,0.2,0.6,0.6,0.6
	C35.3,5.7,35.7,5.7,36.2,5.7C36,5.7,36.2,5.7,36.2,5.7z"/>
<path class="st0" d="M52.1,14.6h0.6c0.4,0,0.6-0.2,0.6-0.6c0-0.4-0.2-0.6-0.6-0.6h-0.4c-0.1-0.1-0.1-0.1-0.2-0.2
	c-0.2-0.2-0.6-0.2-0.8-0.1c-0.2,0.2-0.2,0.6-0.1,0.8c0.1,0.1,0.2,0.2,0.4,0.5C51.8,14.5,51.9,14.6,52.1,14.6z"/>
<path class="st0" d="M62.7,16.3c0.2,0,0.5-0.1,0.5-0.4c0.1-0.2,0-0.6-0.2-0.8c-0.4-0.2-0.8-0.4-1.2-0.6c-0.2-0.1-0.6,0-0.8,0.4
	c-0.1,0.4,0,0.6,0.4,0.8c0.4,0.1,0.7,0.4,1.1,0.6C62.6,16.3,62.7,16.3,62.7,16.3z M57.9,14.6c0.2,0,0.5-0.2,0.6-0.5
	c0-0.4-0.1-0.6-0.5-0.7c-0.5-0.1-0.8-0.1-1.3-0.2c-0.4,0-0.6,0.2-0.6,0.5c0,0.4,0.2,0.6,0.5,0.6C56.9,14.5,57.4,14.6,57.9,14.6z"/>
<path class="st0" d="M65.9,19.2c0.1,0,0.2,0,0.4-0.1l0.5-0.4c0.1,0,0.2-0.2,0.2-0.4c0-0.1-0.1-0.4-0.2-0.5l-0.5-0.4
	c-0.2-0.2-0.6-0.2-0.8,0c-0.2,0.2-0.2,0.5,0,0.7c-0.2,0.2-0.2,0.5,0,0.7C65.5,19.2,65.8,19.2,65.9,19.2z"/>
<path class="st0" d="M27.9,47.8c0.1,0,0.2,0,0.4-0.1c0.1-0.1,0.2-0.2,0.2-0.4v-0.1c0-0.1,0.1-0.4,0.1-0.6c0-0.4-0.2-0.6-0.6-0.6
	c-0.2,0-0.5,0.1-0.6,0.4c-0.2-0.1-0.6,0.1-0.7,0.4c-0.1,0.4,0.1,0.6,0.4,0.7l0.6,0.2C27.8,47.8,27.8,47.8,27.9,47.8z"/>
<path class="st0" d="M24.4,46.4c0.2,0,0.5-0.1,0.5-0.4c0.1-0.2,0-0.6-0.2-0.8c-0.4-0.1-0.6-0.4-0.9-0.5c-0.2-0.1-0.6-0.1-0.8,0.2
	c-0.2,0.4-0.1,0.6,0.2,0.8c0.4,0.2,0.6,0.4,0.9,0.6C24.2,46.4,24.3,46.4,24.4,46.4z"/>
<path class="st0" d="M21,44c0.1,0,0.4-0.1,0.5-0.2c0.2-0.2,0.2-0.6-0.1-0.8l-0.5-0.4c-0.1-0.1-0.5-0.2-0.6-0.1l-0.5,0.2
	c-0.2,0.1-0.5,0.5-0.2,0.8c0.2,0.4,0.5,0.5,0.8,0.2l0.2-0.1l0.1,0.1C20.6,44,20.8,44,21,44z"/>
<path class="st0" d="M15.4,45C15.4,45,15.5,45,15.4,45c0.5,0,0.8-0.1,1.3-0.1c0.4,0,0.6-0.4,0.5-0.7c0-0.4-0.4-0.6-0.7-0.5
	c-0.4,0-0.7,0.1-1.1,0.1c-0.4,0-0.6,0.4-0.6,0.6C14.9,44.7,15.2,45,15.4,45z M12,44.9c0.2,0,0.5-0.2,0.6-0.5c0-0.4-0.1-0.6-0.5-0.7
	s-0.7-0.1-1.1-0.2c-0.4-0.1-0.6,0.1-0.7,0.5c-0.1,0.4,0.1,0.6,0.5,0.7C11.1,44.6,11.5,44.7,12,44.9z M7.6,43.3
	c0.2,0,0.4-0.1,0.5-0.4c0.1-0.2,0.1-0.6-0.2-0.8c-0.4-0.2-0.6-0.4-0.9-0.6c-0.2-0.2-0.6-0.1-0.8,0.1c-0.2,0.2-0.1,0.6,0.1,0.8
	c0.4,0.2,0.7,0.5,1.1,0.6C7.5,43.2,7.6,43.3,7.6,43.3z M4,40.3c0.1,0,0.2,0,0.4-0.1c0.2-0.2,0.2-0.6,0-0.8c-0.2-0.2-0.5-0.6-0.7-0.8
	c-0.2-0.2-0.6-0.4-0.8-0.1c-0.2,0.2-0.4,0.6-0.1,0.8c0.2,0.4,0.5,0.6,0.7,0.9C3.7,40.3,3.9,40.3,4,40.3z M1.5,36.4
	c0.1,0,0.1,0,0.2,0c0.4-0.1,0.5-0.5,0.4-0.8c-0.1-0.4-0.2-0.7-0.4-1.1c-0.1-0.4-0.5-0.5-0.7-0.4c-0.4,0.1-0.5,0.5-0.4,0.7
	c0.1,0.4,0.2,0.7,0.4,1.2C1.2,36.3,1.3,36.4,1.5,36.4z M0.6,31.9c0.4,0,0.6-0.4,0.6-0.6c0-0.2,0-0.5,0-0.7v-0.4
	c0-0.4-0.2-0.6-0.6-0.6c-0.4,0-0.6,0.2-0.6,0.6v0.4c0,0.2,0,0.6,0,0.8C0,31.7,0.2,31.9,0.6,31.9z M1.1,27.3c0.2,0,0.5-0.1,0.6-0.5
	c0.1-0.4,0.2-0.7,0.4-1.1c0.1-0.4,0-0.6-0.4-0.7c-0.4-0.1-0.6,0-0.7,0.4c-0.1,0.4-0.2,0.7-0.4,1.2c-0.1,0.4,0.1,0.6,0.4,0.7H1.1z
	 M3.1,23.2c0.2,0,0.4-0.1,0.5-0.2c0.2-0.4,0.5-0.6,0.7-0.8c0.2-0.2,0.1-0.6-0.1-0.8c-0.2-0.2-0.6-0.1-0.8,0.1
	c-0.2,0.4-0.5,0.6-0.7,0.9c-0.2,0.2-0.1,0.6,0.1,0.8C2.8,23.2,3,23.2,3.1,23.2z M6.3,19.8c0.1,0,0.2,0,0.4-0.1
	c0.4-0.2,0.6-0.5,0.9-0.6c0.2-0.1,0.4-0.5,0.2-0.8c-0.1-0.2-0.6-0.4-0.8-0.2c-0.4,0.2-0.7,0.5-1.1,0.7c-0.2,0.2-0.4,0.6-0.1,0.8
	C5.9,19.8,6.2,19.8,6.3,19.8z M10.4,17.8h0.1c0.4-0.1,0.7-0.2,1.1-0.2c0.4-0.1,0.5-0.4,0.5-0.7c-0.1-0.4-0.4-0.5-0.7-0.5
	c-0.4,0.1-0.8,0.2-1.2,0.2c-0.4,0.1-0.5,0.5-0.4,0.7C10,17.7,10.2,17.8,10.4,17.8z"/>
<path class="st1" d="M145.6,74.8c-1.3-11.3-10.9-20.1-22.6-20.1c-12.6,0-22.8,10.2-22.8,22.8c0,2.3,0.4,4.6,1,6.7
	c-7.2,1.4-12.5,0.8-16.6-0.6c-4-1.4-7.1-3.6-10.1-5.7c-0.2-0.2-0.5-0.3-0.7-0.5l-0.6-0.4l-0.7,0.2c-9.5,2.9-20.9,0.9-28.8-3.1l0,0
	c-0.2-0.1-0.3-0.1-0.5-0.2c-1.3-0.7-2.5-1.4-3.6-2.2l0,0.1c-5.6-4-9-10.6-9-17.6c0-11.9,9.7-21.7,21.7-21.7h0.8H54h0.9l0.5-0.8
	c2.5-4.7,6.1-8.8,10.4-11.9c15.4-11.1,37-7.7,48.2,7.7l0.6,0.8h0.9c1.4-0.3,3-0.5,4.4-0.5c11.1,0,21,7.1,24.8,17.6l0.3,0.8l0.9,0.2
	c6.7,1.3,11.6,7.2,11.6,14.1c0,3.9-1.6,7.5-4.4,10.4C151.1,72.8,148.5,74.2,145.6,74.8z M145.7,77.9c8.4-1.3,15-8.7,15-17.4
	c0-8.2-5.6-15.1-13.3-17.1c-4.4-11.3-15.4-18.8-27.5-18.8c-1.4,0-2.8,0.2-4.1,0.3C103.6,8.8,80.3,5.3,63.9,17.3
	c-4.4,3.1-8.2,7.4-10.8,12.1h-0.9c-13.7,0-24.8,11.1-24.8,24.8c0,10,6,19,15.1,22.8l0-0.1c8.3,4.1,20,6.2,30.2,3.4l0.2,0.1
	c3,2.1,6.4,4.5,10.9,6.1c4.8,1.6,10.7,2.2,18.6,0.6c3.6,7.8,11.5,13.3,20.7,13.3C135.3,100.2,145.4,90.3,145.7,77.9z M142.7,77.6
	c0,0.5,0,1-0.1,1.5c-2.3,2.5-4.6,4.4-7.1,5.9c0.8-2.4,1.3-4.9,1.3-7.4H142.7z M142.7,75.7c-0.1-0.6-0.1-1.2-0.2-1.8
	c-2.3-2.5-4.8-4.4-7.3-5.8c1,2.5,1.5,5.1,1.7,7.7H142.7z M134.9,75.7c-0.2-3-1-6-2.4-8.9c-2.7-1.1-5.5-1.7-8.2-1.8v10.7H134.9z
	 M124.3,77.6v10.7c2.9-0.1,5.9-0.7,8.7-2c1.3-2.8,1.9-5.8,2-8.7H124.3z M122.4,77.6v10.6c-3-0.2-6-1-8.9-2.4
	c-1.1-2.7-1.7-5.4-1.8-8.2H122.4z M122.4,75.7V65c-2.8,0.2-5.6,0.9-8.4,2.2c-1.3,2.8-2,5.6-2.2,8.5H122.4z M109.9,75.7
	c0.1-2.4,0.7-4.8,1.5-7.1c-2.8,1.6-5.5,3.8-8.1,6.5c0,0.2-0.1,0.4-0.1,0.7H109.9z M103.1,77.6c0,0.2,0,0.3,0,0.5
	c2.5,2.6,5.1,4.7,7.8,6.4c-0.7-2.3-1.1-4.6-1.1-6.9H103.1z M134.4,87.7c2.7-1.3,5.2-3.1,7.7-5.4c-1.8,7-7.3,12.5-14.2,14.3
	C130.8,93.8,133,90.8,134.4,87.7z M131.7,88.8c-2.4,0.8-4.9,1.3-7.4,1.3v7.1c0.2,0,0.4,0,0.6,0l-0.2-0.2
	C127.7,94.4,130,91.6,131.7,88.8z M122.4,90.1c-2.6-0.2-5.1-0.7-7.6-1.7c1.7,3,4.1,5.9,7.3,8.6l-0.2,0.2c0.2,0,0.4,0,0.6,0V90.1z
	 M119.1,96.8c-3.2-3-5.5-6.3-7.1-9.7c-3-1.5-5.8-3.5-8.6-6.1C104.9,89,111.2,95.3,119.1,96.8z M141.4,70.2
	c-2.1-5.3-6.4-9.6-11.8-11.5c1.7,2.1,3.2,4.3,4.3,6.5C136.5,66.5,139,68.1,141.4,70.2z M131.2,64.2c-1.3-2.2-2.9-4.3-4.9-6.4
	c-0.7-0.1-1.3-0.2-2-0.2v5.5C126.6,63.1,128.9,63.5,131.2,64.2z M122.4,63.1v-5.5c-0.6,0-1.2,0.1-1.9,0.1c-2.1,2.2-3.9,4.5-5.2,6.9
	C117.6,63.8,120,63.3,122.4,63.1z M112.6,65.8c1.2-2.5,2.9-5,4.9-7.4c-6.5,1.9-11.5,6.9-13.5,13.3C106.7,69.2,109.6,67.2,112.6,65.8
	z"/>
</svg>
