<svg width="80" height="108" viewBox="0 0 80 108" fill="none" xmlns="http://www.w3.org/2000/svg">
<g clip-path="url(#clip0_1694_10647)">
<path d="M53.8557 15.4798C53.7174 15.4798 53.4403 15.3432 53.3018 15.2067L52.8864 14.6605C52.6095 14.3875 52.6095 13.9779 52.8864 13.7048C53.1634 13.4317 53.5788 13.4317 53.8557 13.7048L54.2713 14.2509C54.5482 14.524 54.5482 14.9336 54.2713 15.2067C54.2713 15.4798 54.1328 15.4798 53.8557 15.4798Z" fill="#FFCB05"/>
<path fill-rule="evenodd" clip-rule="evenodd" d="M53.3661 14.0295C53.3399 14.0295 53.3021 14.0388 53.2611 14.0793C53.2201 14.1197 53.2106 14.157 53.2106 14.1828C53.2106 14.2086 53.2201 14.2459 53.2611 14.2863L53.2882 14.3129L53.6956 14.8486C53.7031 14.8545 53.7128 14.8616 53.7248 14.8696C53.7482 14.8854 53.7751 14.9012 53.8026 14.9153L53.8866 14.8325C53.9276 14.792 53.937 14.7548 53.937 14.7289C53.937 14.7031 53.9276 14.6658 53.8866 14.6254L53.8595 14.5988L53.4508 14.0615C53.4177 14.036 53.3878 14.0295 53.3661 14.0295ZM53.997 14.947C53.997 14.947 53.9957 14.9472 53.9933 14.9475L53.997 14.947ZM52.5016 13.3306C52.9883 12.8507 53.7437 12.8507 54.2304 13.3306L54.2575 13.3572L54.6759 13.9072C55.084 14.3367 55.1192 14.9606 54.7818 15.4237C54.7709 15.4746 54.7545 15.5272 54.7309 15.5797C54.6624 15.7319 54.547 15.848 54.4025 15.9193C54.2775 15.9809 54.1542 15.9968 54.0771 16.0032C54.0023 16.0093 53.922 16.0093 53.8608 16.0093C53.8574 16.0093 53.8539 16.0093 53.8507 16.0093C53.6512 16.0093 53.454 15.9273 53.3337 15.8681C53.1965 15.8004 53.0394 15.7018 52.9172 15.5812L52.8902 15.5546L52.4718 15.0045C52.0153 14.5241 52.0252 13.8003 52.5016 13.3306Z" fill="#FFCB05"/>
<path d="M56.4926 36.6432C56.3543 36.6432 56.2157 36.6432 56.2157 36.5067C55.9386 36.3701 55.8003 35.9605 55.9386 35.551C56.2157 35.1412 56.3543 34.7316 56.6311 34.3221C56.7697 33.9125 57.1851 33.7759 57.6005 34.0489C58.0159 34.1855 58.1544 34.5951 57.8775 35.0048C57.6005 35.4144 57.4621 35.8239 57.1851 36.3701C56.9082 36.5067 56.6311 36.6432 56.4926 36.6432ZM58.4315 31.3184C58.4315 31.3184 58.2929 31.3184 58.4315 31.3184C57.8775 31.1818 57.739 30.9087 57.739 30.4991C57.8775 30.0895 57.8775 29.5434 58.0159 29.1339C58.0159 28.7241 58.4315 28.4511 58.8469 28.5877C59.2623 28.5877 59.5394 28.9973 59.4008 29.4068C59.4008 29.953 59.2623 30.3625 59.1237 30.9087C58.9854 31.0452 58.7083 31.3184 58.4315 31.3184ZM58.7083 25.7204C58.4315 25.7204 58.0159 25.4475 58.0159 25.1743C58.0159 24.7647 57.8775 24.2186 57.739 23.809C57.6005 23.3993 57.8775 23.1263 58.2929 22.9897C58.7083 22.8531 58.9854 23.1263 59.1237 23.5359C59.2623 24.082 59.2623 24.4915 59.4008 25.0377C59.4008 25.3109 59.1237 25.5838 58.7083 25.7204ZM57.0465 20.259C56.7697 20.259 56.4926 20.1225 56.3543 19.8494C56.2157 19.4398 55.9386 19.0302 55.6618 18.6206C55.5232 18.3476 55.6618 17.938 55.9386 17.6649C56.2157 17.5284 56.6311 17.6649 56.9082 17.938C57.1851 18.3476 57.3236 18.7572 57.6005 19.3033C57.739 19.7129 57.6005 19.986 57.3236 20.259C57.3236 20.259 57.1851 20.259 57.0465 20.259Z" fill="#FFCB05"/>
<path fill-rule="evenodd" clip-rule="evenodd" d="M56.2269 18.1456C56.1936 18.1957 56.1691 18.2474 56.1548 18.295C56.1414 18.3385 56.1399 18.366 56.1404 18.3801C56.3902 18.7494 56.6803 19.1827 56.8425 19.6337C56.881 19.6912 56.9499 19.7297 57.0425 19.7297H57.0717C57.0886 19.7033 57.0985 19.6821 57.1043 19.665C57.1129 19.6394 57.1234 19.5944 57.0966 19.5014C57.0019 19.3123 56.92 19.134 56.8479 18.9763C56.818 18.9108 56.7897 18.849 56.7626 18.7914C56.6722 18.5982 56.5897 18.436 56.4894 18.2804C56.4181 18.2196 56.3369 18.1762 56.2649 18.155C56.2505 18.1507 56.2381 18.1477 56.2269 18.1456ZM57.3195 20.2591L57.6991 20.6335C57.8647 20.4704 58.0335 20.2649 58.1231 19.9999C58.2174 19.721 58.2058 19.4316 58.1059 19.136L58.0939 19.1003L58.0767 19.0666C57.9835 18.8829 57.9098 18.7217 57.8359 18.5603C57.8037 18.4901 57.7715 18.4198 57.7377 18.3477C57.6299 18.1173 57.5124 17.8833 57.3507 17.6444L57.3213 17.6008L57.2837 17.5637C57.0854 17.3683 56.8358 17.2184 56.5736 17.1408C56.3169 17.0649 55.9934 17.0441 55.6945 17.1915L55.6165 17.2299L55.5548 17.2906C55.3566 17.4861 55.2047 17.7321 55.1259 17.9907C55.049 18.2438 55.028 18.5628 55.1775 18.8575L55.1923 18.887L55.211 18.9144C55.4986 19.34 55.7295 19.6879 55.8407 20.0169L55.8528 20.0526L55.8697 20.0863C56.1118 20.5635 56.5918 20.7885 57.0425 20.7885H57.3178L57.3195 20.2591ZM58.4895 23.4843C58.4833 23.4851 58.4732 23.4873 58.4586 23.4921C58.3875 23.5154 58.3331 23.5413 58.2943 23.5654C58.2608 23.5864 58.2438 23.6029 58.2365 23.6114C58.2373 23.6175 58.2395 23.6275 58.2444 23.6416C58.381 24.0457 58.5335 24.6198 58.5477 25.1026C58.555 25.1094 58.5645 25.1174 58.5765 25.1263C58.6005 25.1441 58.6272 25.1596 58.6527 25.1712C58.7329 25.1333 58.7904 25.0916 58.8265 25.056C58.834 25.0488 58.8398 25.0425 58.8448 25.0367C58.7887 24.7905 58.7569 24.5704 58.7277 24.3693L58.7266 24.3619C58.6929 24.1285 58.6624 23.9201 58.6042 23.6855C58.5821 23.6241 58.5584 23.5764 58.5359 23.5413C58.5146 23.5082 58.4979 23.4915 58.4895 23.4843ZM59.1304 22.6345C59.3892 22.8261 59.5413 23.1086 59.6292 23.3685L59.6356 23.3877L59.6408 23.4076C59.7166 23.7073 59.7546 23.9688 59.7888 24.2045L59.7898 24.2119C59.8246 24.4523 59.856 24.6662 59.9176 24.9095L59.9337 24.9726V25.0378C59.9337 25.3559 59.7739 25.6195 59.586 25.8048C59.3955 25.9924 59.1459 26.1335 58.8742 26.2228L58.7915 26.2499H58.7043C58.4154 26.2499 58.1317 26.121 57.9321 25.9734C57.7476 25.837 57.4748 25.5632 57.4748 25.1744C57.4748 24.8521 57.3591 24.3714 57.2255 23.9764C57.1037 23.616 57.1593 23.2624 57.3745 22.9795C57.5687 22.7241 57.8554 22.5741 58.119 22.4875C58.4846 22.3675 58.8433 22.4223 59.1304 22.6345ZM58.5533 29.1126C58.5516 29.1158 58.5488 29.1215 58.5488 29.1338V29.2197L58.5213 29.3013C58.4704 29.452 58.4414 29.6405 58.4049 29.8915L58.4019 29.9131C58.3735 30.1085 58.3391 30.3465 58.2743 30.571C58.2809 30.6646 58.3001 30.6898 58.3028 30.6936C58.3052 30.6966 58.3327 30.7328 58.4502 30.7735C58.4674 30.7643 58.4884 30.7514 58.5133 30.7341C58.5559 30.704 58.5969 30.6697 58.6366 30.6335C58.6499 30.5827 58.6626 30.5339 58.6751 30.4869C58.7844 30.0723 58.8598 29.7864 58.8598 29.4069V29.321L58.8873 29.2394C58.9043 29.1892 58.8924 29.1547 58.8806 29.1374C58.8746 29.1283 58.8684 29.1238 58.8643 29.1215C58.8613 29.1198 58.8553 29.117 58.8428 29.117H58.7556L58.6729 29.0899C58.622 29.0732 58.587 29.0851 58.5694 29.0965C58.5602 29.1026 58.5554 29.1086 58.5533 29.1126ZM58.3658 31.5612L58.2971 31.8321C57.9545 31.7476 57.6493 31.5989 57.4439 31.3289C57.2394 31.0602 57.198 30.7548 57.198 30.4992V30.4132L57.2255 30.3317C57.2764 30.1809 57.3054 29.9925 57.3419 29.7417L57.3449 29.7201C57.3741 29.5187 57.4098 29.2723 57.4785 29.0421C57.5348 28.3149 58.2586 27.8924 58.9292 28.0614C59.6676 28.1128 60.0987 28.8227 59.9329 29.4834C59.9224 29.9755 59.813 30.3866 59.7058 30.7887C59.6837 30.8717 59.6618 30.9543 59.6408 31.0373L59.6047 31.1794L59.4939 31.2887C59.4251 31.3564 59.2954 31.4846 59.1375 31.5955C58.9857 31.7027 58.7341 31.8477 58.4274 31.8477H58.3664L58.3658 31.5612ZM57.164 34.4368C57.1604 34.4406 57.1481 34.4552 57.1365 34.4895L57.1138 34.5568L57.0738 34.6159C56.9566 34.7891 56.8668 34.9651 56.7611 35.1733L56.7559 35.1835C56.6655 35.362 56.5624 35.5653 56.4288 35.7728C56.4104 35.856 56.4162 35.9282 56.4316 35.9791C56.4428 36.0157 56.455 36.032 56.4598 36.0371L56.5485 36.0809C56.5558 36.0779 56.5633 36.0748 56.5712 36.0714C56.6335 36.0451 56.7025 36.0127 56.7787 35.9761C56.8374 35.8545 56.8895 35.7408 56.9415 35.6271C56.9737 35.5568 57.006 35.4867 57.0397 35.4145C57.1475 35.1841 57.265 34.9501 57.4265 34.7112C57.4783 34.6348 57.4811 34.5914 57.4802 34.5787C57.4763 34.5751 57.4615 34.5628 57.4267 34.5513L57.3584 34.5289L57.2985 34.4895C57.221 34.4387 57.1769 34.4359 57.164 34.4368ZM56.4449 36.1173C56.4449 36.1173 56.4443 36.1175 56.4449 36.1173V36.1173ZM57.8353 33.5717C57.5378 33.3947 57.1898 33.3231 56.8537 33.4226C56.5154 33.5226 56.2707 33.7718 56.1447 34.0823C56.0053 34.2962 55.8989 34.506 55.8057 34.6898L55.8006 34.6998C55.6949 34.9079 55.6051 35.0839 55.4878 35.2574L55.4479 35.3162L55.4251 35.3836C55.258 35.878 55.345 36.5055 55.7698 36.8513C55.7823 36.8712 55.7961 36.8911 55.8115 36.9106C55.9112 37.037 56.0366 37.0982 56.1283 37.1285C56.2692 37.1747 56.4237 37.1732 56.4772 37.1728C56.4817 37.1728 56.4855 37.1726 56.4885 37.1726C56.6011 37.1726 56.7035 37.1469 56.7725 37.1262C56.8483 37.1035 56.9243 37.0741 56.9944 37.0444C57.1301 36.9871 57.2805 36.9131 57.413 36.8477L57.5812 36.7647L57.6613 36.6069C57.7644 36.4034 57.8524 36.2116 57.9295 36.043C57.9594 35.9776 57.9878 35.9157 58.0148 35.8581C58.1147 35.6449 58.2047 35.4691 58.3202 35.2984C58.5267 34.9931 58.6164 34.6261 58.5088 34.2724C58.407 33.9374 58.1523 33.6956 57.8353 33.5717Z" fill="#FFCB05"/>
<path d="M53.4453 40.4649C53.307 40.4649 53.1685 40.4649 53.0299 40.3283C52.7531 40.0553 52.7531 39.6456 53.0299 39.3726L53.4453 38.8265C53.7224 38.5533 54.1378 38.5533 54.4149 38.8265C54.6917 39.0994 54.6917 39.5092 54.4149 39.7822L53.9993 40.3283C53.8609 40.4649 53.5838 40.4649 53.4453 40.4649Z" fill="#FFCB05"/>
<path fill-rule="evenodd" clip-rule="evenodd" d="M53.8412 39.1832L53.4327 39.7204L53.4056 39.7471C53.3646 39.7876 53.3552 39.8246 53.3552 39.8507C53.3552 39.8723 53.3618 39.9021 53.3885 39.9352C53.3913 39.9352 53.3945 39.9354 53.3979 39.9354L53.4413 39.9356C53.5137 39.9356 53.5758 39.9345 53.6301 39.9256C53.6303 39.9256 53.6299 39.9256 53.6301 39.9256L54.004 39.4346L54.0311 39.4079C54.0721 39.3676 54.0816 39.3304 54.0816 39.3045C54.0816 39.2787 54.0721 39.2414 54.0311 39.201C53.9901 39.1605 53.9523 39.1512 53.9261 39.1512C53.9042 39.1512 53.8743 39.1576 53.8412 39.1832ZM53.0618 38.4522C53.5483 37.9723 54.3039 37.9723 54.7904 38.4522C55.267 38.9219 55.2769 39.6457 54.8205 40.1262L54.402 40.6761L54.375 40.7028C54.1868 40.8883 53.9478 40.947 53.8067 40.9701C53.6582 40.9944 53.5173 40.9944 53.4484 40.9944C53.4458 40.9944 53.4437 40.9944 53.4413 40.9944C53.4372 40.9944 53.4327 40.9944 53.4282 40.9944C53.2753 40.9946 52.943 40.9953 52.6461 40.7028C52.1697 40.2331 52.1599 39.5093 52.6163 39.0288L53.0347 38.4789L53.0618 38.4522Z" fill="#FFCB05"/>
<path d="M26.1505 40.4661C26.0119 40.4661 25.7351 40.3295 25.5965 40.1931L25.0426 39.647C24.7657 39.3738 24.7657 38.9642 25.0426 38.6911C25.3197 38.4181 25.7351 38.4181 26.0119 38.6911L26.5659 39.2372C26.843 39.5104 26.843 39.9199 26.5659 40.1931C26.4276 40.4661 26.289 40.4661 26.1505 40.4661Z" fill="#FFCB05"/>
<path fill-rule="evenodd" clip-rule="evenodd" d="M25.5224 39.0157C25.4962 39.0157 25.4584 39.0251 25.4173 39.0655C25.3763 39.106 25.3669 39.1432 25.3669 39.1691C25.3669 39.1949 25.3763 39.2322 25.4173 39.2726L25.9713 39.8188C25.9762 39.8236 25.9917 39.8372 26.0196 39.856C26.0456 39.8734 26.0757 39.8908 26.1062 39.906L26.1197 39.8795L26.1813 39.8188C26.2221 39.7783 26.2316 39.741 26.2316 39.7152C26.2316 39.6894 26.2221 39.6521 26.1813 39.6117L25.6274 39.0655C25.5864 39.0251 25.5486 39.0157 25.5224 39.0157ZM24.6578 38.3169C25.1446 37.8371 25.9 37.8371 26.3867 38.3169L26.9406 38.8631C27.4061 39.322 27.4265 40.0231 27.0016 40.5032C26.9054 40.6696 26.7763 40.8153 26.5933 40.9055C26.4069 40.9974 26.2245 40.9962 26.1571 40.9955C26.1526 40.9955 26.1489 40.9955 26.1455 40.9955C25.9459 40.9955 25.7485 40.9136 25.6285 40.8543C25.4912 40.7867 25.3342 40.6881 25.2118 40.5673L24.6578 40.0212C24.1713 39.5416 24.1713 38.7966 24.6578 38.3169Z" fill="#FFCB05"/>
<path d="M23.1052 36.6432C22.8283 36.6432 22.6898 36.5067 22.5513 36.2335C22.2744 35.8239 22.1359 35.4144 21.8588 34.8682C21.7205 34.4587 21.8588 34.1855 22.1359 33.9125C22.5513 33.7759 22.8283 33.9125 23.1052 34.1855C23.2437 34.5951 23.5206 35.0048 23.7977 35.4144C23.9362 35.6873 23.7977 36.0971 23.5206 36.3701C23.2437 36.5067 23.2437 36.6432 23.1052 36.6432ZM21.028 31.3184C20.751 31.3184 20.474 31.0452 20.3356 30.7723C20.1971 30.2261 20.1971 29.8164 20.0586 29.2702C20.0586 28.8607 20.3356 28.5877 20.6125 28.4511C21.028 28.4511 21.3049 28.7241 21.4434 28.9973C21.4434 29.4068 21.5819 29.953 21.7205 30.3625C21.8588 30.9087 21.5819 31.1818 21.028 31.3184C21.1665 31.3184 21.1665 31.3184 21.028 31.3184ZM20.8895 25.5838C20.8895 25.5838 20.751 25.5838 20.8895 25.5838C20.474 25.5838 20.1971 25.1743 20.1971 24.7647C20.1971 24.2186 20.3355 23.809 20.474 23.2629C20.6125 22.8531 20.8895 22.5802 21.3049 22.7167C21.7205 22.8531 21.8588 23.1263 21.8588 23.5359C21.7205 23.9454 21.7205 24.4915 21.5819 24.9013C21.4434 25.4472 21.1665 25.5838 20.8895 25.5838ZM22.4127 20.259C22.2744 20.259 22.2744 20.259 22.1359 20.259C21.7205 20.1225 21.5819 19.7129 21.8588 19.3033C22.1359 18.8937 22.2744 18.4841 22.5513 17.938C22.6898 17.6649 23.1052 17.5284 23.5206 17.6649C23.7977 17.8014 23.9362 18.211 23.7977 18.6206C23.5206 19.0302 23.3823 19.4398 23.1052 19.8494C22.9667 20.1225 22.6898 20.259 22.4127 20.259Z" fill="#FFCB05"/>
<path fill-rule="evenodd" clip-rule="evenodd" d="M23.0236 18.1825C22.9323 18.363 22.8595 18.5219 22.7867 18.681C22.7545 18.7512 22.7223 18.8215 22.6885 18.8936C22.5807 19.124 22.4632 19.358 22.3017 19.5969C22.2499 19.6734 22.2474 19.7167 22.248 19.7295C22.248 19.7295 22.248 19.7295 22.248 19.7295L22.408 19.7296C22.5113 19.7296 22.5859 19.6815 22.6209 19.6126L22.6359 19.5831L22.6544 19.5557C22.7717 19.3824 22.8614 19.2064 22.9671 18.9982L22.9723 18.9882C23.0627 18.8096 23.1658 18.6064 23.2994 18.3988C23.3179 18.3155 23.3121 18.2432 23.2966 18.1924C23.2906 18.1727 23.2841 18.1588 23.279 18.1495C23.1997 18.1344 23.1312 18.1404 23.0825 18.1549C23.0453 18.1658 23.0288 18.1779 23.0236 18.1825ZM22.0669 17.7011C22.3653 17.1129 23.1136 16.9744 23.6864 17.1626L23.7227 17.1745L23.7567 17.1913C24.3534 17.4854 24.494 18.2233 24.3031 18.788L24.2803 18.8552L24.2404 18.9142C24.1231 19.0876 24.0333 19.2636 23.9277 19.4717L23.9225 19.4818C23.8252 19.6738 23.7135 19.8942 23.5647 20.118C23.3179 20.5734 22.8492 20.7884 22.4087 20.7884H22.0446L21.9619 20.7612C21.6133 20.6466 21.3286 20.3946 21.2193 20.0356C21.1117 19.6819 21.2015 19.3151 21.408 19.0096C21.5235 18.8389 21.6135 18.6633 21.7134 18.4499C21.7405 18.3923 21.7688 18.3304 21.7987 18.265C21.8758 18.0966 21.9638 17.9046 22.0669 17.7011ZM20.9854 23.413C20.9606 23.5102 20.9369 23.6 20.9146 23.6847C20.8054 24.0992 20.73 24.3852 20.73 24.7647C20.73 24.8583 20.7635 24.9473 20.8073 25.0028C20.8466 25.0527 20.8733 25.0544 20.8854 25.0544C20.9268 25.0544 20.9327 25.047 20.9339 25.0455C20.934 25.0455 20.9339 25.0455 20.9339 25.0455C20.943 25.0379 21.0043 24.9801 21.0569 24.7728L21.0619 24.7531L21.0685 24.7338C21.1194 24.583 21.1484 24.3946 21.1848 24.1436C21.1858 24.1364 21.1868 24.1292 21.1879 24.122C21.2162 23.9266 21.2507 23.6881 21.3156 23.4639C21.3088 23.3639 21.2887 23.3209 21.2783 23.3044C21.2723 23.2949 21.2486 23.2574 21.1311 23.2188C21.1167 23.2142 21.1066 23.2121 21.1003 23.2112C21.0918 23.2182 21.0751 23.2349 21.0538 23.2682C21.0313 23.3033 21.0075 23.3512 20.9854 23.413ZM20.8239 26.1116C20.4496 26.0923 20.1522 25.897 19.9596 25.6529C19.7611 25.4013 19.6561 25.0805 19.6561 24.7647C19.6561 24.2383 19.7713 23.8056 19.8839 23.383C19.906 23.3 19.928 23.2172 19.949 23.1344L19.954 23.1147L19.9606 23.0954C20.0484 22.8356 20.2004 22.5528 20.4594 22.3614C20.7465 22.149 21.1051 22.0942 21.4707 22.2144C21.7677 22.3121 22.0216 22.4794 22.1889 22.7432C22.3494 22.9963 22.3917 23.2786 22.3917 23.5359V23.6216L22.3642 23.7032C22.3133 23.8539 22.2843 24.0424 22.248 24.2933C22.2469 24.3005 22.2459 24.3077 22.2448 24.3149C22.2132 24.5326 22.1741 24.8035 22.0938 25.0489C22.0072 25.3791 21.8618 25.6558 21.6331 25.8492C21.3915 26.0533 21.118 26.1132 20.8854 26.1132L20.8239 26.1116ZM20.4817 27.9217H20.6085C21.2974 27.9217 21.7265 28.3796 21.9196 28.7605L21.9763 28.8721V28.9973C21.9763 29.3196 22.0923 29.8001 22.2257 30.195L22.2323 30.2145L22.2373 30.2342C22.3329 30.6113 22.3062 30.9989 22.0536 31.3191C21.8229 31.6115 21.4743 31.753 21.1542 31.832L21.1278 31.7278V31.8476H21.0247C20.7098 31.8476 20.4505 31.6968 20.2763 31.5497C20.096 31.3972 19.9495 31.2028 19.8512 31.0088L19.8249 30.9569L19.8106 30.9006C19.7346 30.601 19.6967 30.3392 19.6626 30.1037L19.6614 30.0961C19.6266 29.8558 19.5953 29.6419 19.5336 29.3986L19.5176 29.3355V29.2702C19.5176 28.5911 19.982 28.168 20.3683 27.9776L20.4817 27.9217ZM21.0093 30.7716C21.1508 30.7248 21.1965 30.681 21.2059 30.6689C21.2061 30.6689 21.2058 30.6692 21.2059 30.6689C21.2076 30.667 21.2107 30.6632 21.2129 30.6482C21.2157 30.6287 21.2174 30.5851 21.1996 30.508C21.0723 30.1275 20.9337 29.6046 20.907 29.148C20.8558 29.0777 20.7947 29.0286 20.7271 29.0024C20.6525 29.065 20.6077 29.14 20.5951 29.222C20.6583 29.4886 20.6924 29.7245 20.7235 29.9388L20.7246 29.9464C20.7564 30.1656 20.7852 30.3627 20.8369 30.5804C20.8753 30.6435 20.925 30.7032 20.9752 30.7456C20.9885 30.7568 20.9998 30.7653 21.0093 30.7716ZM22.4177 34.389C22.3754 34.4417 22.356 34.4794 22.347 34.5065C22.3382 34.5322 22.3279 34.5773 22.3545 34.6702C22.4495 34.8591 22.5311 35.0376 22.6033 35.1952C22.6333 35.2606 22.6617 35.3227 22.6885 35.3803C22.7884 35.5935 22.8786 35.7693 22.994 35.9398L23.0127 35.9673L23.0275 35.9967C23.0346 36.0107 23.0414 36.0236 23.0477 36.0351C23.0876 36.0054 23.1316 35.9762 23.181 35.9476C23.2367 35.8807 23.2764 35.8064 23.2966 35.7401C23.3099 35.6964 23.3114 35.6689 23.311 35.6549C23.0769 35.3087 22.8071 34.9064 22.6406 34.4858C22.5749 34.4312 22.5298 34.4079 22.4987 34.3977C22.4821 34.3922 22.4576 34.386 22.4177 34.389ZM22.8382 33.3931C23.1072 33.4814 23.3155 33.648 23.4809 33.8111L23.5705 33.8994L23.6106 34.018C23.7219 34.3471 23.9526 34.695 24.2404 35.1207L24.2589 35.148L24.2739 35.1776C24.4234 35.4722 24.4023 35.7911 24.3252 36.0444C24.2466 36.3029 24.0945 36.549 23.8963 36.7445L23.8347 36.8052L23.7567 36.8436C23.6961 36.8734 23.6744 36.8948 23.6396 36.9293L23.6366 36.9321C23.6355 36.9332 23.6343 36.9346 23.6325 36.9363C23.6123 36.9564 23.5509 37.0179 23.4738 37.0664C23.3656 37.1341 23.2399 37.1724 23.1011 37.1724C22.8625 37.1724 22.6344 37.11 22.4368 36.9541C22.2697 36.8222 22.1612 36.6511 22.0822 36.5001C21.9299 36.2705 21.8171 36.0454 21.7134 35.8239C21.6797 35.7517 21.6475 35.6814 21.6155 35.6113C21.5416 35.45 21.4677 35.2886 21.3746 35.105L21.3575 35.0713L21.3454 35.0355C21.2455 34.7399 21.2338 34.4506 21.3281 34.1717C21.4177 33.9066 21.5867 33.7012 21.7521 33.5381L21.8416 33.4496L21.9619 33.4102C22.2618 33.3116 22.5554 33.3001 22.8382 33.3931Z" fill="#FFCB05"/>
<path d="M25.6016 15.4804C25.4632 15.4804 25.1862 15.4804 25.1862 15.3439C24.9093 15.0708 24.9093 14.6612 25.1862 14.3881L25.7401 13.842C26.0172 13.5689 26.4326 13.5689 26.7094 13.842C26.9865 14.1151 26.9865 14.5247 26.7094 14.7978L26.1555 15.3439C26.0172 15.4804 25.7401 15.4804 25.6016 15.4804Z" fill="#FFCB05"/>
<path fill-rule="evenodd" clip-rule="evenodd" d="M26.221 14.1648C26.1948 14.1648 26.157 14.1741 26.1159 14.2145L25.562 14.7607C25.521 14.8011 25.5115 14.8383 25.5115 14.8642C25.5115 14.8859 25.5182 14.9158 25.5448 14.9488C25.5607 14.9491 25.5783 14.9492 25.5976 14.9492C25.67 14.9492 25.7321 14.9482 25.7864 14.9393C25.7931 14.9382 25.7991 14.9371 25.8041 14.936L26.3258 14.4216L26.6785 14.7692L26.326 14.4216C26.3668 14.3811 26.3763 14.3439 26.3763 14.318C26.3763 14.2922 26.3668 14.2549 26.326 14.2145C26.285 14.1741 26.2472 14.1648 26.221 14.1648ZM25.4434 14.9424C25.4389 14.9415 25.4398 14.9413 25.4447 14.9426L25.4434 14.9424ZM25.3564 13.4658C25.8432 12.986 26.5986 12.986 27.0853 13.4658C27.572 13.9456 27.572 14.6904 27.0853 15.1703L26.7055 14.7959L27.0853 15.1703L26.5313 15.7164L26.1939 15.3836L26.5313 15.7164C26.343 15.902 26.1041 15.9605 25.963 15.9837C25.8146 16.0081 25.6737 16.008 25.6047 16.008C25.6022 16.008 25.6 16.008 25.5976 16.008C25.5946 16.008 25.5914 16.008 25.588 16.008C25.5231 16.0081 25.3732 16.0083 25.2327 15.9807C25.1612 15.9665 25.0386 15.9358 24.9221 15.8563C24.8422 15.8018 24.7615 15.7201 24.708 15.6124C24.3182 15.1341 24.3497 14.4583 24.8025 14.012L25.3564 13.4658Z" fill="#FFCB05"/>
<path d="M60.7807 9.19948C60.6421 9.19948 60.3653 9.06295 60.2267 8.92641L59.8113 8.38027C59.5342 8.1072 59.5342 7.6976 59.8113 7.42453C60.0882 7.15146 60.5038 7.15146 60.7807 7.42453L61.1961 7.97067C61.4731 8.24374 61.4731 8.65334 61.1961 8.92641C61.0577 9.06295 60.9192 9.19948 60.7807 9.19948Z" fill="#FFCB05"/>
<path fill-rule="evenodd" clip-rule="evenodd" d="M60.292 7.74926C60.2656 7.74926 60.228 7.75858 60.187 7.79901C60.1459 7.83941 60.1365 7.87668 60.1365 7.90252C60.1365 7.92837 60.1459 7.96562 60.187 8.00605L60.2138 8.03265L60.6213 8.56831C60.629 8.57419 60.6387 8.58131 60.6507 8.58938C60.6739 8.60498 60.7003 8.62055 60.7274 8.63452C60.7527 8.61093 60.7794 8.58465 60.8124 8.55219C60.8532 8.51177 60.8627 8.47449 60.8627 8.44866C60.8627 8.42282 60.8532 8.38555 60.8124 8.34515L60.7854 8.31853L60.3766 7.78122C60.3436 7.75572 60.3137 7.74926 60.292 7.74926ZM59.4275 7.05029C59.9142 6.57048 60.6696 6.57048 61.1563 7.05029L61.1834 7.07691L61.6018 7.62695C62.0582 8.10736 62.0481 8.83113 61.5717 9.30089C61.5687 9.30391 61.5655 9.30703 61.5623 9.31022C61.5 9.3718 61.407 9.46348 61.3064 9.53779C61.2064 9.6118 61.021 9.72901 60.7766 9.72901C60.577 9.72901 60.3796 9.64706 60.2596 9.58778C60.1223 9.52017 59.9653 9.42153 59.8429 9.30089L59.816 9.27429L59.3976 8.72423C58.941 8.24382 58.9511 7.52007 59.4275 7.05029Z" fill="#FFCB05"/>
<path d="M63.413 43.3333C63.2744 43.3333 63.1359 43.3333 62.9974 43.1967C62.7205 42.9235 62.582 42.5139 62.8591 42.241C63.1359 41.8312 63.413 41.5582 63.5513 41.1487C63.6899 40.8755 64.2438 40.7389 64.5209 40.8755C64.7977 41.0121 64.9363 41.5582 64.7977 41.8312C64.5209 42.241 64.2438 42.6505 64.1053 42.9235C63.8284 43.1967 63.5513 43.3333 63.413 43.3333ZM66.0441 38.6909C65.9056 38.6909 65.9056 38.6909 65.7671 38.6909C65.3517 38.5546 65.2131 38.1448 65.3517 37.7353C65.4902 37.3257 65.6287 36.9161 65.9056 36.5064C66.0441 36.0968 66.4595 35.9602 66.7364 36.0968C67.152 36.2334 67.2904 36.643 67.152 36.9161C67.0135 37.3257 66.875 37.7353 66.5981 38.1448C66.5981 38.5546 66.321 38.6909 66.0441 38.6909ZM67.706 33.6393H67.5674C67.152 33.5027 67.0135 33.2295 67.0135 32.82C67.152 32.4104 67.152 32.0009 67.2904 31.5913C67.2904 31.1816 67.706 31.0452 68.1214 31.0452C68.5368 31.0452 68.8138 31.4547 68.6753 31.8643C68.5368 32.2738 68.5368 32.82 68.3982 33.2295C68.2599 33.3661 67.9828 33.6393 67.706 33.6393ZM68.2599 28.4509C67.8443 28.4509 67.5674 28.1779 67.5674 27.7683V27.2222C67.5674 26.949 67.5674 26.8124 67.5674 26.5395C67.5674 26.1299 67.8443 25.8567 68.2599 25.8567C68.6753 25.8567 68.9522 26.1299 68.9522 26.5395C68.9522 26.8124 68.9522 27.0856 68.9522 27.2222V27.9047C68.9522 28.0413 68.6753 28.4509 68.2599 28.4509ZM67.8443 23.126C67.5674 23.126 67.2904 22.8531 67.152 22.5799C67.0135 22.1703 67.0135 21.7608 66.875 21.3512C66.7364 20.9415 67.0135 20.6685 67.4289 20.5319C67.8443 20.3954 68.1214 20.6685 68.2599 21.0781C68.3982 21.4876 68.3982 21.8974 68.5368 22.4435C68.6753 22.7165 68.3982 22.9897 67.8443 23.126C67.9828 23.126 67.9828 23.126 67.8443 23.126ZM66.4596 18.0743C66.1825 18.0743 65.9056 17.9378 65.7671 17.6647C65.6287 17.2551 65.4902 16.8455 65.2131 16.4359C65.0748 16.0263 65.2131 15.7532 65.6287 15.4802C66.0441 15.3436 66.321 15.4802 66.5981 15.8898C66.7364 16.2994 67.0135 16.709 67.152 17.1186C67.2904 17.5282 67.152 17.8012 66.7364 17.9378C66.5981 18.0743 66.5981 18.0743 66.4596 18.0743ZM64.1053 13.2956C63.8284 13.2956 63.6899 13.1591 63.5513 13.0225C63.2745 12.613 63.1359 12.3399 62.8591 11.9303C62.582 11.6572 62.7205 11.2476 62.9974 10.9745C63.2745 10.7015 63.6898 10.838 63.9669 11.1111C64.2438 11.5207 64.5209 11.7937 64.7977 12.2033C64.9363 12.4764 64.9363 12.886 64.5209 13.1591C64.2438 13.2956 64.2438 13.2956 64.1053 13.2956Z" fill="#FFCB05"/>
<path fill-rule="evenodd" clip-rule="evenodd" d="M63.3657 11.3554C63.2884 11.434 63.2517 11.5116 63.2427 11.5556C63.2422 11.5582 63.2418 11.5604 63.2416 11.5624L63.2721 11.5924L63.3015 11.636C63.4472 11.8513 63.5565 12.031 63.6598 12.2008L63.6613 12.2034C63.7573 12.3611 63.8482 12.5104 63.9646 12.6845C63.9813 12.7008 63.9951 12.7136 64.0084 12.7252C64.0288 12.743 64.0413 12.7514 64.0483 12.7557C64.0546 12.7594 64.0582 12.7607 64.0619 12.7617C64.0657 12.7628 64.0773 12.7656 64.101 12.7656C64.1042 12.7656 64.1072 12.7656 64.11 12.7656C64.1141 12.7637 64.119 12.7615 64.1244 12.759C64.1529 12.7456 64.1892 12.7278 64.2412 12.7023C64.2784 12.6749 64.2994 12.6507 64.3115 12.6334C64.3256 12.613 64.3325 12.5944 64.3362 12.5768C64.3428 12.5442 64.339 12.5028 64.3233 12.4622C64.2071 12.2939 64.0896 12.1485 63.9588 11.9873L63.954 11.9817C63.8284 11.8268 63.6903 11.6567 63.5509 11.4553C63.4798 11.3943 63.4126 11.3644 63.3726 11.3565C63.37 11.356 63.3679 11.3557 63.3657 11.3554ZM63.5831 10.3183C63.8834 10.3775 64.1474 10.544 64.3422 10.7361L64.3798 10.7732L64.4094 10.8168C64.5331 10.9999 64.6577 11.1538 64.7973 11.3259L64.8018 11.3315C64.938 11.4993 65.0888 11.6851 65.2402 11.9091L65.2589 11.9365L65.2737 11.966C65.3882 12.1916 65.4507 12.4817 65.3893 12.7844C65.3253 13.1001 65.1341 13.3888 64.8143 13.599L64.7866 13.6173L64.7567 13.632C64.7466 13.6369 64.7367 13.6418 64.7269 13.6467C64.6195 13.6998 64.5164 13.7507 64.4266 13.7802C64.2904 13.8249 64.1796 13.8246 64.1128 13.8244C64.1087 13.8244 64.1048 13.8244 64.101 13.8244C63.6007 13.8244 63.3254 13.5524 63.1784 13.4071C63.1746 13.4034 63.1709 13.3998 63.1675 13.3963L63.1299 13.3592L63.1003 13.3156C62.9549 13.1003 62.8453 12.9207 62.742 12.7508L62.7405 12.7482C62.6432 12.5882 62.5508 12.4368 62.4323 12.2594C62.1829 11.985 62.1292 11.6461 62.1898 11.348C62.2497 11.052 62.4187 10.7916 62.6136 10.5996C62.8992 10.3178 63.2642 10.2554 63.5831 10.3183ZM65.8584 15.9642C65.74 16.0505 65.7078 16.1032 65.6996 16.1212C65.6996 16.1213 65.6996 16.1211 65.6996 16.1212C65.6979 16.1242 65.6865 16.1452 65.7022 16.212C65.9814 16.6463 66.1301 17.0759 66.2564 17.4498C66.2839 17.4899 66.326 17.5205 66.3807 17.535L66.4422 17.4745L66.5624 17.4349C66.6168 17.4171 66.6471 17.401 66.6625 17.3908C66.6615 17.3724 66.6563 17.339 66.6383 17.2854C66.5833 17.1227 66.498 16.9523 66.3904 16.7403L66.3829 16.7256C66.2944 16.5512 66.1902 16.3457 66.111 16.1316C66.0182 16.0052 65.9619 15.9716 65.943 15.9634C65.9428 15.9633 65.943 15.9634 65.943 15.9634C65.94 15.9618 65.9202 15.9512 65.8584 15.9642ZM66.6619 17.4087C66.6617 17.4087 66.6619 17.4077 66.6623 17.4059L66.6619 17.4087ZM66.2907 17.6226C66.2888 17.6242 66.289 17.6243 66.2907 17.6226V17.6226ZM66.379 14.9958C66.6694 15.123 66.8778 15.3548 67.0406 15.5955L67.0805 15.6545L67.1033 15.7218C67.1583 15.8844 67.2435 16.0549 67.3509 16.2668L67.3585 16.2816C67.4573 16.4763 67.5756 16.7097 67.6572 16.9506C67.7526 17.2328 67.7833 17.5603 67.628 17.8667C67.4955 18.128 67.2693 18.2917 67.0281 18.3926C67.0217 18.3984 67.0154 18.4041 67.0092 18.4096C66.9735 18.4413 66.9145 18.4905 66.8339 18.5302C66.6759 18.6081 66.512 18.6044 66.4647 18.6033C66.4606 18.6032 66.4576 18.6031 66.4553 18.6031C66.0046 18.6031 65.5246 18.3781 65.2825 17.9009L65.2655 17.8672L65.2535 17.8315C65.1133 17.4169 64.9941 17.0718 64.7621 16.729L64.7223 16.67L64.6996 16.6027C64.6004 16.3094 64.5804 15.9968 64.7183 15.6912C64.8474 15.4049 65.0823 15.1995 65.3265 15.0391L65.3863 14.9997L65.4546 14.9773C65.752 14.8795 66.0691 14.86 66.379 14.9958ZM67.6252 21.0259C67.619 21.0268 67.6089 21.0288 67.5945 21.0336C67.5234 21.057 67.4691 21.0827 67.4302 21.107C67.3965 21.1279 67.3795 21.1444 67.3724 21.1528C67.3733 21.159 67.3754 21.1689 67.3801 21.1831C67.4628 21.4277 67.5032 21.6675 67.5365 21.864L67.5389 21.8779C67.5715 22.0715 67.5986 22.2259 67.6445 22.3731C67.6839 22.4417 67.7373 22.5071 67.7915 22.5528C67.8048 22.5641 67.8162 22.5727 67.8258 22.5791C67.881 22.5611 67.9274 22.5425 67.9654 22.524C67.9768 22.5187 67.9869 22.5135 67.9962 22.5084C67.936 22.2583 67.9014 22.0351 67.8722 21.846C67.8692 21.8269 67.8662 21.8078 67.8634 21.7894C67.8286 21.5666 67.7994 21.4023 67.7461 21.245C67.7225 21.1748 67.6963 21.1212 67.6718 21.0829C67.6506 21.0497 67.6338 21.033 67.6252 21.0259ZM67.944 23.535L67.9704 23.6392C68.2939 23.5594 68.6077 23.4247 68.8257 23.2097C68.9389 23.0981 69.0417 22.9488 69.0845 22.7621C69.1232 22.5926 69.1051 22.4245 69.043 22.272C68.9923 22.0639 68.9634 21.8771 68.9331 21.6819C68.9303 21.6641 68.9275 21.6463 68.9247 21.6285C68.8903 21.4074 68.8502 21.1622 68.7651 20.9101C68.6773 20.6502 68.5252 20.3676 68.2661 20.1761C67.979 19.9638 67.6205 19.909 67.2549 20.0291C66.9914 20.1157 66.7046 20.2656 66.5105 20.5209C66.295 20.804 66.2394 21.1575 66.3614 21.5179C66.4151 21.6772 66.4439 21.8415 66.4795 22.052L66.4819 22.066C66.5152 22.2625 66.5556 22.5022 66.6383 22.7468L66.6503 22.7824L66.6675 22.8161C66.7656 23.01 66.9123 23.2044 67.0925 23.3567C67.2667 23.5041 67.5251 23.6549 67.8402 23.6549H67.9425L67.944 23.535ZM68.1332 26.4182C68.1263 26.4252 68.1001 26.4544 68.1001 26.5389V27.7678C68.1001 27.8522 68.1263 27.8815 68.1332 27.8883C68.1403 27.895 68.1699 27.9209 68.2556 27.9209C68.2773 27.9209 68.3218 27.9094 68.3778 27.8542C68.3914 27.8408 68.4023 27.8279 68.4111 27.8165V26.5389C68.4111 26.4544 68.3847 26.4252 68.3778 26.4182C68.371 26.4114 68.3413 26.3856 68.2556 26.3856C68.1699 26.3856 68.1403 26.4114 68.1332 26.4182ZM67.3739 25.6696C67.6093 25.4375 67.9259 25.3267 68.2556 25.3267C68.5853 25.3267 68.9019 25.4375 69.1373 25.6696C69.3727 25.9017 69.4851 26.2138 69.4851 26.5389V27.9041C69.4851 28.0748 69.4138 28.2224 69.3676 28.3042C69.3104 28.4058 69.2325 28.5089 69.1373 28.6027C68.9511 28.7863 68.6493 28.9797 68.2556 28.9797C67.9259 28.9797 67.6093 28.8691 67.3739 28.6371C67.1385 28.4047 67.0262 28.0928 67.0262 27.7678V26.5389C67.0262 26.2138 67.1385 25.9017 67.3739 25.6696ZM67.8233 31.6187V31.6765L67.7955 31.758C67.7418 31.9173 67.7131 32.0816 67.6774 32.2921L67.675 32.3061C67.6461 32.4774 67.6117 32.6813 67.5485 32.8927C67.5554 32.9918 67.5754 33.0346 67.5857 33.0509C67.5904 33.0581 67.6052 33.0816 67.6637 33.1093H67.6901C67.6922 33.1085 67.6955 33.1074 67.6995 33.1057C67.7195 33.0975 67.7491 33.0814 67.7876 33.0543C67.8325 33.0227 67.8757 32.9861 67.9175 32.9475C67.9498 32.8179 67.9732 32.6629 68.0009 32.4715L68.0041 32.4499C68.0365 32.2265 68.0769 31.9469 68.1615 31.6962C68.1785 31.646 68.1667 31.6115 68.1551 31.5941C68.1489 31.585 68.1429 31.5806 68.1386 31.5783C68.1356 31.5766 68.1295 31.5738 68.1171 31.5738C68.0419 31.5738 67.974 31.5802 67.9173 31.5914C67.8739 31.5999 67.8432 31.61 67.8233 31.6187ZM67.285 30.7011C67.553 30.5544 67.8641 30.515 68.1171 30.515C68.9432 30.515 69.4204 31.321 69.1805 32.031C69.1294 32.1818 69.1004 32.3703 69.0641 32.6212L69.0611 32.6428C69.0286 32.8664 68.9883 33.1457 68.9034 33.3965L68.8635 33.5151L68.7681 33.6089C68.6996 33.6766 68.5696 33.8047 68.412 33.9159C68.2599 34.0229 68.0084 34.1681 67.7017 34.1681H67.4759L67.3935 34.1408C67.0962 34.0432 66.8423 33.8759 66.675 33.612C66.5145 33.359 66.4722 33.0767 66.4722 32.8194V32.7334L66.4997 32.6521C66.5536 32.4929 66.5824 32.3285 66.6181 32.118L66.6204 32.1039C66.6503 31.927 66.6862 31.7153 66.7532 31.4965C66.7852 31.1213 67.0075 30.8532 67.285 30.7011ZM66.4486 36.6053C66.437 36.6178 66.4224 36.6388 66.4108 36.6733L66.388 36.7404L66.3481 36.7995C66.1163 37.1424 65.9971 37.4875 65.8569 37.9022C65.8203 38.01 65.8319 38.0837 65.8459 38.1184C65.8528 38.1349 65.8609 38.1461 65.8704 38.1548C65.8725 38.1567 65.8749 38.1588 65.8777 38.161H66.0399C66.0459 38.161 66.0515 38.1607 66.0564 38.1605C66.0566 38.1557 66.0568 38.1502 66.0568 38.1442V37.9839L66.147 37.8505C66.3788 37.5077 66.498 37.1627 66.6383 36.7481L66.6503 36.7123L66.6625 36.6883C66.6623 36.6847 66.661 36.6784 66.6569 36.6697C66.6524 36.6595 66.6445 36.6475 66.6314 36.6358C66.6185 36.6244 66.5975 36.61 66.5624 36.5986L66.5261 36.5867L66.5019 36.5746C66.4982 36.5748 66.4918 36.5761 66.483 36.5801C66.4727 36.5846 66.4604 36.5924 66.4486 36.6053ZM66.9364 35.6058C66.3698 35.3525 65.6732 35.6407 65.4189 36.2659C65.1255 36.7167 64.9745 37.1631 64.8446 37.5481L64.8379 37.5672C64.7359 37.8691 64.7245 38.205 64.8489 38.5116C64.9775 38.8289 65.2376 39.0758 65.5931 39.1927L65.6758 39.2198H66.0381C66.2566 39.2198 66.5339 39.1671 66.7643 38.9777C66.9686 38.8098 67.085 38.5781 67.1198 38.3158C67.3823 37.8924 67.5245 37.4755 67.6471 37.1123C67.9057 36.5431 67.5958 35.8426 66.9364 35.6058ZM64.0232 41.4073C63.9328 41.639 63.8121 41.8298 63.6927 41.9977C63.6239 42.0947 63.5683 42.1682 63.5155 42.2383C63.4472 42.3287 63.3834 42.413 63.3015 42.5339L63.2721 42.5775L63.2416 42.6076C63.2418 42.6095 63.2422 42.6118 63.2427 42.6144C63.2513 42.6561 63.2848 42.7283 63.3544 42.8028C63.3576 42.8028 63.3612 42.8028 63.3651 42.8031H63.3705C63.3849 42.7973 63.4072 42.787 63.4364 42.7704C63.4991 42.7353 63.5788 42.6796 63.6656 42.6012C63.8224 42.3137 64.0754 41.938 64.3097 41.5918C64.3102 41.5869 64.3106 41.5805 64.3108 41.5731C64.3117 41.5369 64.3063 41.4899 64.2928 41.441C64.2822 41.4029 64.2691 41.3724 64.2573 41.351C64.2567 41.351 64.256 41.351 64.2552 41.351C64.2185 41.3501 64.1708 41.3552 64.1212 41.3686C64.0784 41.3802 64.0449 41.3948 64.0232 41.4073ZM63.8385 40.3472C64.0952 40.2782 64.4534 40.2519 64.7567 40.4014C65.0967 40.5691 65.261 40.9169 65.3289 41.1623C65.3989 41.4154 65.4254 41.7686 65.2737 42.0674L65.2589 42.097L65.2402 42.1243C64.9541 42.5477 64.7011 42.9238 64.5814 43.1597L64.5424 43.2365L64.4807 43.2973C64.3119 43.4638 64.136 43.5959 63.9693 43.6899C63.8222 43.7727 63.619 43.8621 63.4087 43.8621C63.4044 43.8621 63.4001 43.8621 63.3956 43.8621C63.2425 43.8623 62.9102 43.8629 62.6136 43.5705C62.4187 43.3784 62.2497 43.1179 62.1898 42.8221C62.129 42.5233 62.1831 42.1836 62.4338 41.9088C62.5135 41.7936 62.6086 41.6663 62.6883 41.5596C62.7383 41.4924 62.7824 41.4336 62.8129 41.3906C62.9205 41.239 62.9918 41.1163 63.0378 40.9806L63.0498 40.945L63.0668 40.9114C63.2369 40.5759 63.5898 40.4141 63.8385 40.3472Z" fill="#FFCB05"/>
<path d="M60.2267 46.8824C60.0882 46.8824 59.8113 46.8824 59.8113 46.7458C59.5342 46.4726 59.5342 46.063 59.8113 45.7901L60.2267 45.2439C60.5038 44.9708 60.9192 44.9708 61.1961 45.2439C61.4731 45.5169 61.4731 45.9265 61.1961 46.1996L60.7807 46.7458C60.6421 46.8824 60.5038 46.8824 60.2267 46.8824Z" fill="#FFCB05"/>
<path fill-rule="evenodd" clip-rule="evenodd" d="M60.6225 45.6005L60.2138 46.1379L60.1869 46.1644C60.1459 46.2048 60.1365 46.2421 60.1365 46.2679C60.1365 46.2898 60.1431 46.3196 60.1697 46.3526C60.1856 46.3529 60.2032 46.3531 60.2226 46.3531C60.295 46.3531 60.3439 46.3529 60.3852 46.3514C60.3931 46.351 60.4 46.3505 60.4062 46.3503L60.7853 45.852L60.8124 45.8254C60.8532 45.7849 60.8627 45.7476 60.8627 45.7218C60.8627 45.696 60.8532 45.6587 60.8124 45.6182C60.7714 45.578 60.7336 45.5687 60.7074 45.5687C60.6855 45.5687 60.6556 45.575 60.6225 45.6005ZM60.0684 46.3463C60.0632 46.3448 60.0639 46.3452 60.0684 46.3463V46.3463ZM59.8428 44.8697C60.3295 44.3898 61.085 44.3898 61.5717 44.8697C62.0481 45.3394 62.0582 46.0632 61.6017 46.5437L61.1833 47.0936L61.1563 47.1203C60.8564 47.4157 60.5046 47.4136 60.2694 47.4121C60.2533 47.4119 60.2376 47.4119 60.2226 47.4119C60.2196 47.4119 60.2164 47.4119 60.2129 47.4119C60.1481 47.4119 59.9979 47.4121 59.8577 47.3844C59.7861 47.3704 59.6635 47.3397 59.5469 47.2601C59.4672 47.2056 59.3864 47.1239 59.3329 47.0163C58.9519 46.5487 58.9736 45.8925 59.3976 45.4463L59.816 44.8963L59.8428 44.8697Z" fill="#FFCB05"/>
<path d="M19.2298 46.8816C19.0914 46.8816 18.8144 46.745 18.6759 46.6084L18.2605 46.0623C17.9835 45.7893 17.9835 45.3798 18.2605 45.1066C18.5374 44.8336 18.9529 44.8336 19.2298 45.1066L19.6453 45.6527C19.9223 45.9259 19.9223 46.3354 19.6453 46.6084C19.6453 46.8816 19.3683 46.8816 19.2298 46.8816Z" fill="#FFCB05"/>
<path fill-rule="evenodd" clip-rule="evenodd" d="M18.7411 45.4313C18.7149 45.4313 18.6771 45.4406 18.6361 45.4811C18.5951 45.5215 18.5857 45.5588 18.5857 45.5847C18.5857 45.6105 18.5951 45.6478 18.6361 45.6882L18.6631 45.7147L19.0706 46.2504C19.0781 46.2564 19.0878 46.2634 19.0999 46.2714C19.1233 46.2873 19.1501 46.303 19.1776 46.3171L19.2616 46.2343C19.3026 46.1939 19.312 46.1566 19.312 46.1308C19.312 46.105 19.3026 46.0677 19.2616 46.0272L19.2346 46.0006L18.8258 45.4633C18.7928 45.4379 18.7629 45.4313 18.7411 45.4313ZM17.8767 44.7323C18.3634 44.2526 19.1188 44.2526 19.6055 44.7323L19.6325 44.759L20.0509 45.3089C20.4629 45.7426 20.4949 46.3745 20.1469 46.8389C20.1234 46.9215 20.0858 47.0018 20.0311 47.0765C19.9287 47.2163 19.7963 47.2951 19.6849 47.3391C19.4982 47.4128 19.3015 47.4115 19.2365 47.4111C19.2324 47.4111 19.2288 47.4111 19.2258 47.4111C19.0262 47.4111 18.8289 47.3292 18.7087 47.2699C18.5715 47.2023 18.4145 47.1036 18.2922 46.9829L18.2652 46.9563L17.8468 46.4063C17.3903 45.9258 17.4003 45.2022 17.8767 44.7323Z" fill="#FFCB05"/>
<path d="M16.1847 43.3333C15.9077 43.3333 15.7692 43.1967 15.6307 43.0601C15.3538 42.6505 15.0768 42.3773 14.7999 41.9678C14.6614 41.6948 14.6614 41.2851 15.0768 41.0121C15.3538 40.8755 15.7692 40.8755 16.0462 41.2851C16.3232 41.6948 16.4616 41.9678 16.7386 42.3773C17.0156 42.6505 16.8771 43.0601 16.6001 43.3333C16.4616 43.3333 16.3232 43.3333 16.1847 43.3333ZM13.5535 38.6909C13.2765 38.6909 12.9996 38.5546 12.8611 38.2814C12.7226 37.8718 12.4456 37.4623 12.3071 37.0525C12.1687 36.643 12.3071 36.37 12.7226 36.2334C13.138 36.0968 13.415 36.2334 13.5535 36.643C13.692 37.0525 13.8304 37.4623 14.1074 37.8718C14.2459 38.2814 14.1074 38.5546 13.692 38.8275C13.692 38.6909 13.692 38.6909 13.5535 38.6909ZM11.8917 33.7757C11.6147 33.7757 11.3377 33.5027 11.1993 33.2295C11.0608 32.82 11.0608 32.4104 10.9223 31.8643C10.9223 31.4547 11.0608 31.1816 11.4762 31.0452C11.8917 31.0452 12.1687 31.1816 12.3071 31.5913C12.4456 32.0009 12.4456 32.4104 12.5841 32.82C12.7226 33.2295 12.4456 33.5027 12.0302 33.6393L11.8917 33.7757ZM11.1993 28.4509C10.7838 28.4509 10.5068 28.1779 10.5068 27.7683C10.5068 27.4952 10.5068 27.2222 10.5068 27.0856C10.5068 26.8124 10.5068 26.6761 10.5068 26.4029C10.5068 25.9933 10.7838 25.7201 11.1993 25.7201C11.6147 25.7201 11.8917 25.9933 11.8917 26.4029V26.949C11.8917 27.2222 11.8917 27.3586 11.8917 27.6317C11.8917 28.1779 11.6147 28.4509 11.1993 28.4509ZM11.6147 23.126C11.4762 23.126 11.4762 23.126 11.6147 23.126C11.0608 22.9897 10.9223 22.7165 10.9223 22.3069C11.0608 21.8974 11.0608 21.3512 11.1993 20.9416C11.3377 20.5319 11.6147 20.3954 12.0302 20.3954C12.4456 20.5319 12.5841 20.805 12.5841 21.2146C12.4456 21.6242 12.4456 22.0337 12.3071 22.4435C12.1687 22.9897 11.8917 23.126 11.6147 23.126ZM12.9996 18.0743C12.8611 18.0743 12.8611 18.0743 12.7226 18.0743C12.3071 17.9378 12.1687 17.5282 12.3071 17.2551C12.4456 16.8455 12.5841 16.4359 12.8611 16.0263C12.9996 15.6167 13.415 15.3436 13.8304 15.6167C14.2459 15.7532 14.3844 16.1628 14.2459 16.5724C14.1074 16.982 13.9689 17.3917 13.692 17.8012C13.5535 17.9378 13.2765 18.0743 12.9996 18.0743ZM15.3538 13.2956C15.2153 13.2956 15.0768 13.2956 14.9383 13.1591C14.6614 13.0225 14.5229 12.4764 14.6614 12.2033C14.9383 11.7937 15.2153 11.3841 15.3538 11.1111C15.6307 10.838 16.0462 10.7015 16.3232 10.9745C16.6001 11.2476 16.7386 11.6572 16.4616 11.9303C16.1847 12.3399 15.9077 12.613 15.7692 13.0225C15.9077 13.2956 15.6307 13.2956 15.3538 13.2956Z" fill="#FFCB05"/>
<path fill-rule="evenodd" clip-rule="evenodd" d="M15.7817 11.4387C15.6245 11.7255 15.3735 12.098 15.1411 12.4417C15.1406 12.4466 15.1402 12.4528 15.14 12.4604C15.1392 12.4966 15.1445 12.5436 15.158 12.5925C15.1717 12.642 15.1897 12.6786 15.2034 12.6992C15.2035 12.6992 15.2034 12.6992 15.2034 12.6992L15.2524 12.7234L15.29 12.7605C15.3803 12.5298 15.5006 12.3398 15.6196 12.1722C15.6884 12.0753 15.744 12.0017 15.7969 11.9318C15.8653 11.8413 15.9291 11.7569 16.0108 11.636L16.0403 11.5924L16.0707 11.5624C16.0704 11.5604 16.0701 11.5582 16.0695 11.5556C16.0606 11.5116 16.0238 11.434 15.9465 11.3554C15.9445 11.3557 15.9423 11.356 15.9397 11.3565C15.9035 11.3637 15.845 11.3888 15.7817 11.4387ZM15.2849 13.2587C15.2872 13.2643 15.2875 13.2638 15.2849 13.2587V13.2587ZM15.7291 10.3183C16.0481 10.2554 16.4131 10.3178 16.6988 10.5996C16.8936 10.7916 17.0626 11.052 17.1226 11.348C17.1832 11.6467 17.1291 11.9864 16.8785 12.2612C16.7988 12.3765 16.7038 12.5037 16.624 12.6104C16.574 12.6775 16.5299 12.7364 16.4994 12.7794C16.4293 12.8782 16.3746 12.9647 16.3323 13.0505C16.3439 13.1327 16.3423 13.2245 16.315 13.3215C16.243 13.5773 16.0441 13.7006 15.9127 13.7524C15.79 13.8008 15.6661 13.8136 15.5879 13.8189C15.5064 13.8244 15.4212 13.8244 15.3572 13.8244H15.3497C15.3455 13.8244 15.3412 13.8244 15.3366 13.8244C15.1938 13.8247 14.8947 13.8252 14.6143 13.5875C14.3278 13.4082 14.1843 13.0965 14.122 12.8711C14.052 12.6181 14.0254 12.2649 14.177 11.966L14.192 11.9365L14.2105 11.9091C14.4968 11.4858 14.7497 11.1098 14.8695 10.8737L14.9084 10.7969L14.97 10.7361C15.1649 10.544 15.4289 10.3775 15.7291 10.3183ZM13.478 16.0384C13.4543 16.0501 13.3991 16.0965 13.3664 16.1931L13.3437 16.2604L13.3038 16.3194C13.072 16.6622 12.9527 17.0073 12.8125 17.4219L12.8004 17.4576L12.7882 17.4817C12.7886 17.4853 12.7898 17.4915 12.7938 17.5003C12.7984 17.5105 12.8063 17.5225 12.8195 17.5342C12.823 17.5374 12.8272 17.5408 12.8322 17.5443H12.9947C13.0468 17.5443 13.114 17.5306 13.1821 17.5018C13.2246 17.4838 13.2571 17.4646 13.279 17.4494C13.4864 17.1253 13.6001 16.7959 13.7325 16.4044C13.7689 16.2966 13.7574 16.2229 13.7433 16.1882C13.7366 16.1716 13.7283 16.1604 13.7188 16.1517C13.7094 16.143 13.6914 16.1298 13.6566 16.1183L13.5884 16.0959L13.5286 16.0566C13.5111 16.0451 13.499 16.04 13.4926 16.0378L13.4859 16.0359C13.4862 16.0358 13.486 16.0358 13.4859 16.0359C13.4857 16.0359 13.4828 16.0361 13.478 16.0384ZM14.0634 15.1379C13.713 14.9339 13.3262 14.9294 12.9977 15.0914C12.6999 15.2382 12.488 15.5009 12.374 15.7867C12.0835 16.2331 11.9329 16.6753 11.8036 17.0578C11.5407 17.6367 11.8658 18.3515 12.5487 18.576L12.6314 18.6031H12.9939C13.4226 18.6031 13.8352 18.4041 14.0676 18.175L14.1052 18.1379L14.1347 18.0943C14.4517 17.6255 14.6095 17.1587 14.7448 16.7584L14.7513 16.7393C14.8533 16.4375 14.8648 16.1016 14.7404 15.795C14.6199 15.498 14.3845 15.2626 14.0634 15.1379ZM11.7912 20.9633C11.7816 20.9693 11.7438 20.9925 11.7046 21.1083C11.6536 21.2592 11.6247 21.4476 11.5883 21.6986L11.5852 21.72C11.5569 21.9154 11.5225 22.1537 11.4576 22.3781C11.4643 22.4717 11.4834 22.4967 11.4863 22.5005C11.4887 22.5039 11.5197 22.5448 11.6577 22.5886C11.6585 22.588 11.6575 22.5888 11.6577 22.5886C11.6578 22.5886 11.6593 22.5871 11.6594 22.5869C11.6685 22.5793 11.7296 22.5219 11.7822 22.3144L11.7872 22.2947L11.7937 22.2754C11.8475 22.1162 11.8763 21.9518 11.9119 21.7414L11.9143 21.7274C11.9432 21.5561 11.9777 21.3521 12.0407 21.1407C12.0339 21.0417 12.0139 20.999 12.0035 20.9826C11.9992 20.9757 11.9854 20.954 11.9334 20.928C11.8459 20.9357 11.8068 20.9537 11.7912 20.9633ZM11.5068 23.535L11.4804 23.6392C11.1378 23.5547 10.8326 23.406 10.6272 23.136C10.4228 22.8673 10.3813 22.5619 10.3813 22.3063V22.2204L10.4088 22.1388C10.4598 21.9881 10.4888 21.7996 10.5252 21.5486L10.5283 21.5273C10.5606 21.3036 10.601 21.0242 10.6858 20.7735C10.7849 20.4806 10.9546 20.2303 11.2222 20.0653C11.4789 19.9071 11.7653 19.8654 12.0261 19.8654H12.1133L12.1959 19.8926C12.4931 19.9902 12.7469 20.1575 12.9142 20.4214C13.0747 20.6745 13.117 20.9568 13.117 21.2141V21.2998L13.0895 21.3814C13.0356 21.5406 13.0068 21.7049 12.9712 21.9154L12.9689 21.9294C12.9365 22.1208 12.8973 22.3531 12.8189 22.591C12.7324 22.9209 12.5869 23.1977 12.3583 23.391C12.1167 23.5951 11.8432 23.6549 11.6107 23.6549H11.5082L11.5068 23.535ZM11.0729 26.2818C11.066 26.2886 11.0398 26.3178 11.0398 26.4023V27.7678C11.0398 27.8522 11.066 27.8815 11.0729 27.8882C11.0798 27.895 11.1095 27.9209 11.1952 27.9209C11.2748 27.9209 11.2909 27.8999 11.2929 27.8971C11.293 27.8969 11.2929 27.8971 11.2929 27.8971C11.3021 27.8868 11.3507 27.8218 11.3507 27.6312V26.4023C11.3507 26.3178 11.3244 26.2886 11.3175 26.2818C11.3106 26.2748 11.2809 26.249 11.1952 26.249C11.1095 26.249 11.0798 26.2748 11.0729 26.2818ZM10.3135 25.533C10.5489 25.3009 10.8655 25.1902 11.1952 25.1902C11.525 25.1902 11.8415 25.3009 12.0769 25.533C12.3123 25.7651 12.4246 26.0772 12.4246 26.4023V27.6312C12.4246 27.9867 12.3345 28.3315 12.1013 28.5941C11.86 28.8662 11.5278 28.9797 11.1952 28.9797C10.8655 28.9797 10.5489 28.8691 10.3135 28.637C10.0781 28.4047 9.96582 28.0928 9.96582 27.7678V26.4023C9.96582 26.0772 10.0781 25.7651 10.3135 25.533ZM11.3851 30.515H11.4722C11.733 30.515 12.0194 30.5569 12.2761 30.7151C12.5438 30.8798 12.7135 31.1302 12.8125 31.4232C12.8952 31.6678 12.9357 31.9075 12.9689 32.1038L12.9712 32.118C13.0068 32.3285 13.0356 32.4929 13.0895 32.6521C13.2113 33.0125 13.1557 33.366 12.9404 33.6491C12.7771 33.8638 12.5484 34.0038 12.3231 34.0944L12.2801 34.137L12.2748 34.1421L12.2708 34.1461L12.2691 34.1478L12.2676 34.1493L12.1101 34.3045H11.8876C11.5727 34.3045 11.3142 34.1537 11.14 34.0066C10.9597 33.8541 10.8132 33.6597 10.7149 33.4657L10.6979 33.4322L10.6858 33.3965C10.6006 33.1442 10.5605 32.899 10.526 32.6782C10.5232 32.6602 10.5204 32.6424 10.5177 32.6246C10.4854 32.4164 10.4545 32.2176 10.3973 31.992L10.3813 31.9289V31.8637C10.3813 31.6066 10.4236 31.3241 10.5841 31.0711C10.7514 30.8072 11.0052 30.6399 11.3024 30.5423L11.3851 30.515ZM11.9221 33.536L11.8876 33.3268V33.5021L11.9221 33.536ZM11.8713 33.2275L11.8563 33.1364C11.9274 33.1131 11.9818 33.0873 12.0207 33.0629C12.0543 33.0422 12.0712 33.0257 12.0785 33.0172C12.0776 33.011 12.0754 33.0011 12.0706 32.9869C11.988 32.7423 11.9475 32.5026 11.9143 32.3061L11.9119 32.2921C11.8763 32.0816 11.8475 31.9173 11.7937 31.758C11.7545 31.6422 11.7168 31.6189 11.7071 31.613C11.6915 31.6034 11.6524 31.5854 11.5649 31.5776C11.5129 31.6037 11.4993 31.6253 11.4949 31.632C11.484 31.6494 11.4623 31.6958 11.4566 31.8061C11.5156 32.053 11.5497 32.2735 11.5787 32.4605C11.5817 32.4797 11.5846 32.4986 11.5875 32.517C11.6194 32.7216 11.6466 32.8768 11.692 33.0229C11.7315 33.0913 11.7849 33.157 11.8389 33.2025C11.8514 33.2131 11.8622 33.2211 11.8713 33.2275ZM12.9952 36.7112C12.9766 36.7123 12.9427 36.7171 12.8883 36.7351C12.834 36.7529 12.8038 36.769 12.7883 36.7792C12.7894 36.7976 12.7944 36.8311 12.8125 36.8846C12.8675 37.0473 12.9528 37.2178 13.0603 37.4297L13.0678 37.4443C13.16 37.626 13.2692 37.8414 13.3496 38.065C13.388 38.1224 13.4569 38.161 13.5494 38.161C13.5513 38.161 13.5536 38.161 13.5561 38.161C13.5699 38.161 13.5924 38.161 13.6181 38.1618C13.619 38.1478 13.6176 38.1264 13.6102 38.0945C13.3238 37.6495 13.175 37.2093 13.0465 36.829L13.04 36.8099C13.0219 36.7563 13.0056 36.7265 12.9952 36.7112ZM13.0134 36.7118C13.0134 36.7118 13.0124 36.7118 13.0106 36.7114L13.0134 36.7118ZM12.789 36.7612C12.7891 36.7612 12.789 36.7622 12.7885 36.7642L12.789 36.7612ZM13.478 35.7593C13.7888 35.9124 13.9634 36.1928 14.0589 36.4749C14.199 36.8895 14.3183 37.2347 14.5502 37.5775L14.5901 37.6366L14.6128 37.7038C14.712 37.997 14.7318 38.3096 14.5941 38.6152C14.465 38.9015 14.2299 39.1069 13.9858 39.2674L13.151 39.8161V39.1607C12.837 39.0656 12.5476 38.8545 12.3767 38.5176L12.3597 38.4839L12.3476 38.4483C12.2926 38.2855 12.2073 38.1152 12.0998 37.9032L12.0923 37.8884C11.9935 37.6938 11.8751 37.4602 11.7937 37.2194C11.6983 36.9372 11.6674 36.6096 11.8228 36.3031C11.9782 35.9967 12.2625 35.8246 12.5487 35.7305C12.835 35.6365 13.1672 35.606 13.478 35.7593ZM15.3406 41.4734C15.3081 41.4984 15.2891 41.5204 15.2779 41.5365C15.2637 41.557 15.2567 41.5757 15.2531 41.5932C15.2465 41.6256 15.2503 41.6671 15.266 41.7078C15.3821 41.8762 15.4997 42.0214 15.6306 42.1826L15.6352 42.1883C15.762 42.3448 15.9016 42.5167 16.0425 42.7207C16.0601 42.7376 16.0742 42.7507 16.088 42.7628C16.1084 42.7806 16.1207 42.7891 16.128 42.7933C16.1342 42.7969 16.1378 42.7984 16.1415 42.7992C16.1454 42.8003 16.157 42.8033 16.1806 42.8033H16.3267C16.3359 42.7829 16.3436 42.7651 16.3465 42.7509C16.347 42.7484 16.3474 42.7461 16.3477 42.7442L16.3173 42.7141L16.2878 42.6705C16.1422 42.4551 16.0329 42.2755 15.9295 42.1057L15.9279 42.1032C15.824 41.9323 15.726 41.7713 15.5954 41.5782C15.561 41.5274 15.5304 41.5009 15.5096 41.4867C15.4888 41.4727 15.47 41.466 15.4522 41.4624C15.4204 41.456 15.3803 41.4592 15.3406 41.4734ZM15.6628 40.4241C15.983 40.4872 16.2758 40.6757 16.4889 40.991C16.6345 41.2061 16.7439 41.3859 16.8472 41.5558L16.8488 41.5583C16.9462 41.7184 17.0384 41.8696 17.1571 42.047C17.4063 42.3215 17.4601 42.6605 17.3996 42.9585C17.3396 43.2545 17.1706 43.5148 16.9758 43.7069L16.8185 43.8621H16.1823C15.6819 43.8621 15.4049 43.59 15.2579 43.4447L15.2094 43.3968L15.1799 43.3532C15.0561 43.17 14.9316 43.0161 14.7919 42.8441L14.7874 42.8384C14.6512 42.6707 14.5005 42.485 14.349 42.2609L14.3305 42.2334L14.3155 42.204C14.2011 41.9784 14.1386 41.6883 14.2 41.3855C14.2641 41.0698 14.4552 40.7811 14.7749 40.571L14.8027 40.5526L14.8326 40.538C15.0615 40.4251 15.3557 40.3635 15.6628 40.4241Z" fill="#FFCB05"/>
<path d="M18.8195 9.19819C18.681 9.19819 18.404 9.19819 18.404 9.06165C18.127 8.7886 18.127 8.37898 18.404 8.10591L18.8195 7.55977C19.0964 7.28672 19.5119 7.28672 19.7888 7.55977C20.0658 7.83284 20.0658 8.24245 19.7888 8.51553L19.3734 9.06165C19.0964 9.06165 18.958 9.19819 18.8195 9.19819Z" fill="#FFCB05"/>
<path fill-rule="evenodd" clip-rule="evenodd" d="M19.2154 7.91647L18.8067 8.45378L18.7797 8.48038C18.7387 8.52081 18.7292 8.55806 18.7292 8.58389C18.7292 8.60566 18.7359 8.63552 18.7625 8.66856C18.7639 8.66858 18.7653 8.6686 18.7667 8.66862C18.7694 8.66752 18.7722 8.66635 18.7754 8.66502C18.7881 8.65977 18.8065 8.6521 18.841 8.63849C18.9024 8.61428 18.9809 8.5859 19.0764 8.56458L19.3781 8.16788L19.4051 8.14128C19.4461 8.10086 19.4556 8.06361 19.4556 8.03777C19.4556 8.01192 19.4461 7.97467 19.4051 7.93424C19.3641 7.89381 19.3263 7.8845 19.3001 7.8845C19.2783 7.8845 19.2484 7.89096 19.2154 7.91647ZM18.6611 8.66212C18.656 8.66078 18.6566 8.66123 18.6611 8.66212V8.66212ZM18.4357 7.18555C18.9224 6.70573 19.6778 6.70573 20.1645 7.18555C20.641 7.6553 20.651 8.37907 20.1945 8.85948L19.6378 9.59117H19.3694C19.3283 9.59117 19.2973 9.59897 19.2399 9.62158C19.2366 9.6229 19.2307 9.62531 19.2229 9.62849C19.1938 9.64034 19.139 9.66269 19.1002 9.6762C19.0387 9.69761 18.938 9.72772 18.8154 9.72772C18.8124 9.72772 18.8091 9.72772 18.8056 9.72772C18.7408 9.72782 18.5908 9.72804 18.4505 9.70038C18.3789 9.68626 18.2563 9.65555 18.1398 9.57599C18.06 9.52152 17.9792 9.43978 17.9256 9.33214C17.5448 8.86459 17.5663 8.20841 17.9903 7.76218L18.4087 7.21214L18.4357 7.18555Z" fill="#FFCB05"/>
<path d="M67.9876 2.50904C67.849 2.50904 67.5719 2.37252 67.4336 2.23597L66.8797 1.68984C66.6026 1.41677 66.6026 1.00717 66.8797 0.734098C67.1565 0.46103 67.5719 0.46103 67.849 0.734098L68.403 1.28024C68.6798 1.5533 68.6798 1.96291 68.403 2.23597C68.2644 2.37252 68.1259 2.50904 67.9876 2.50904Z" fill="#FFCB05"/>
<path fill-rule="evenodd" clip-rule="evenodd" d="M67.3602 1.05882C67.334 1.05882 67.2962 1.06815 67.2552 1.10856C67.2144 1.14898 67.2049 1.18624 67.2049 1.21208C67.2049 1.23793 67.2144 1.27519 67.2552 1.3156L67.8091 1.86174C67.8091 1.86174 67.8091 1.86174 67.8091 1.86174C67.8143 1.86668 67.8297 1.88022 67.8574 1.89895C67.8806 1.91454 67.9071 1.93012 67.9343 1.94409C67.9595 1.9205 67.9863 1.89422 68.0192 1.86174C68.0602 1.82132 68.0697 1.78406 68.0697 1.75822C68.0697 1.73238 68.0602 1.69512 68.0192 1.6547L67.4652 1.10856C67.4242 1.06815 67.3864 1.05882 67.3602 1.05882ZM68.2247 0.359862C67.738 -0.119954 66.9826 -0.119954 66.4959 0.359862C66.0092 0.839679 66.0092 1.58449 66.4959 2.0643L67.0498 2.61044C67.1723 2.73109 67.3291 2.82973 67.4663 2.89734C67.5866 2.95662 67.7838 3.03857 67.9835 3.03857C68.228 3.03857 68.4133 2.92136 68.5134 2.84735C68.6139 2.77304 68.7067 2.68136 68.7692 2.61978C68.7724 2.61659 68.7754 2.61347 68.7787 2.61044C69.2652 2.13063 69.2652 1.38582 68.7787 0.905999L68.2247 0.359862Z" fill="#FFCB05"/>
<path d="M70.4692 50.0244C70.3306 50.0244 70.1921 50.0244 70.0536 49.8878C69.7767 49.7514 69.7767 49.3416 70.0536 48.9321C70.3306 48.6591 70.6075 48.2493 70.8846 47.9764C71.1614 47.7034 71.5771 47.5668 71.8539 47.8398C72.131 48.113 72.2693 48.5225 71.9925 48.7955C71.7154 49.2053 71.4385 49.4782 71.1614 49.8878C70.8846 50.0244 70.746 50.0244 70.4692 50.0244ZM73.5157 45.7918C73.3772 45.7918 73.2389 45.7918 73.2389 45.6552C72.9618 45.5189 72.8233 45.1091 72.9618 44.6995C73.2389 44.29 73.3772 44.0168 73.5157 43.6073C73.6543 43.3343 74.0697 43.1977 74.4851 43.3343C74.7622 43.4707 74.9007 43.8804 74.7621 44.29C74.6236 44.6995 74.3468 45.1091 74.0697 45.5189C73.9311 45.6552 73.6543 45.7918 73.5157 45.7918ZM75.7315 41.0131C75.593 41.0131 75.593 41.0131 75.4546 41.0131C75.039 40.8765 74.9007 40.467 75.039 40.1938C75.1776 39.7843 75.3161 39.3747 75.4546 38.9652C75.593 38.5556 76.0086 38.419 76.2854 38.5556C76.7008 38.692 76.8394 39.1017 76.7008 39.3747C76.5625 39.7843 76.424 40.1938 76.2854 40.6036C76.2854 40.8765 76.0086 41.0131 75.7315 41.0131ZM77.2548 36.0979H77.1162C76.7008 35.9613 76.5625 35.6883 76.5625 35.2788C76.7008 34.869 76.7008 34.4594 76.8394 34.0499C76.9779 33.6403 77.2548 33.5037 77.6702 33.5037C78.0858 33.6403 78.2241 33.9133 78.2241 34.3229C78.0858 34.7326 78.0858 35.1422 77.9473 35.5517C77.9473 35.9613 77.6702 36.0979 77.2548 36.0979ZM78.0858 30.9096C77.6702 30.9096 77.3933 30.5001 77.3933 30.2269C77.3933 29.8173 77.3933 29.4078 77.5318 28.998C77.5318 28.5885 77.9472 28.3155 78.2241 28.3155C78.6397 28.3155 78.9166 28.5885 78.9166 28.998C78.9166 29.4078 78.9166 29.8173 78.7781 30.3635C78.7781 30.773 78.5012 30.9096 78.0858 30.9096ZM78.2241 25.7212C77.8087 25.7212 77.5318 25.4482 77.5318 25.0387C77.5318 24.6289 77.5319 24.2193 77.3933 23.8098C77.3933 23.4002 77.6702 23.1271 78.0858 23.1271C78.5012 23.1271 78.7781 23.4002 78.7781 23.8098C78.7781 24.2193 78.9166 24.6289 78.9166 25.175C78.9166 25.4482 78.6397 25.7212 78.2241 25.7212ZM77.5318 20.6695C77.2548 20.6695 76.9779 20.3964 76.8394 20.1234C76.7008 19.7138 76.7008 19.3042 76.5625 18.8945C76.424 18.485 76.7008 18.2119 77.1162 18.0754C77.5318 17.9388 77.8087 18.2119 77.9473 18.6215C78.0858 19.0311 78.0858 19.4407 78.2241 19.8503C78.3627 20.1234 78.0858 20.533 77.5318 20.6695C77.6702 20.6695 77.6702 20.6695 77.5318 20.6695ZM76.1469 15.6177C75.87 15.6177 75.593 15.4812 75.4546 15.2081C75.3161 14.7985 75.1776 14.3889 75.039 13.9793C74.9007 13.5697 75.039 13.2967 75.4546 13.1601C75.87 13.0236 76.1469 13.1601 76.2854 13.5697C76.424 13.9793 76.5625 14.3889 76.7008 14.7985C76.8394 15.2081 76.7008 15.4812 76.2854 15.6177C76.2854 15.6177 76.2854 15.6177 76.1469 15.6177ZM74.0697 10.839C73.7928 10.839 73.5157 10.7025 73.5157 10.4294C73.3772 10.0198 73.1003 9.74676 72.9618 9.33714C72.8233 9.06407 72.8233 8.65448 73.2389 8.38141C73.5157 8.24488 73.9311 8.24488 74.2082 8.65448C74.4851 9.06407 74.6236 9.47369 74.9007 9.88328C75.039 10.1564 74.9007 10.5659 74.6236 10.839C74.3468 10.839 74.2082 10.839 74.0697 10.839ZM71.3 6.46993C71.0231 6.46993 70.8846 6.33339 70.746 6.19686C70.4692 5.78725 70.1921 5.5142 69.9152 5.24113C69.7767 4.83151 69.7767 4.42191 70.0536 4.14884C70.3306 3.87577 70.746 4.01232 71.0231 4.28537C71.3 4.69499 71.5771 4.96806 71.8539 5.37765C72.131 5.65072 71.9925 6.06032 71.7154 6.33339C71.5771 6.33339 71.4385 6.46993 71.3 6.46993Z" fill="#FFCB05"/>
<path fill-rule="evenodd" clip-rule="evenodd" d="M70.4221 4.5302C70.3719 4.58545 70.3222 4.7088 70.3867 4.96188C70.6294 5.20264 70.8936 5.47645 71.1573 5.8578C71.175 5.8748 71.1891 5.88804 71.2029 5.90004C71.2233 5.91777 71.2355 5.92622 71.2428 5.93052C71.2458 5.93221 71.248 5.93342 71.2501 5.93431L71.263 5.92802C71.2647 5.92717 71.2667 5.92626 71.2686 5.92529C71.2985 5.9105 71.3524 5.88389 71.4114 5.86154C71.4402 5.81737 71.4559 5.7783 71.4613 5.75158C71.4619 5.74903 71.4623 5.74679 71.4625 5.74482L71.4321 5.71481L71.4026 5.67121C71.2789 5.4881 71.1543 5.33417 71.0147 5.16213L71.01 5.15647C70.8843 5.00161 70.7464 4.83144 70.6068 4.63007C70.5357 4.56914 70.4685 4.53922 70.4286 4.53132C70.4262 4.53086 70.4238 4.53048 70.4221 4.5302ZM70.639 3.49306C70.9393 3.55225 71.2035 3.71885 71.3981 3.91092L71.4359 3.94798L71.4653 3.9916C71.5891 4.17471 71.7136 4.32862 71.8532 4.50068L71.8578 4.50634C71.9864 4.66463 72.1278 4.83893 72.2706 5.04623C72.521 5.32097 72.5749 5.66056 72.5144 5.95923C72.4544 6.25522 72.2854 6.51556 72.0906 6.70763L71.9334 6.86268H71.7688L71.7433 6.87507C71.7416 6.87592 71.7398 6.87685 71.7377 6.8778C71.7068 6.89318 71.6496 6.92132 71.588 6.94419C71.5199 6.96931 71.4181 6.99923 71.2954 6.99923C70.7952 6.99923 70.5198 6.72718 70.3727 6.5819C70.3691 6.57822 70.3654 6.57462 70.3618 6.5711L70.3242 6.53402L70.2947 6.4904C70.0501 6.12862 69.8074 5.88785 69.531 5.61535L69.4414 5.52698L69.4012 5.40841C69.2401 4.932 69.1744 4.26236 69.6695 3.77437C69.9552 3.49264 70.3201 3.43017 70.639 3.49306ZM73.502 8.84315C73.4695 8.86824 73.4506 8.89025 73.4395 8.90638C73.4253 8.92682 73.4182 8.94541 73.4145 8.96299C73.4068 9.00163 73.4135 9.05284 73.4375 9.10027L73.4547 9.13392L73.4667 9.16963C73.5146 9.31126 73.5874 9.43461 73.6946 9.6108C73.6974 9.61541 73.7004 9.62009 73.7032 9.62479C73.8027 9.78819 73.9326 10.0014 74.0207 10.2619L74.0364 10.3081C74.0454 10.309 74.055 10.3095 74.0651 10.3095H74.3553C74.3738 10.2753 74.3893 10.2411 74.3991 10.2089C74.4127 10.1642 74.414 10.1364 74.4133 10.1227C74.2741 9.90892 74.1678 9.69923 74.0746 9.51557L74.0697 9.50553C73.964 9.29736 73.874 9.12134 73.7569 8.94804C73.7226 8.89719 73.6918 8.8707 73.671 8.85662C73.6504 8.84264 73.6315 8.83567 73.6137 8.83216C73.5819 8.82589 73.5417 8.82909 73.502 8.84315ZM73.8244 7.7939C74.1444 7.85705 74.4374 8.04547 74.6504 8.36071C74.8077 8.59308 74.9241 8.82282 75.025 9.02198L75.0302 9.032C75.1356 9.24017 75.2256 9.41618 75.3429 9.58951L75.3614 9.61694L75.3764 9.64641C75.5257 9.94109 75.5046 10.2601 75.4278 10.5132C75.3489 10.7718 75.1971 11.0178 74.9988 11.2133L74.8416 11.3683H74.066C73.8478 11.3683 73.5982 11.3162 73.3864 11.177C73.1841 11.044 73.0157 10.8267 72.9809 10.5398C72.9334 10.4206 72.8664 10.3078 72.7738 10.1556C72.771 10.1509 72.7683 10.1463 72.7652 10.1415C72.6701 9.9852 72.547 9.78319 72.4596 9.53786C72.3563 9.31778 72.3032 9.04221 72.3614 8.75533C72.4254 8.43961 72.6166 8.15095 72.9364 7.9408L72.9641 7.92252L72.9942 7.90778C73.223 7.79496 73.5172 7.73335 73.8244 7.7939ZM75.7267 13.6384C75.7081 13.6394 75.6741 13.6444 75.6198 13.6622C75.5654 13.6801 75.5354 13.6962 75.5199 13.7064C75.5208 13.7247 75.5259 13.7582 75.544 13.8118L75.9435 14.9937C75.9823 15.0504 76.0506 15.0882 76.1424 15.0882H76.1791C76.193 15.0816 76.2042 15.0758 76.2111 15.0712C76.21 15.0529 76.2051 15.0194 76.187 14.9658L75.7714 13.737C75.7534 13.6835 75.7371 13.6537 75.7267 13.6384ZM75.745 13.6391C75.7448 13.6391 75.7439 13.639 75.742 13.6385L75.745 13.6391ZM75.5205 13.6885C75.5205 13.6885 75.5203 13.6895 75.5199 13.6913L75.5205 13.6885ZM76.2094 12.6865C76.5202 12.8397 76.695 13.12 76.7904 13.4022L77.2058 14.631C77.3011 14.9132 77.3321 15.2408 77.1766 15.5472C77.0213 15.8536 76.7369 16.0258 76.4508 16.1199L76.3681 16.147H76.1441C75.6934 16.147 75.2117 15.922 74.9696 15.4448L74.9526 15.4111L74.5252 14.1466C74.4296 13.8644 74.3989 13.5368 74.5542 13.2304C74.7097 12.924 74.9939 12.7518 75.2802 12.6578C75.5665 12.5637 75.8986 12.5333 76.2094 12.6865ZM77.3123 18.5698C77.3061 18.5707 77.296 18.5727 77.2816 18.5775C77.2105 18.6008 77.1562 18.6266 77.1173 18.6508C77.0836 18.6718 77.0668 18.6883 77.0595 18.6967C77.0604 18.7029 77.0625 18.7128 77.0672 18.727C77.1499 18.9716 77.1905 19.2113 77.2236 19.4078L77.226 19.4218C77.2588 19.6153 77.2857 19.7697 77.3316 19.917C77.3712 19.9855 77.4244 20.0511 77.4786 20.0968C77.4901 20.1065 77.5 20.1141 77.5088 20.1202C77.6098 20.0797 77.6717 20.0295 77.7024 19.9941C77.625 19.7578 77.586 19.5271 77.5539 19.3369L77.5516 19.3228C77.5159 19.1123 77.4871 18.948 77.4332 18.7888C77.4096 18.7187 77.3834 18.6651 77.3589 18.6267C77.3377 18.5936 77.3209 18.5769 77.3123 18.5698ZM77.7247 19.9633C77.7247 19.9633 77.7243 19.9641 77.7234 19.9659L77.7247 19.9633ZM77.6311 21.079L77.6575 21.183C78.0323 21.0906 78.351 20.897 78.557 20.636C78.7486 20.3932 78.8822 20.0231 78.7207 19.657C78.6721 19.5057 78.6444 19.3479 78.6109 19.1487L78.6086 19.1347C78.5753 18.9382 78.5349 18.6985 78.4522 18.454C78.3643 18.1941 78.2123 17.9115 77.9532 17.72C77.6663 17.5077 77.3076 17.4528 76.942 17.573C76.6785 17.6596 76.3917 17.8095 76.1976 18.0648C75.9821 18.3479 75.9265 18.7014 76.0485 19.0619C76.1022 19.2211 76.1312 19.3853 76.1666 19.5959L76.169 19.6099C76.2023 19.8064 76.2427 20.0461 76.3254 20.2907L76.3374 20.3264L76.3546 20.36C76.4529 20.5538 76.5994 20.7483 76.7796 20.9007C76.9538 21.0479 77.2124 21.1989 77.5273 21.1989H77.6298L77.6311 21.079ZM77.9315 23.7481C78.0645 24.203 78.0643 24.6458 78.0643 25.0102V25.0386C78.0643 25.1231 78.0905 25.1523 78.0974 25.1591C78.1042 25.1658 78.1339 25.1917 78.2196 25.1917C78.3068 25.1917 78.3538 25.1639 78.3723 25.1485C78.3732 25.1476 78.3742 25.1468 78.3749 25.1462C78.3727 24.928 78.3448 24.7313 78.3122 24.5217C78.3094 24.5043 78.3066 24.4865 78.3038 24.4685C78.2728 24.2724 78.2365 24.0426 78.2365 23.8097C78.2365 23.7252 78.2103 23.696 78.2035 23.689C78.1966 23.6822 78.167 23.6564 78.0813 23.6564C77.9956 23.6564 77.9659 23.6822 77.9588 23.689C77.9541 23.6939 77.9397 23.7098 77.9315 23.7481ZM78.383 25.1375C78.3837 25.1366 78.383 25.1375 78.383 25.1375V25.1375ZM77.1995 22.9404C77.435 22.7083 77.7513 22.5976 78.0813 22.5976C78.411 22.5976 78.7275 22.7083 78.963 22.9404C79.1984 23.1725 79.3105 23.4846 79.3105 23.8097C79.3105 23.9575 79.3343 24.1091 79.3685 24.3277L79.3736 24.3607C79.4086 24.5854 79.449 24.8586 79.449 25.175C79.449 25.8141 78.8511 26.2505 78.2196 26.2505C77.8899 26.2505 77.5735 26.14 77.3381 25.9079C77.1025 25.6756 76.9903 25.3636 76.9903 25.0386C76.9903 24.617 76.986 24.2927 76.8793 23.977L76.8518 23.8957V23.8097C76.8518 23.4846 76.9641 23.1725 77.1995 22.9404ZM78.1231 28.9014C78.0714 28.9461 78.0643 28.981 78.0643 28.9979V29.0839L78.0366 29.1654C77.9305 29.4793 77.9257 29.8018 77.9257 30.22C77.9264 30.2232 77.9285 30.2317 77.9341 30.245C77.9444 30.2694 77.9614 30.2971 77.9833 30.3219C78.0286 30.3729 78.0639 30.3801 78.0813 30.3801C78.1519 30.3801 78.2026 30.3744 78.2365 30.3674C78.2365 30.3662 78.2365 30.3647 78.2365 30.3634V30.2982L78.2527 30.2349C78.374 29.7565 78.3751 29.4028 78.3751 28.9979C78.3751 28.9134 78.3489 28.8842 78.342 28.8774C78.3353 28.8707 78.307 28.8461 78.2262 28.8448C78.223 28.8455 78.2144 28.8476 78.2011 28.8531C78.1764 28.8633 78.1483 28.8798 78.1231 28.9014ZM77.4161 28.1047C77.6311 27.9192 77.9253 27.7858 78.2196 27.7858C78.5495 27.7858 78.8659 27.8966 79.1013 28.1286C79.3369 28.3607 79.449 28.6729 79.449 28.9979V29.0068C79.449 29.406 79.449 29.8533 79.3088 30.4346C79.2922 30.7431 79.1672 31.0294 78.8953 31.2208C78.6388 31.4015 78.3302 31.439 78.0813 31.439C77.683 31.439 77.3722 31.2412 77.1751 31.0192C76.9869 30.807 76.8518 30.5169 76.8518 30.2268V30.1984C76.8518 29.8253 76.8516 29.3704 76.9942 28.9041C77.023 28.5564 77.209 28.2832 77.4161 28.1047ZM77.4309 34.0722C77.4212 34.0782 77.3834 34.1013 77.3443 34.2171C77.2904 34.3763 77.2616 34.5407 77.226 34.7512L77.2236 34.7654C77.1948 34.9365 77.1602 35.1404 77.0973 35.3519C77.104 35.4508 77.1239 35.4936 77.1345 35.5099C77.139 35.5171 77.1538 35.5406 77.2122 35.5684H77.2502C77.3211 35.5684 77.3716 35.5629 77.4057 35.5559C77.4057 35.5544 77.4057 35.5531 77.4057 35.5516V35.4657L77.4332 35.3841C77.4871 35.2251 77.5159 35.0608 77.5516 34.8503L77.5539 34.8361C77.5827 34.665 77.6173 34.461 77.6805 34.2495C77.6736 34.1504 77.6536 34.1078 77.6431 34.0915C77.6388 34.0845 77.625 34.0627 77.5731 34.0369C77.4856 34.0445 77.4463 34.0625 77.4309 34.0722ZM76.8619 33.1742C77.1186 33.016 77.4049 32.9742 77.6658 32.9742H77.7528L77.8355 33.0014C78.1326 33.099 78.3867 33.2663 78.5538 33.5303C78.7142 33.7834 78.7565 34.0657 78.7565 34.3228V34.4087L78.7291 34.4903C78.6754 34.6495 78.6464 34.8136 78.6109 35.0243L78.6086 35.0383C78.5787 35.2143 78.543 35.4252 78.4767 35.6431C78.4558 35.9438 78.3304 36.2219 78.0645 36.4091C77.8078 36.5897 77.4992 36.6272 77.2502 36.6272H77.0247L76.942 36.6001C76.645 36.5025 76.3911 36.335 76.2238 36.0711C76.0633 35.818 76.021 35.5358 76.021 35.2787V35.1927L76.0485 35.1112C76.1022 34.9519 76.1312 34.7876 76.1666 34.5771L76.169 34.5631C76.2023 34.3666 76.2427 34.1269 76.3254 33.8823C76.4244 33.5894 76.5943 33.3391 76.8619 33.1742ZM75.9972 39.0646C75.9856 39.0771 75.9712 39.0978 75.9594 39.1324L75.5319 40.397L75.5197 40.4209C75.5201 40.4245 75.5212 40.4309 75.5253 40.4396C75.5298 40.4498 75.5377 40.4618 75.5508 40.4735C75.5545 40.4766 75.5588 40.48 75.5637 40.4836H75.7261C75.7364 40.4836 75.7467 40.483 75.756 40.4821L76.1991 39.1715L76.2113 39.1474C76.2109 39.1438 76.2096 39.1377 76.2057 39.1288C76.201 39.1186 76.1933 39.1067 76.1799 39.0949C76.1673 39.0834 76.146 39.069 76.111 39.0576L76.0749 39.0457L76.0504 39.0337C76.0468 39.0341 76.0405 39.0354 76.0315 39.0392C76.0212 39.0436 76.0092 39.0515 75.9972 39.0646ZM76.4849 38.0649C75.8971 37.8021 75.1687 38.1227 74.9406 38.7976L74.5351 39.997C74.2722 40.576 74.5974 41.2909 75.2802 41.5153L75.3629 41.5425H75.7255C75.9435 41.5425 76.1939 41.4904 76.4057 41.351C76.61 41.217 76.7794 40.9969 76.8121 40.7062L77.1959 39.5713C77.4543 39.0021 77.1443 38.3016 76.4849 38.0649ZM73.9962 43.8454C73.8564 44.2439 73.7062 44.5381 73.4511 44.9229C73.433 45.0054 73.439 45.077 73.4543 45.1276C73.4654 45.1641 73.4777 45.1804 73.4824 45.1857L73.563 45.2253C73.5892 45.2117 73.6147 45.1967 73.6371 45.1814C73.6448 45.1763 73.6515 45.1717 73.6573 45.1674C73.927 44.7676 74.142 44.4364 74.2481 44.1224C74.284 44.0165 74.2793 43.9233 74.2606 43.8617C74.2546 43.842 74.2481 43.828 74.2428 43.8187C74.1637 43.8037 74.0952 43.8096 74.0465 43.8242C74.0211 43.8316 74.0054 43.8397 73.9962 43.8454ZM73.0309 43.3704C73.3293 42.7821 74.0776 42.6436 74.6504 42.8319L74.6865 42.8437L74.7207 42.8605C75.3174 43.1546 75.4578 43.8926 75.2671 44.4572C75.1056 44.9349 74.7946 45.3947 74.5325 45.782L74.4825 45.8559L74.4449 45.8929C74.3225 46.0137 74.1654 46.1123 74.0284 46.1799C73.9081 46.2392 73.7107 46.3211 73.5112 46.3211C73.5082 46.3211 73.5043 46.3211 73.4998 46.3211C73.4463 46.3218 73.2919 46.3233 73.151 46.2769C73.0593 46.2468 72.9338 46.1854 72.8342 46.0592C72.8187 46.0397 72.805 46.0198 72.7925 45.9997C72.3677 45.6539 72.2807 45.0266 72.4478 44.5319L72.4705 44.4648L72.5105 44.4057C72.7646 44.0301 72.8804 43.799 73.0017 43.4397L73.014 43.4041L73.0309 43.3704ZM71.4701 48.2224C71.4241 48.2315 71.3418 48.2696 71.2598 48.3507C71.1464 48.4623 71.0272 48.6082 70.8839 48.7848L70.8742 48.7967C70.7546 48.9443 70.6161 49.1149 70.4717 49.2632C70.4172 49.3519 70.3929 49.4229 70.3837 49.4688L70.4097 49.4944C70.4131 49.4944 70.4167 49.4946 70.421 49.4946L70.4646 49.4949C70.6137 49.4949 70.6708 49.4936 70.7226 49.4851C70.7428 49.4817 70.7671 49.4764 70.8006 49.4646C70.9213 49.2969 71.0396 49.1509 71.1485 49.0165L71.1533 49.011C71.2927 48.8388 71.4172 48.6849 71.5412 48.5019L71.5706 48.4583L71.6011 48.4282C71.6007 48.4263 71.6004 48.424 71.5998 48.4214C71.591 48.3774 71.554 48.2999 71.4767 48.2211C71.4748 48.2215 71.4726 48.2217 71.4701 48.2224ZM71.2594 47.1841C71.5783 47.1212 71.9433 47.1837 72.2291 47.4653C72.4239 47.6574 72.593 47.9178 72.6529 48.2137C72.7135 48.5125 72.6594 48.8519 72.4089 49.1268C72.2663 49.3341 72.1247 49.5084 71.9963 49.6668L71.9918 49.6723C71.8522 49.8445 71.7276 49.9982 71.6039 50.1814L71.5246 50.2983L71.397 50.3612C71.2237 50.4467 71.0684 50.5016 70.8992 50.5293C70.7505 50.5539 70.6068 50.5537 70.4829 50.5537H70.4646H70.4515C70.3089 50.5539 70.0106 50.5545 69.7305 50.3178C69.4231 50.1282 69.3044 49.8042 69.3044 49.5122C69.3044 49.2092 69.4231 48.9034 69.6023 48.6383L69.6319 48.5946L69.6695 48.5576C69.7827 48.446 69.9019 48.3001 70.0454 48.1235L70.0548 48.1116C70.1865 47.9494 70.3407 47.7594 70.5003 47.6019C70.6951 47.4098 70.9593 47.2432 71.2594 47.1841Z" fill="#FFCB05"/>
<path d="M67.4221 53.7098C67.2836 53.7098 67.0065 53.7098 67.0065 53.5733C66.7296 53.3003 66.7296 52.8905 67.0065 52.6176L67.5604 52.0714C67.8375 51.7985 68.2529 51.7985 68.53 52.0714C68.8068 52.3444 68.8068 52.7541 68.53 53.0271L67.976 53.5733C67.8375 53.5733 67.5604 53.7098 67.4221 53.7098Z" fill="#FFCB05"/>
<path fill-rule="evenodd" clip-rule="evenodd" d="M68.0411 52.3963C68.0149 52.3963 67.9771 52.4056 67.9361 52.4461L67.3821 52.9922C67.3411 53.0327 67.3316 53.07 67.3316 53.0958C67.3316 53.1174 67.3385 53.1472 67.3649 53.1803C67.3735 53.1805 67.3826 53.1805 67.392 53.1807C67.3948 53.1799 67.3982 53.179 67.4021 53.178C67.4326 53.1699 67.4698 53.1578 67.5252 53.1396C67.5269 53.139 67.5288 53.1384 67.5308 53.1377C67.5787 53.122 67.6429 53.1009 67.7052 53.0841C67.7067 53.0837 67.7086 53.0833 67.7103 53.0827L68.1461 52.653C68.1871 52.6128 68.1966 52.5755 68.1966 52.5496C68.1966 52.5238 68.1871 52.4865 68.1461 52.4461C68.1051 52.4056 68.0673 52.3963 68.0411 52.3963ZM67.2636 53.1739C67.2586 53.1727 67.259 53.1731 67.2636 53.1739V53.1739ZM67.1768 51.6973C67.6633 51.2174 68.4189 51.2174 68.9054 51.6973C69.3921 52.1772 69.3921 52.9219 68.9054 53.4018L68.1942 54.1029H67.9979C67.9951 54.1038 67.9917 54.1046 67.9876 54.1057C67.9571 54.114 67.9202 54.1258 67.8647 54.144L67.8589 54.1459C67.8111 54.1618 67.7468 54.1828 67.6848 54.1995C67.6272 54.215 67.5271 54.2395 67.418 54.2395C67.415 54.2395 67.4115 54.2395 67.4081 54.2395C67.3432 54.2395 67.1933 54.2397 67.0529 54.2122C66.9813 54.198 66.8589 54.1673 66.7423 54.0877C66.6624 54.0333 66.5816 53.9515 66.5281 53.844C66.1385 53.3656 66.1701 52.6898 66.6228 52.2434L67.1768 51.6973Z" fill="#FFCB05"/>
<path d="M12.023 53.5733C11.8845 53.5733 11.746 53.5733 11.6075 53.4367L11.1921 53.0271C10.9151 52.7541 10.9151 52.3444 11.1921 52.0714C11.4691 51.7985 11.8845 51.7985 12.1615 52.0714L12.5769 52.481C12.8539 52.7542 12.8539 53.1637 12.5769 53.4367C12.4385 53.5733 12.3 53.5733 12.023 53.5733Z" fill="#FFCB05"/>
<path fill-rule="evenodd" clip-rule="evenodd" d="M11.6884 52.3963C11.6622 52.3963 11.6244 52.4056 11.5834 52.4461C11.5424 52.4865 11.5329 52.5238 11.5329 52.5496C11.5329 52.5755 11.5424 52.6128 11.5834 52.653L11.9796 53.0437C11.983 53.0439 11.9868 53.0439 11.991 53.0439L12.0346 53.0441C12.1069 53.0441 12.1558 53.0441 12.197 53.0424C12.2097 53.042 12.2201 53.0414 12.2284 53.0407C12.253 53.009 12.2593 52.9802 12.2593 52.9592C12.2593 52.9334 12.2498 52.8961 12.2088 52.8557L11.7934 52.4461C11.7524 52.4056 11.7146 52.3963 11.6884 52.3963ZM10.824 51.6973C11.3107 51.2174 12.0661 51.2174 12.5528 51.6973L12.1731 52.0717L10.824 51.6973ZM12.5528 51.6973L12.9682 52.1068L12.5885 52.4813L12.9682 52.1068C13.4549 52.5867 13.4549 53.3315 12.9682 53.8113C12.6684 54.107 12.3166 54.1046 12.0813 54.1032C12.0652 54.1032 12.0496 54.1029 12.0346 54.1029C12.0304 54.1029 12.026 54.1029 12.0215 54.1029C11.8684 54.1034 11.5361 54.1038 11.2394 53.8113L11.6191 53.4369L11.2394 53.8113L10.824 53.4018L11.2037 53.0274L10.824 53.4018C10.3373 52.9219 10.3373 52.1772 10.824 51.6973" fill="#FFCB05"/>
<path d="M8.98853 50.1609C8.85004 50.1609 8.57309 50.0244 8.43459 49.8878C8.15763 49.4782 7.88066 49.2053 7.60369 48.7955C7.46521 48.5225 7.46521 48.113 7.74218 47.8398C8.01915 47.5668 8.43459 47.7034 8.71156 47.9764C8.98853 48.3859 9.2655 48.6591 9.54247 48.9321C9.81944 49.2053 9.68095 49.6148 9.40398 49.8878C9.2655 50.1609 9.12701 50.1609 8.98853 50.1609ZM6.08036 45.7918C5.80339 45.7918 5.66492 45.6552 5.52642 45.3823C5.24948 44.9727 5.11098 44.563 4.83401 44.1534C4.69554 43.8804 4.83401 43.4707 5.11098 43.1977C5.38795 43.0611 5.80339 43.1977 6.08036 43.4707C6.21886 43.8804 6.49583 44.1534 6.6343 44.563C6.7728 44.8361 6.7728 45.2457 6.35733 45.5189C6.35733 45.7918 6.21886 45.7918 6.08036 45.7918ZM3.86463 41.1497C3.58766 41.1497 3.31069 41.0131 3.17222 40.74C3.03372 40.3304 2.89525 39.9209 2.75675 39.5113C2.61828 39.1018 2.75675 38.8286 3.17222 38.692C3.58766 38.5556 3.86463 38.692 4.0031 39.1018C4.1416 39.5113 4.28007 39.9209 4.41857 40.3304C4.55704 40.74 4.41857 41.0131 4.0031 41.1497H3.86463ZM2.20281 36.2345C1.92585 36.2345 1.64889 35.9613 1.5104 35.6883C1.37192 35.2788 1.37192 34.869 1.23344 34.4594C1.09495 34.0499 1.37192 33.7767 1.78737 33.6403C2.20281 33.5037 2.47978 33.7767 2.61828 34.1865C2.75675 34.596 2.75675 35.0056 2.89525 35.4151C3.03372 35.6883 2.75675 36.0979 2.34131 36.0979C2.34131 36.2345 2.34131 36.2345 2.20281 36.2345ZM1.37192 31.0462C0.956468 31.0462 0.6795 30.773 0.6795 30.3635C0.6795 29.9539 0.541016 29.5442 0.541016 28.998C0.541016 28.5885 0.817983 28.3155 1.23344 28.3155C1.64889 28.3155 1.92585 28.5885 1.92585 28.998C1.92585 29.4078 1.92585 29.8173 2.06434 30.2269C2.06434 30.6365 1.78737 31.0462 1.37192 31.0462ZM1.23344 25.8578C0.817983 25.8578 0.541016 25.4482 0.541016 25.175C0.541016 24.7655 0.541016 24.3559 0.6795 23.8098C0.6795 23.4002 1.09495 23.1271 1.37192 23.1271C1.78737 23.1271 2.06434 23.5366 2.06434 23.8098C2.06434 24.2194 2.06434 24.6289 1.92585 25.0387C1.92585 25.5848 1.64889 25.8578 1.23344 25.8578ZM1.92585 20.6695C1.92585 20.6695 1.78737 20.6695 1.92585 20.6695C1.37192 20.533 1.23344 20.2599 1.23344 19.8503C1.37192 19.4407 1.37192 19.0311 1.5104 18.6215C1.64889 18.2119 1.92585 18.0754 2.34131 18.0754C2.75675 18.2119 2.89525 18.485 2.89525 18.8945C2.75675 19.3042 2.75675 19.7138 2.61828 20.1234C2.47978 20.3964 2.20281 20.6695 1.92585 20.6695ZM3.31069 15.6177C3.17222 15.6177 3.17222 15.6177 3.03372 15.6177C2.61828 15.4812 2.47978 15.0716 2.61828 14.7985C2.75675 14.3889 2.89525 13.9793 3.03372 13.5697C3.31069 13.1601 3.72615 13.0236 4.0031 13.1601C4.41857 13.2967 4.55704 13.7063 4.41857 13.9793C4.28007 14.3889 4.1416 14.7985 4.0031 15.2081C3.86463 15.4812 3.58766 15.6177 3.31069 15.6177ZM5.38795 10.839C5.24948 10.839 5.11098 10.839 5.11098 10.7025C4.69554 10.7025 4.55704 10.2929 4.83401 9.88328C4.97251 9.47369 5.24948 9.06407 5.38795 8.79102C5.66492 8.38141 6.08036 8.24488 6.35733 8.51795C6.6343 8.65448 6.7728 9.06407 6.6343 9.47369C6.35733 9.74676 6.21886 10.1564 6.08036 10.566C5.94189 10.839 5.66492 10.839 5.38795 10.839ZM8.15762 6.46993C8.01915 6.46993 7.88066 6.46993 7.74218 6.33339C7.46521 6.19686 7.32672 5.65072 7.60369 5.37765C7.88066 5.10458 8.15763 4.69499 8.43459 4.28537C8.71156 4.01232 9.12701 3.87577 9.40398 4.14884C9.68095 4.42191 9.81944 4.83151 9.54247 5.10458C9.2655 5.5142 8.98853 5.78725 8.71156 6.19686C8.57309 6.33339 8.43459 6.46993 8.15762 6.46993Z" fill="#FFCB05"/>
<path fill-rule="evenodd" clip-rule="evenodd" d="M8.84337 4.62916C8.58713 5.00818 8.29437 5.43846 7.98849 5.74283C7.9856 5.7552 7.98351 5.77959 7.98948 5.81191C7.99455 5.83942 8.00344 5.86171 8.0112 5.87599L8.05622 5.89818L8.09857 5.93996C8.10201 5.94005 8.10581 5.94013 8.11004 5.94019L8.15358 5.94041C8.17721 5.94041 8.18887 5.93761 8.19272 5.93655C8.19639 5.93554 8.20006 5.93416 8.2062 5.93052C8.21349 5.92622 8.22584 5.91777 8.24622 5.90004C8.26003 5.88804 8.27414 5.87482 8.29169 5.85782C8.43266 5.65387 8.5722 5.48189 8.69908 5.32553L8.70368 5.31989C8.84327 5.14783 8.96782 4.99392 9.09163 4.81081L9.12114 4.76719L9.15155 4.73718C9.15127 4.73521 9.15089 4.73297 9.15037 4.73042C9.14144 4.68638 9.10464 4.60877 9.02732 4.53016C9.02534 4.53046 9.02309 4.53084 9.02055 4.53132C8.98075 4.53918 8.91389 4.56885 8.84337 4.62916ZM8.80993 3.49306C9.12889 3.43017 9.49386 3.49264 9.77964 3.77437C9.97445 3.96644 10.1434 4.22681 10.2035 4.52277C10.264 4.82144 10.2099 5.16103 9.95952 5.43577C9.81675 5.64307 9.67531 5.81737 9.54685 5.97569L9.54227 5.98132C9.40266 6.15338 9.27813 6.30731 9.1543 6.4904L9.12481 6.53402L9.08722 6.5711C9.08366 6.57462 9.08001 6.57822 9.07627 6.5819C8.92927 6.72718 8.65395 6.99923 8.15358 6.99923C8.14937 6.99923 8.14501 6.99923 8.1405 6.99925C7.99767 6.9995 7.6987 7.00003 7.4183 6.76241C7.12777 6.58089 6.98077 6.2611 6.93285 6.00131C6.87821 5.70497 6.91747 5.30141 7.21996 5.0032C7.45109 4.77532 7.69655 4.41634 7.98377 3.9916L8.01326 3.94798L8.05085 3.91092C8.24566 3.71885 8.50974 3.55225 8.80993 3.49306ZM5.84632 9.06222C5.80088 9.14877 5.7408 9.2537 5.68283 9.35494C5.64567 9.41987 5.60935 9.48329 5.57833 9.53935C5.47891 9.71909 5.39334 9.89105 5.33938 10.0506L5.31666 10.1178L5.27937 10.173H5.64374C5.75089 9.86724 5.89684 9.50788 6.14267 9.21609C6.15268 9.14788 6.14645 9.08882 6.13324 9.04543C6.12213 9.0089 6.10985 8.99263 6.10517 8.9874L6.03521 8.95293L5.99818 8.91642C5.9653 8.93436 5.90896 8.97584 5.84632 9.06222ZM6.66978 8.08579C6.39176 7.85131 6.03976 7.79502 5.71429 7.89129C5.38936 7.98739 5.12373 8.22126 4.93713 8.49723L4.91857 8.52465L4.90362 8.55413C4.8662 8.62791 4.82365 8.70184 4.77127 8.79285C4.73215 8.86081 4.68756 8.93827 4.63554 9.03232C4.53644 9.21145 4.42571 9.42569 4.34285 9.65243C4.16977 9.93759 4.08824 10.2851 4.19939 10.6138C4.29497 10.8965 4.50884 11.0921 4.77479 11.1797C4.85939 11.2578 4.95192 11.3005 5.02369 11.3241C5.16448 11.3704 5.31902 11.3689 5.37259 11.3684C5.3771 11.3684 5.3809 11.3683 5.38391 11.3683C5.39063 11.3683 5.39765 11.3683 5.40498 11.3684C5.52835 11.3686 5.73399 11.3689 5.92955 11.3138C6.17319 11.2452 6.41036 11.091 6.55661 10.8026L6.57368 10.769L6.58573 10.7333C6.73525 10.2911 6.84006 10.0154 7.00996 9.84793L7.09959 9.75954L7.13967 9.64099C7.32218 9.10118 7.20183 8.40323 6.66978 8.08579ZM3.51347 13.8128L3.11157 15.0015L3.09935 15.0256C3.0997 15.0292 3.10096 15.0354 3.10492 15.0442C3.10951 15.0544 3.11742 15.0663 3.1306 15.0781C3.13415 15.0813 3.13836 15.0847 3.14332 15.0882H3.30583C3.39754 15.0882 3.46683 15.0504 3.5055 14.9937L3.91718 13.7761L3.9294 13.752C3.92904 13.7484 3.92779 13.7422 3.92384 13.7334C3.91924 13.7232 3.91134 13.7113 3.89813 13.6995C3.88541 13.6881 3.86421 13.6737 3.82927 13.6622L3.79306 13.6503L3.7684 13.6382C3.76077 13.6382 3.74318 13.64 3.7138 13.6515C3.66242 13.6718 3.58791 13.7194 3.51347 13.8128ZM3.77289 13.6385C3.77385 13.6387 3.77289 13.6386 3.77289 13.6385V13.6385ZM4.20362 12.6697C3.5979 12.3972 2.93489 12.7554 2.58289 13.2759L2.54301 13.3349L2.11474 14.6016C1.85185 15.1806 2.17699 15.8954 2.85989 16.1199L2.94254 16.147H3.30503C3.75562 16.147 4.2373 15.922 4.47935 15.4448L4.49642 15.4111L4.91401 14.176C5.1724 13.607 4.86272 12.9066 4.20362 12.6697ZM2.10234 18.6438C2.09269 18.6497 2.05493 18.6729 2.01577 18.7888C1.96195 18.948 1.93313 19.1123 1.89754 19.3228L1.89517 19.3368C1.86626 19.508 1.83182 19.7119 1.76881 19.9232C1.77563 20.0159 1.79453 20.0407 1.79742 20.0445C1.79968 20.0475 1.82603 20.0823 1.9376 20.122C1.94681 20.1157 1.95779 20.1075 1.9705 20.0968C2.02455 20.0511 2.07799 19.9855 2.11742 19.917C2.16335 19.7697 2.19035 19.6153 2.22304 19.4218L2.22542 19.4077C2.25433 19.2366 2.28881 19.0326 2.35187 18.8212C2.34504 18.7221 2.32506 18.6794 2.31467 18.663C2.31031 18.6561 2.29656 18.6344 2.24452 18.6084C2.15708 18.6162 2.1179 18.6342 2.10234 18.6438ZM1.86026 20.9121L1.79158 21.183C1.44896 21.0985 1.14379 20.95 0.938299 20.6798C0.733996 20.4113 0.69242 20.1059 0.69242 19.8502V19.7643L0.719975 19.6828C0.773805 19.5236 0.802617 19.3593 0.838209 19.1487L0.840585 19.1347C0.873776 18.9382 0.91427 18.6985 0.996942 18.454C1.09599 18.161 1.2657 17.9107 1.53335 17.7458C1.79008 17.5876 2.07643 17.5458 2.33726 17.5458H2.4244L2.50707 17.573C2.80419 17.6706 3.05809 17.838 3.22537 18.1018C3.38584 18.355 3.42817 18.6373 3.42817 18.8944V18.9803L3.40062 19.0619C3.34679 19.2211 3.31796 19.3853 3.28237 19.5959L3.28001 19.6099C3.24681 19.8064 3.20632 20.0461 3.12365 20.2907L3.11157 20.3264L3.09452 20.36C2.99621 20.5538 2.8497 20.7483 2.66941 20.9007C2.4952 21.0479 2.23674 21.1989 1.92181 21.1989H1.8609L1.86026 20.9121ZM1.2714 23.7131C1.21964 23.7578 1.21243 23.7928 1.21243 23.8097V23.8749L1.19639 23.938C1.07575 24.4139 1.07396 24.7662 1.07394 25.1682C1.07464 25.1713 1.07674 25.1798 1.0824 25.1934C1.09273 25.2177 1.10956 25.2455 1.1315 25.2702C1.17679 25.3211 1.21214 25.3283 1.22939 25.3283C1.30897 25.3283 1.32506 25.3071 1.3271 25.3045C1.32718 25.3043 1.32706 25.3045 1.3271 25.3045C1.33631 25.2942 1.38484 25.2292 1.38484 25.0386V24.9526L1.41239 24.8711C1.51851 24.5572 1.52327 24.2347 1.52332 23.8165C1.52263 23.8133 1.52052 23.8048 1.51486 23.7915C1.50454 23.7669 1.4877 23.7392 1.46577 23.7146C1.42503 23.6687 1.39234 23.6583 1.37362 23.6566C1.36977 23.6577 1.36158 23.6598 1.34936 23.6649C1.3246 23.675 1.29647 23.6915 1.2714 23.7131ZM0.564204 22.9163C0.779257 22.7308 1.07355 22.5976 1.36788 22.5976C1.76608 22.5976 2.07693 22.7954 2.27399 23.0173C2.46216 23.2293 2.59726 23.5196 2.59726 23.8097V23.8379C2.59737 24.2093 2.59748 24.6618 2.45694 25.1256C2.44305 25.45 2.34953 25.7603 2.13551 26.0015C1.89416 26.2734 1.56197 26.3871 1.22939 26.3871C0.831186 26.3871 0.520331 26.1895 0.323274 25.9674C0.135104 25.7554 2.41643e-07 25.4653 2.41643e-07 25.1749L1.1362e-07 25.1661C-7.56781e-06 24.7667 -1.6275e-05 24.3188 0.140825 23.7366C0.163834 23.379 0.353177 23.0984 0.564204 22.9163ZM1.10708 28.8774C1.10017 28.8842 1.07394 28.9134 1.07394 28.9979C1.07394 29.2277 1.10278 29.4325 1.13694 29.6514C1.13965 29.6688 1.14244 29.6864 1.14528 29.7044C1.17621 29.9007 1.21243 30.1302 1.21243 30.3634C1.21243 30.4479 1.23865 30.4771 1.24557 30.4839C1.25248 30.4907 1.28217 30.5165 1.36788 30.5165C1.38001 30.5165 1.40671 30.5148 1.44602 30.465C1.47972 30.4223 1.50729 30.3598 1.51824 30.2908C1.38463 29.835 1.38474 29.3914 1.38484 29.0263L1.38484 28.9979C1.38484 28.9134 1.35862 28.8842 1.3517 28.8774C1.34478 28.8707 1.31509 28.8446 1.22939 28.8446C1.14369 28.8446 1.114 28.8707 1.10708 28.8774ZM0.347691 28.1286C0.58312 27.8965 0.899639 27.7858 1.22939 27.7858C1.55914 27.7858 1.87566 27.8965 2.11109 28.1286C2.34652 28.3607 2.45879 28.6729 2.45879 28.9979C2.45879 29.4196 2.46302 29.7438 2.56971 30.0593L2.59726 30.1408V30.2268C2.59726 30.5428 2.49225 30.8634 2.29375 31.1149C2.0907 31.3725 1.77119 31.5753 1.36788 31.5753C1.03812 31.5753 0.721605 31.4648 0.486176 31.2327C0.250744 31.0006 0.138484 30.6885 0.138484 30.3634C0.138484 30.2154 0.114807 30.064 0.0806496 29.8454L0.0754863 29.8124C0.0404077 29.5875 2.41643e-07 29.3145 2.41643e-07 28.9979C2.41643e-07 28.6729 0.112261 28.3607 0.347691 28.1286ZM1.98391 34.1347C1.97765 34.1356 1.96757 34.1377 1.95313 34.1423C1.88203 34.1658 1.82766 34.1915 1.78877 34.2158C1.75514 34.2368 1.73823 34.2533 1.73099 34.2616C1.73189 34.2677 1.73399 34.2777 1.73881 34.2918C1.82148 34.5364 1.86197 34.7761 1.89517 34.9727L1.89754 34.9866C1.93025 35.1802 1.95723 35.3346 2.00316 35.482C2.02034 35.5118 2.04017 35.541 2.06155 35.5684H2.33726C2.35058 35.5684 2.36306 35.5645 2.37367 35.5582C2.29643 35.3221 2.25751 35.0917 2.22542 34.9017L2.22304 34.8877C2.18745 34.6773 2.15864 34.5129 2.10481 34.3537C2.08111 34.2836 2.05496 34.23 2.0304 34.1917C2.00916 34.1584 1.99241 34.1419 1.98391 34.1347ZM2.62482 33.2849C2.88379 33.4763 3.0358 33.759 3.12365 34.0189C3.20632 34.2635 3.24681 34.5032 3.28001 34.6997L3.28237 34.7137C3.31605 34.9129 3.34368 35.0707 3.39215 35.2219C3.5486 35.5768 3.42985 35.9421 3.25153 36.1765C3.12627 36.3411 2.94696 36.4802 2.73056 36.5586C2.72096 36.5698 2.71067 36.5808 2.69965 36.5916C2.55791 36.7314 2.39038 36.7525 2.33814 36.7583C2.28692 36.764 2.23118 36.7638 2.2054 36.7638H2.19877C1.88385 36.7638 1.62538 36.6128 1.45118 36.4656C1.27088 36.3131 1.12438 36.1187 1.02608 35.925L1.00901 35.8913L0.996942 35.8555C0.91427 35.6111 0.873776 35.3714 0.840585 35.1749L0.838209 35.1607C0.802617 34.9502 0.773805 34.7859 0.719975 34.6269C0.59811 34.2664 0.653723 33.9128 0.869057 33.6297C1.06328 33.3745 1.34997 33.2245 1.61352 33.1379C1.97911 33.0179 2.33771 33.0725 2.62482 33.2849ZM3.44486 39.1703C3.42626 39.1713 3.3923 39.1764 3.33796 39.1942C3.28364 39.212 3.25344 39.2281 3.23796 39.2382C3.23899 39.2567 3.24401 39.2901 3.26212 39.3437L3.66173 40.5256C3.7004 40.5823 3.76889 40.6202 3.86058 40.6202H3.89854C3.91235 40.6134 3.92229 40.6077 3.92927 40.6031C3.92826 40.5849 3.92322 40.5514 3.90511 40.4978L3.48965 39.2689C3.47154 39.2154 3.45519 39.1855 3.44486 39.1703ZM3.46305 39.1709C3.46303 39.1711 3.46196 39.1709 3.46 39.1705L3.46305 39.1709ZM3.23862 39.2205C3.23869 39.2205 3.2386 39.2215 3.23809 39.2234L3.23862 39.2205ZM3.92762 38.2184C4.23842 38.3717 4.41306 38.6519 4.50849 38.9341L4.92394 40.163C5.01935 40.4451 5.05019 40.7727 4.89479 41.0791C4.73941 41.3855 4.45512 41.5577 4.16887 41.6517L4.0862 41.679H3.86058C3.41 41.679 2.92993 41.4539 2.68788 40.9766L2.67081 40.9429L2.24329 39.6785C2.14788 39.3964 2.11704 39.0688 2.27244 38.7624C2.42782 38.456 2.71211 38.2838 2.99836 38.1896C3.28461 38.0956 3.61684 38.0653 3.92762 38.2184ZM5.39929 43.6781C5.36604 43.7283 5.34146 43.78 5.32699 43.8276C5.31339 43.8723 5.31208 43.9 5.31268 43.9138C5.45191 44.1275 5.55823 44.3373 5.65136 44.5209L5.65647 44.5309C5.76202 44.739 5.85197 44.9152 5.96918 45.0884L5.98772 45.1158L5.9903 45.1211L6.05544 45.0781C6.10699 45.0442 6.13386 45.0141 6.14815 44.9936C6.16232 44.973 6.16939 44.9546 6.17295 44.937C6.18079 44.8983 6.17405 44.847 6.14997 44.7996L6.13292 44.7659L6.12085 44.7304C6.07297 44.5887 6.00007 44.4652 5.89285 44.2893L5.88432 44.2751C5.80365 44.1427 5.70304 43.9773 5.6209 43.7808C5.56044 43.7368 5.49579 43.7048 5.43735 43.6876C5.42296 43.6834 5.4103 43.6802 5.39929 43.6781ZM5.74593 42.6735C6.00823 42.751 6.25779 42.9009 6.45602 43.0964L6.54565 43.1847L6.58573 43.3033C6.63363 43.4449 6.70653 43.5682 6.81375 43.7444L6.82228 43.7584C6.91747 43.9149 7.04048 44.1167 7.12807 44.3621C7.23117 44.5821 7.28425 44.8578 7.22604 45.1446C7.17683 45.3873 7.05262 45.6138 6.85269 45.801C6.81081 45.9455 6.72646 46.0918 6.5646 46.1981C6.36463 46.3296 6.13092 46.3226 6.08334 46.3213C6.08014 46.3211 6.07778 46.3211 6.07632 46.3211C5.83773 46.3211 5.6095 46.2584 5.41198 46.1028C5.24475 45.9709 5.13636 45.7998 5.05743 45.6486C4.90944 45.4256 4.79805 45.206 4.70101 45.0145L4.6959 45.0044C4.59033 44.7962 4.50037 44.6202 4.38319 44.447L4.36465 44.4195L4.34968 44.3901C4.20025 44.0953 4.22132 43.7764 4.29834 43.5233C4.37702 43.2647 4.52901 43.0187 4.72723 42.8232L4.78886 42.7624L4.8668 42.7241C5.16568 42.5767 5.48922 42.5975 5.74593 42.6735ZM8.11092 48.2211C8.07557 48.2592 8.05368 48.3083 8.04741 48.3704C8.04129 48.4305 8.05177 48.4904 8.06973 48.536C8.18593 48.7043 8.30355 48.8496 8.4344 49.011L8.43897 49.0165C8.5631 49.1696 8.69934 49.3373 8.83719 49.5355C8.84327 49.54 8.85038 49.545 8.85856 49.5505C8.88455 49.5681 8.9146 49.5855 8.94516 49.6007L8.95863 49.574L9.02025 49.5135C9.10241 49.4324 9.14116 49.3515 9.15037 49.306C9.15089 49.3034 9.15127 49.3013 9.15155 49.2994C8.8864 49.0379 8.5907 48.7463 8.29575 48.321C8.22485 48.2601 8.15753 48.2302 8.11752 48.2224C8.11505 48.2219 8.11286 48.2215 8.11092 48.2211ZM8.32814 47.1841C8.62833 47.2432 8.89241 47.4098 9.08722 47.6019L9.12481 47.6389L9.1543 47.6826C9.39895 48.0445 9.64174 48.2853 9.91811 48.5576C10.2039 48.8394 10.2672 49.1992 10.2035 49.5137C10.1496 49.7793 10.0081 50.016 9.83896 50.2004C9.74297 50.3658 9.61423 50.5105 9.43237 50.6003C9.24595 50.6922 9.06347 50.6907 8.99598 50.6903C8.99166 50.6903 8.98782 50.6903 8.98449 50.6903C8.78491 50.6903 8.5876 50.6083 8.46739 50.549C8.33018 50.4815 8.17321 50.3828 8.05085 50.2621L8.01326 50.225L7.98377 50.1814C7.85994 49.9982 7.73541 49.8445 7.5958 49.6723L7.59124 49.6668C7.45507 49.4989 7.30433 49.3132 7.15286 49.0891L7.13432 49.0618L7.11938 49.0321C6.9027 48.605 6.88148 47.9356 7.35843 47.4653C7.64421 47.1837 8.00918 47.1212 8.32814 47.1841Z" fill="#FFCB05"/>
<path d="M11.6258 2.50972C11.4873 2.50972 11.3488 2.50972 11.2104 2.37319C10.9334 1.96358 10.7949 1.55398 11.0719 1.28091L11.6258 0.871305C11.9028 0.598237 12.3182 0.598237 12.5952 0.871305C12.8722 1.14437 12.8722 1.55398 12.5952 1.82705L12.1797 2.23665C12.0413 2.37319 11.7643 2.50972 11.6258 2.50972Z" fill="#FFCB05"/>
<path fill-rule="evenodd" clip-rule="evenodd" d="M12.1061 1.19603C12.0799 1.19603 12.0422 1.20535 12.0012 1.24577L11.9742 1.27238L11.454 1.65701C11.4545 1.66327 11.4555 1.67129 11.4574 1.68126C11.4698 1.74861 11.5097 1.84881 11.5891 1.98027C11.6054 1.97481 11.6294 1.96524 11.6583 1.95098C11.6897 1.9355 11.7207 1.91757 11.7474 1.89962C11.7752 1.8809 11.7907 1.86735 11.7957 1.86241L12.2112 1.45281C12.2522 1.41239 12.2616 1.37513 12.2616 1.34929C12.2616 1.32345 12.2522 1.28619 12.2112 1.24577C12.1702 1.20535 12.1324 1.19603 12.1061 1.19603ZM11.2727 0.467536C11.76 0.0174636 12.4941 0.0273081 12.9705 0.497069C13.4572 0.976888 13.4572 1.72169 12.9705 2.2015L12.5551 2.61112C12.4327 2.73176 12.2758 2.83038 12.1386 2.89802C12.0183 2.95729 11.821 3.03925 11.6215 3.03925C11.6173 3.03925 11.6129 3.03925 11.6084 3.03927C11.4553 3.03954 11.123 3.04013 10.8263 2.74765L10.7887 2.71059L10.7592 2.66696C10.6048 2.43851 10.4546 2.16273 10.4007 1.87066C10.3425 1.55458 10.3966 1.19377 10.6878 0.906673L10.7148 0.880069L11.2727 0.467536Z" fill="#FFCB05"/>
<path d="M39.7231 32.9555C35.9841 32.9555 32.9375 29.9518 32.9375 26.2654C32.9375 22.579 35.9841 19.5752 39.7231 19.5752C43.4621 19.5752 46.5089 22.579 46.5089 26.2654C46.5089 29.9518 43.4621 32.9555 39.7231 32.9555ZM39.7231 22.3058C37.5073 22.3058 35.7072 24.0808 35.7072 26.2654C35.7072 28.45 37.5073 30.225 39.7231 30.225C41.9388 30.225 43.7392 28.45 43.7392 26.2654C43.7392 24.0808 41.9388 22.3058 39.7231 22.3058Z" fill="#FFCB05"/>
<path fill-rule="evenodd" clip-rule="evenodd" d="M39.7347 20.1047C36.2923 20.1047 33.4861 22.8716 33.4861 26.2655C33.4861 29.6595 36.2923 32.4262 39.7347 32.4262C43.1773 32.4262 45.9835 29.6595 45.9835 26.2655C45.9835 22.8716 43.1773 20.1047 39.7347 20.1047ZM32.4121 26.2655C32.4121 22.2867 35.699 19.0459 39.7347 19.0459C43.7703 19.0459 47.0575 22.2867 47.0575 26.2655C47.0575 30.2444 43.7703 33.485 39.7347 33.485C35.699 33.485 32.4121 30.2444 32.4121 26.2655ZM35.1818 26.2655C35.1818 23.7885 37.2225 21.7765 39.7347 21.7765C42.2471 21.7765 44.2878 23.7885 44.2878 26.2655C44.2878 28.7425 42.2471 30.7545 39.7347 30.7545C37.2225 30.7545 35.1818 28.7425 35.1818 26.2655ZM39.7347 22.8353C37.8155 22.8353 36.2557 24.3734 36.2557 26.2655C36.2557 28.1576 37.8155 29.6957 39.7347 29.6957C41.6538 29.6957 43.2138 28.1576 43.2138 26.2655C43.2138 24.3734 41.6538 22.8353 39.7347 22.8353Z" fill="#FFCB05"/>
<path d="M19.7933 98.6305L17.1621 97.8114L38.6272 30.0903H41.2583L62.4463 97.8114L59.6766 98.6305L40.0119 35.0056L19.7933 98.6305Z" fill="#FFCB05"/>
<path fill-rule="evenodd" clip-rule="evenodd" d="M38.2191 29.561H41.6413L63.1055 98.1652L59.3055 99.2892L39.9915 36.7987L20.1315 99.2954L16.4766 98.1573L38.2191 29.561ZM39.0087 30.6199L17.821 97.4655L19.4285 97.9661L40.0057 33.2125L60.0212 97.972L61.7603 97.4577L40.8488 30.6199H39.0087Z" fill="#FFCB05"/>
<path d="M41.3908 30.4985H38.6211V106.412H41.3908V30.4985Z" fill="#FFCB05"/>
<path fill-rule="evenodd" clip-rule="evenodd" d="M38.0801 29.9692H41.9237V106.941H38.0801V29.9692ZM39.154 31.0281V105.882H40.8498V31.0281H39.154Z" fill="#FFCB05"/>
<path d="M39.8719 89.346L23.1152 83.0654L24.0848 80.6079L39.8719 86.4789L55.382 80.6079L56.3514 83.0654L39.8719 89.346Z" fill="#FFCB05"/>
<path fill-rule="evenodd" clip-rule="evenodd" d="M55.6851 79.9233L57.0432 83.3666L39.8698 89.9116L22.415 83.3694L23.7731 79.9263L39.8664 85.911L55.6851 79.9233ZM24.3887 81.2869L23.8082 82.7589L39.8666 88.7776L55.6522 82.7616L55.0717 81.2897L39.8698 87.0439L24.3887 81.2869Z" fill="#FFCB05"/>
<path d="M39.8618 72.414L28.7832 68.3179L29.8911 65.8604L39.8618 69.5468L49.6941 65.8604L50.6637 68.3179L39.8618 72.414Z" fill="#FFCB05"/>
<path fill-rule="evenodd" clip-rule="evenodd" d="M50.0068 65.1797L51.3647 68.6223L39.8697 72.9813L28.0664 68.6173L29.6112 65.1905L39.866 68.9819L50.0068 65.1797ZM30.1816 66.5322L29.5106 68.0205L39.8647 71.8486L49.9731 68.0156L49.3923 66.5428L39.8686 70.1136L30.1816 66.5322Z" fill="#FFCB05"/>
<path d="M39.8682 56.1667L31.2822 53.0262L32.2516 50.4321L39.8682 53.2994L47.2077 50.4321L48.1773 53.0262L39.8682 56.1667Z" fill="#FFCB05"/>
<path fill-rule="evenodd" clip-rule="evenodd" d="M47.526 49.7412L48.8688 53.3346L39.8759 56.7335L30.5977 53.3399L31.9401 49.7476L39.869 52.7324L47.526 49.7412ZM32.572 51.1187L31.9757 52.7146L39.8696 55.6018L47.4946 52.7199L46.8986 51.1251L39.8763 53.8685L32.572 51.1187Z" fill="#FFCB05"/>
</g>
<defs>
<clipPath id="clip0_1694_10647">
<rect width="79.4717" height="108" fill="white"/>
</clipPath>
</defs>
</svg>
