<svg width="68" height="68" viewBox="0 0 68 68" fill="none" xmlns="http://www.w3.org/2000/svg">
<path d="M4.81364 29.1863C4.74888 29.1863 4.68412 29.1863 4.61935 29.1647C4.12285 29.0568 3.82062 28.5603 3.92856 28.0638L4.0365 27.5889C4.16602 27.0923 4.66253 26.7901 5.13745 26.9196C5.63396 27.0492 5.93618 27.5457 5.80666 28.0206L5.69872 28.4523C5.61237 28.9057 5.2238 29.1863 4.81364 29.1863Z" fill="#141414"/>
<path d="M6.71274 23.4867C6.58322 23.4867 6.45369 23.4651 6.32417 23.4003C5.87084 23.1844 5.65496 22.6447 5.87084 22.1914C6.00036 21.9108 6.12989 21.6086 6.281 21.3279C6.49687 20.8746 7.05814 20.6803 7.51147 20.9178C7.96481 21.1336 8.15909 21.6949 7.92163 22.1482C7.79211 22.4073 7.66258 22.6879 7.53306 22.9686C7.40354 23.2924 7.05814 23.4867 6.71274 23.4867ZM59.8175 21.22C59.4937 21.22 59.1915 21.0473 59.0188 20.7451C58.8677 20.486 58.7166 20.227 58.5654 19.9679C58.3064 19.5362 58.4359 18.9749 58.8893 18.7159C59.321 18.4568 59.8823 18.5863 60.1413 19.0397C60.314 19.3203 60.4651 19.5793 60.6162 19.86C60.8753 20.3133 60.7026 20.8746 60.2708 21.112C60.1197 21.1768 59.9686 21.22 59.8175 21.22ZM10.0156 17.9387C9.82131 17.9387 9.62703 17.874 9.45433 17.766C9.04417 17.4638 8.95782 16.8809 9.26004 16.4708C9.45433 16.2117 9.64862 15.9527 9.8429 15.7152C10.1667 15.3267 10.7496 15.2619 11.1381 15.5641C11.5267 15.8879 11.5915 16.4708 11.2893 16.8594C11.095 17.0968 10.9223 17.3343 10.7496 17.5717C10.5553 17.8092 10.2962 17.9387 10.0156 17.9387ZM56.0613 15.9743C55.8023 15.9743 55.5648 15.8663 55.3705 15.672C55.1762 15.4562 54.9604 15.2187 54.7661 15.0028C54.4207 14.6359 54.4423 14.053 54.8093 13.7076C55.1762 13.3622 55.7591 13.3838 56.1045 13.7508C56.3204 13.9882 56.5362 14.2041 56.7521 14.4416C57.0975 14.8086 57.0543 15.3914 56.6874 15.7368C56.5147 15.8879 56.2772 15.9743 56.0613 15.9743ZM14.4194 13.2111C14.1604 13.2111 13.9013 13.1032 13.7286 12.8873C13.4048 12.4987 13.448 11.9159 13.815 11.592C14.0524 11.3762 14.2899 11.1819 14.5489 10.9876C14.9375 10.6638 15.5204 10.7286 15.8442 11.1171C16.168 11.5057 16.1032 12.0886 15.7146 12.4124C15.4772 12.6067 15.2613 12.8009 15.0239 12.9952C14.8512 13.1247 14.6353 13.2111 14.4194 13.2111ZM51.2689 11.6352C51.0747 11.6352 50.902 11.5705 50.7293 11.4625C50.4918 11.2898 50.2327 11.1171 49.9953 10.9444C49.5851 10.6638 49.4556 10.0809 49.7578 9.67078C50.0385 9.23903 50.6213 9.1311 51.0315 9.43332C51.2905 9.60602 51.5496 9.8003 51.8086 9.973C52.2188 10.2752 52.3051 10.8365 52.0245 11.2682C51.8302 11.5057 51.5496 11.6352 51.2689 11.6352ZM19.7515 9.54125C19.4277 9.54125 19.1039 9.36856 18.9312 9.06633C18.6937 8.613 18.8664 8.05173 19.2981 7.81427C19.5788 7.66316 19.8594 7.51205 20.14 7.38252C20.5934 7.14506 21.1546 7.33935 21.3705 7.79268C21.608 8.24602 21.4137 8.80729 20.9604 9.02316C20.7013 9.15268 20.4207 9.30379 20.1616 9.43332C20.0321 9.49808 19.881 9.54125 19.7515 9.54125ZM45.6562 8.4403C45.5267 8.4403 45.4188 8.41871 45.2893 8.37554C45.0086 8.24602 44.728 8.13808 44.4473 8.03014C43.9724 7.83586 43.735 7.31776 43.9293 6.84284C44.1235 6.36792 44.6416 6.13046 45.1166 6.32475C45.4188 6.43268 45.6994 6.56221 46.0016 6.69173C46.4766 6.88602 46.6924 7.4257 46.4766 7.90062C46.347 8.22443 46.0016 8.4403 45.6562 8.4403ZM25.7312 7.12348C25.321 7.12348 24.954 6.86443 24.8461 6.45427C24.7166 5.95776 24.9972 5.46125 25.4721 5.31014C25.7743 5.22379 26.0766 5.13744 26.4004 5.07268C26.8969 4.94316 27.3934 5.24538 27.5229 5.74189C27.6524 6.2384 27.3502 6.7349 26.8537 6.86443C26.5731 6.92919 26.2708 7.01554 25.9902 7.10189C25.9039 7.10189 25.8175 7.12348 25.7312 7.12348ZM39.4607 6.51903C39.3959 6.51903 39.3527 6.51903 39.288 6.49744C38.9858 6.43268 38.7051 6.38951 38.4029 6.34633C37.9064 6.25998 37.561 5.78506 37.6473 5.28856C37.7337 4.79205 38.187 4.44665 38.7051 4.533C39.0289 4.57617 39.3312 4.64094 39.655 4.7057C40.1515 4.79205 40.4753 5.28856 40.3889 5.78506C40.281 6.21681 39.8924 6.51903 39.4607 6.51903ZM32.0994 6.04411C31.6245 6.04411 31.2143 5.67713 31.1927 5.18062C31.1712 4.66252 31.5597 4.23078 32.0562 4.20919C32.38 4.1876 32.7039 4.1876 33.0061 4.16602C33.5026 4.16602 33.9343 4.55459 33.9559 5.07268C33.9775 5.59078 33.5674 6.00094 33.0493 6.02252C32.747 6.02252 32.4448 6.04411 32.1642 6.0657C32.1426 6.04411 32.121 6.04411 32.0994 6.04411Z" fill="#141414"/>
<path d="M62.2168 26.7686C61.8282 26.7686 61.4612 26.5096 61.3317 26.121L61.2022 25.6892C61.0511 25.2143 61.3101 24.6962 61.785 24.5235C62.2815 24.3724 62.778 24.6315 62.9507 25.1064L63.1018 25.5597C63.253 26.0346 62.9939 26.5527 62.4974 26.7038C62.4111 26.747 62.3031 26.7686 62.2168 26.7686Z" fill="#141414"/>
<path d="M9.66852 27.5673L4.0774 34.8422L0.580261 26.3584L9.66852 27.5673Z" fill="#141414"/>
<path d="M62.5605 43.5198C62.4958 43.5198 62.4094 43.5198 62.3446 43.4982C61.8481 43.3687 61.5459 42.8722 61.6754 42.3973L61.7834 41.9655C61.8913 41.469 62.3878 41.1668 62.8843 41.2748C63.3808 41.3827 63.6831 41.8792 63.5751 42.3757L63.4672 42.829C63.3377 43.2392 62.9707 43.5198 62.5605 43.5198Z" fill="#141414"/>
<path d="M34.4326 66.2512C33.9361 66.2512 33.526 65.8626 33.5044 65.3445C33.4828 64.8264 33.893 64.4163 34.411 64.3947C34.7133 64.3947 35.0155 64.3731 35.2961 64.3515C35.8142 64.3299 36.246 64.7185 36.2676 65.215C36.2891 65.7331 35.9006 66.1648 35.4041 66.1864C35.1018 66.2296 34.778 66.2512 34.4326 66.2512C34.4542 66.2512 34.4542 66.2512 34.4326 66.2512ZM28.9063 65.9058C28.8631 65.9058 28.8199 65.9058 28.7552 65.8842C28.4314 65.841 28.1291 65.7763 27.8053 65.7115C27.3088 65.6251 26.985 65.1286 27.0714 64.6321C27.1577 64.1356 27.6542 63.8118 28.1507 63.8982C28.453 63.9629 28.7336 64.0061 29.0358 64.0493C29.5323 64.1356 29.8777 64.6105 29.7914 65.107C29.7482 65.582 29.3596 65.9058 28.9063 65.9058ZM40.8441 65.3877C40.4339 65.3877 40.0669 65.107 39.959 64.6969C39.8295 64.2004 40.1317 63.7039 40.6282 63.5743C40.9088 63.5096 41.211 63.4232 41.4917 63.3369C41.9882 63.2074 42.4847 63.488 42.6358 63.9629C42.7653 64.4594 42.4847 64.9559 42.0098 65.107C41.7076 65.1934 41.4053 65.2797 41.0815 65.3445C40.9952 65.3661 40.9088 65.3877 40.8441 65.3877ZM22.6676 64.1788C22.5596 64.1788 22.4301 64.1572 22.3222 64.114C22.0199 64.0061 21.7393 63.8766 21.4371 63.747C20.9622 63.5528 20.7463 63.0131 20.9622 62.5382C21.1564 62.0632 21.6961 61.869 22.171 62.0632C22.4517 62.1928 22.7323 62.3007 23.013 62.4086C23.4879 62.6029 23.7253 63.121 23.531 63.5959C23.3799 63.9629 23.0345 64.1788 22.6676 64.1788ZM46.9101 63.1426C46.5647 63.1426 46.2409 62.9483 46.0898 62.6245C45.8523 62.1712 46.0466 61.6099 46.4999 61.394C46.759 61.2645 47.0396 61.1134 47.2987 60.9839C47.752 60.7464 48.3133 60.9191 48.5507 61.3509C48.7882 61.8042 48.6155 62.3655 48.1837 62.6029C47.9031 62.754 47.6225 62.9051 47.3418 63.0347C47.1691 63.121 47.0396 63.1426 46.9101 63.1426ZM16.9469 61.1566C16.7742 61.1566 16.5799 61.1134 16.4288 61.0055C16.1698 60.8328 15.9107 60.6385 15.6517 60.4658C15.2415 60.1636 15.1552 59.6023 15.4358 59.1705C15.738 58.7604 16.2993 58.674 16.731 58.9547C16.9685 59.1274 17.2276 59.3001 17.465 59.4728C17.8752 59.7534 18.0047 60.3363 17.7025 60.7464C17.5298 61.027 17.2491 61.1566 16.9469 61.1566ZM52.3285 59.6455C52.0695 59.6455 51.7888 59.5375 51.6161 59.3001C51.2923 58.9115 51.3571 58.3286 51.7457 58.0048C51.9831 57.8105 52.199 57.6163 52.4364 57.422C52.825 57.0982 53.4079 57.1413 53.7317 57.5083C54.0555 57.8969 54.0123 58.4797 53.6453 58.8036C53.4079 59.0194 53.1704 59.2137 52.9114 59.408C52.7387 59.5807 52.5444 59.6455 52.3285 59.6455ZM12.025 56.9902C11.7876 56.9902 11.5285 56.9039 11.3558 56.7096C11.1399 56.4721 10.9241 56.2563 10.7082 56.0188C10.3628 55.6518 10.406 55.069 10.773 54.7236C11.1399 54.3782 11.7228 54.4213 12.0682 54.7883C12.2625 55.0042 12.4783 55.2417 12.6726 55.4575C13.018 55.8245 12.9964 56.4074 12.6295 56.7528C12.4783 56.9039 12.2625 56.9902 12.025 56.9902ZM56.8834 55.069C56.6891 55.069 56.4733 55.0042 56.3006 54.8747C55.912 54.5509 55.8472 53.968 56.1495 53.5794C56.3437 53.342 56.5164 53.1045 56.6891 52.867C56.9914 52.4569 57.5742 52.3705 57.9844 52.6728C58.3945 52.975 58.4809 53.5578 58.1787 53.968C57.9844 54.227 57.7901 54.4861 57.5958 54.7236C57.4231 54.9394 57.1641 55.069 56.8834 55.069ZM8.11771 51.8309C7.81549 51.8309 7.49168 51.6797 7.31898 51.3775C7.14629 51.0969 6.99517 50.8378 6.84406 50.5572C6.58502 50.1039 6.75771 49.5426 7.18946 49.3051C7.64279 49.0461 8.20406 49.2188 8.44152 49.6505C8.59263 49.9096 8.74375 50.1686 8.89486 50.4277C9.15391 50.8594 9.02438 51.4207 8.57105 51.6797C8.44152 51.7877 8.26883 51.8309 8.11771 51.8309ZM60.359 49.6074C60.2295 49.6074 60.0784 49.5858 59.9488 49.521C59.4955 49.3051 59.3012 48.7439 59.5387 48.2905C59.6682 48.0315 59.7977 47.7509 59.9272 47.4702C60.1431 47.0169 60.6828 46.801 61.1361 47.0169C61.5895 47.2328 61.8053 47.7724 61.5895 48.2258C61.4599 48.5064 61.3304 48.8086 61.1793 49.0893C61.0282 49.4131 60.6828 49.6074 60.359 49.6074Z" fill="#141414"/>
<path d="M5.39741 45.9383C5.00884 45.9383 4.64185 45.7008 4.53392 45.3122L4.38281 44.8589C4.2317 44.384 4.49074 43.8659 4.98725 43.7148C5.48376 43.5637 5.98027 43.8227 6.13138 44.3192L6.2609 44.751C6.41201 45.2259 6.15297 45.744 5.67805 45.9167C5.57011 45.9167 5.48376 45.9383 5.39741 45.9383Z" fill="#141414"/>
<path d="M57.7918 42.8511L63.3829 35.5762L66.8801 44.06L57.7918 42.8511Z" fill="#141414"/>
<path d="M34.1512 49.8022C26.0991 49.8022 19.5582 43.2613 19.5582 35.2092C19.5582 27.1572 26.0991 20.6162 34.1512 20.6162C42.2032 20.6162 48.7442 27.1572 48.7442 35.2092C48.7442 43.2613 42.1817 49.8022 34.1512 49.8022ZM34.1512 22.4727C27.1137 22.4727 21.4147 28.1934 21.4147 35.2092C21.4147 42.2467 27.1353 47.9457 34.1512 47.9457C41.1671 47.9457 46.8877 42.2251 46.8877 35.2092C46.8877 28.1934 41.1671 22.4727 34.1512 22.4727Z" fill="#141414"/>
</svg>
