<svg width="68" height="68" viewBox="0 0 68 68" fill="none" xmlns="http://www.w3.org/2000/svg">
<path d="M12.9901 41.1336C6.10567 41.1336 0.498535 35.5265 0.498535 28.642C0.498535 21.7576 6.08402 16.1505 12.9901 16.1505C13.1416 16.1505 13.3148 16.1505 13.4664 16.1721C16.822 10.197 23.1003 6.5166 29.9847 6.5166C35.83 6.5166 41.3938 9.26604 44.9876 13.9206C45.6803 13.8124 46.3515 13.7691 46.9793 13.7691C53.0843 13.7691 58.6049 17.536 60.8131 23.2081C64.7316 24.204 67.5243 27.7544 67.5243 31.8245C67.5243 36.7388 63.5409 40.7223 58.6265 40.7223C57.674 40.7223 56.7214 40.5491 55.7039 40.2027L56.2668 38.6006C57.0894 38.8821 57.8688 39.0336 58.6265 39.0336C62.5883 39.0336 65.8357 35.8079 65.8357 31.8245C65.8357 28.4039 63.3893 25.4163 60.0337 24.7668L59.5358 24.6802L59.3843 24.2256C57.5224 18.9865 52.5215 15.4577 46.9793 15.4577C46.2865 15.4577 45.5504 15.5226 44.7494 15.6525L44.2298 15.7391L43.9268 15.3062C40.6794 10.8464 35.4619 8.18359 29.9847 8.18359C23.5549 8.18359 17.7096 11.734 14.722 17.4278L14.4622 17.9257L13.8994 17.8824C13.5963 17.8608 13.2932 17.8391 12.9901 17.8391C7.03658 17.8391 2.18717 22.6885 2.18717 28.642C2.18717 34.5956 7.03658 39.445 12.9901 39.445V41.1336Z" fill="#141414"/>
<path d="M11.5823 54.2957C9.33078 54.2957 7.4906 52.4555 7.4906 50.204C7.4906 47.9525 9.33078 46.1123 11.5823 46.1123C13.8338 46.1123 15.674 47.9525 15.674 50.204C15.674 52.4555 13.8338 54.2957 11.5823 54.2957ZM11.5823 47.8226C10.2617 47.8226 9.20088 48.8834 9.20088 50.204C9.20088 51.5246 10.2617 52.5854 11.5823 52.5854C12.9029 52.5854 13.9637 51.5246 13.9637 50.204C13.9637 48.8834 12.9029 47.8226 11.5823 47.8226Z" fill="#141414"/>
<path d="M22.7958 60.7693C20.5443 60.7693 18.7041 58.9291 18.7041 56.6776C18.7041 54.4261 20.5443 52.5859 22.7958 52.5859C25.0473 52.5859 26.8875 54.4261 26.8875 56.6776C26.8875 58.9291 25.0473 60.7693 22.7958 60.7693ZM22.7958 54.2962C21.4752 54.2962 20.4144 55.357 20.4144 56.6776C20.4144 57.9982 21.4752 59.059 22.7958 59.059C24.1164 59.059 25.1772 57.9982 25.1772 56.6776C25.1772 55.357 24.1164 54.2962 22.7958 54.2962Z" fill="#141414"/>
<path d="M34.0133 64.2547C31.7618 64.2547 29.9216 62.4145 29.9216 60.163C29.9216 57.9115 31.7618 56.0713 34.0133 56.0713C36.2648 56.0713 38.105 57.9115 38.105 60.163C38.105 62.4145 36.2648 64.2547 34.0133 64.2547ZM34.0133 57.7816C32.6927 57.7816 31.6319 58.8424 31.6319 60.163C31.6319 61.4836 32.6927 62.5444 34.0133 62.5444C35.3339 62.5444 36.3947 61.4836 36.3947 60.163C36.3947 58.8424 35.3123 57.7816 34.0133 57.7816Z" fill="#141414"/>
<path d="M45.2023 60.7693C42.9508 60.7693 41.1106 58.9291 41.1106 56.6776C41.1106 54.4261 42.9508 52.5859 45.2023 52.5859C47.4538 52.5859 49.294 54.4261 49.294 56.6776C49.294 58.9291 47.4538 60.7693 45.2023 60.7693ZM45.2023 54.2962C43.8817 54.2962 42.8209 55.357 42.8209 56.6776C42.8209 57.9982 43.8817 59.059 45.2023 59.059C46.5229 59.059 47.5837 57.9982 47.5837 56.6776C47.5837 55.357 46.5229 54.2962 45.2023 54.2962Z" fill="#141414"/>
<path d="M56.4157 54.2957C54.1642 54.2957 52.324 52.4555 52.324 50.204C52.324 47.9525 54.1642 46.1123 56.4157 46.1123C58.6672 46.1123 60.5074 47.9525 60.5074 50.204C60.5074 52.4555 58.6672 54.2957 56.4157 54.2957ZM56.4157 47.8226C55.0951 47.8226 54.0343 48.8834 54.0343 50.204C54.0343 51.5246 55.0951 52.5854 56.4157 52.5854C57.7363 52.5854 58.7971 51.5246 58.7971 50.204C58.7971 48.8834 57.7363 47.8226 56.4157 47.8226Z" fill="#141414"/>
<path d="M33.8595 32.3003C33.3832 32.3003 33.0151 31.9106 33.0151 31.456V31.023C33.0151 30.5467 33.4048 30.1787 33.8595 30.1787C34.3357 30.1787 34.7038 30.5684 34.7038 31.023V31.456C34.7038 31.9106 34.3357 32.3003 33.8595 32.3003Z" fill="#141414"/>
<path d="M33.8595 53.8843C33.3832 53.8843 33.0151 53.4947 33.0151 53.04V52.1741C33.0151 51.6978 33.4048 51.3297 33.8595 51.3297C34.3357 51.3297 34.7038 51.7194 34.7038 52.1741V53.04C34.7038 53.5163 34.3357 53.8843 33.8595 53.8843ZM33.8595 49.5762C33.3832 49.5762 33.0151 49.1865 33.0151 48.7318V47.8659C33.0151 47.3896 33.4048 47.0216 33.8595 47.0216C34.3357 47.0216 34.7038 47.4112 34.7038 47.8659V48.7318C34.7038 49.1865 34.3357 49.5762 33.8595 49.5762ZM33.8595 45.2463C33.3832 45.2463 33.0151 44.8566 33.0151 44.402V43.536C33.0151 43.0598 33.4048 42.6917 33.8595 42.6917C34.3357 42.6917 34.7038 43.0814 34.7038 43.536V44.402C34.7038 44.8783 34.3357 45.2463 33.8595 45.2463ZM33.8595 40.9381C33.3832 40.9381 33.0151 40.5485 33.0151 40.0938V39.2279C33.0151 38.7516 33.4048 38.3835 33.8595 38.3835C34.3357 38.3835 34.7038 38.7732 34.7038 39.2279V40.0938C34.7038 40.5485 34.3357 40.9381 33.8595 40.9381ZM33.8595 36.6083C33.3832 36.6083 33.0151 36.2186 33.0151 35.764V34.898C33.0151 34.4217 33.4048 34.0537 33.8595 34.0537C34.3357 34.0537 34.7038 34.4434 34.7038 34.898V35.764C34.7038 36.2403 34.3357 36.6083 33.8595 36.6083Z" fill="#141414"/>
<path d="M33.8595 57.7818C33.3832 57.7818 33.0151 57.3921 33.0151 56.9375V56.5045C33.0151 56.0282 33.4048 55.6602 33.8595 55.6602C34.3357 55.6602 34.7038 56.0498 34.7038 56.5045V56.9375C34.7038 57.3921 34.3357 57.7818 33.8595 57.7818Z" fill="#141414"/>
<path d="M39.5766 32.3003C39.1003 32.3003 38.7322 31.9106 38.7322 31.456V31.023C38.7322 30.5467 39.1219 30.1787 39.5766 30.1787C40.0312 30.1787 40.4209 30.5684 40.4209 31.023V31.456C40.4425 31.9106 40.0528 32.3003 39.5766 32.3003Z" fill="#141414"/>
<path d="M42.4992 51.2866C42.1745 51.2866 41.8714 51.1134 41.7415 50.8104L41.3951 50.0959C41.1786 49.6846 41.3734 49.165 41.7848 48.9485C42.2178 48.732 42.7157 48.9269 42.9322 49.3382L43.2786 50.0526C43.4951 50.464 43.3002 50.9835 42.8889 51.2C42.7373 51.265 42.6291 51.2866 42.4992 51.2866ZM40.7673 47.7578C40.4425 47.7578 40.1394 47.5846 40.0095 47.2815L39.6632 46.5671C39.4467 46.1558 39.6415 45.6362 40.0528 45.4197C40.4858 45.2032 40.9838 45.3981 41.2002 45.8094L41.5466 46.5238C41.7631 46.9352 41.5683 47.4547 41.157 47.6712C41.0271 47.7362 40.8972 47.7578 40.7673 47.7578ZM39.5766 44.0991C39.1003 44.0991 38.7322 43.7094 38.7322 43.2548V42.4754C38.7322 41.9991 39.1219 41.6311 39.5766 41.6311C40.0312 41.6311 40.4209 42.0208 40.4209 42.4754V43.2548C40.4425 43.7094 40.0528 44.0991 39.5766 44.0991ZM39.5766 40.159C39.1003 40.159 38.7322 39.7693 38.7322 39.3146V38.5353C38.7322 38.059 39.1219 37.691 39.5766 37.691C40.0312 37.691 40.4209 38.0806 40.4209 38.5353V39.3146C40.4425 39.7909 40.0528 40.159 39.5766 40.159ZM39.5766 36.2405C39.1003 36.2405 38.7322 35.8508 38.7322 35.3961V34.6168C38.7322 34.1405 39.1219 33.7725 39.5766 33.7725C40.0312 33.7725 40.4209 34.1621 40.4209 34.6168V35.3961C40.4425 35.8508 40.0528 36.2405 39.5766 36.2405Z" fill="#141414"/>
<path d="M44.0556 54.5123C43.7309 54.5123 43.4278 54.3391 43.2979 54.036L43.103 53.6463C42.9082 53.2133 43.0814 52.7154 43.4927 52.4989C43.9257 52.3041 44.4236 52.4773 44.6401 52.8886L44.835 53.2783C45.0298 53.7113 44.8566 54.2092 44.4453 54.4257C44.3154 54.469 44.1855 54.5123 44.0556 54.5123Z" fill="#141414"/>
<path d="M45.314 32.3003C44.8378 32.3003 44.4697 31.9106 44.4697 31.456V31.023C44.4697 30.5467 44.8594 30.1787 45.314 30.1787C45.7687 30.1787 46.1584 30.5684 46.1584 31.023V31.456C46.1584 31.9106 45.7903 32.3003 45.314 32.3003Z" fill="#141414"/>
<path d="M45.314 39.5095C44.8378 39.5095 44.4697 39.1198 44.4697 38.6652V37.9508C44.4697 37.4745 44.8594 37.1065 45.314 37.1065C45.7687 37.1065 46.1584 37.4961 46.1584 37.9508V38.6652C46.1584 39.1415 45.7903 39.5095 45.314 39.5095ZM45.314 35.9157C44.8378 35.9157 44.4697 35.5261 44.4697 35.0714V34.357C44.4697 33.8807 44.8594 33.5127 45.314 33.5127C45.7687 33.5127 46.1584 33.9024 46.1584 34.357V35.0714C46.1584 35.5261 45.7903 35.9157 45.314 35.9157Z" fill="#141414"/>
<path d="M45.6604 43.0814C45.4872 43.0814 45.3357 43.0381 45.1841 42.9299L44.8378 42.6918C44.5996 42.5402 44.4697 42.2804 44.4697 41.999V41.566C44.4697 41.0897 44.8594 40.7217 45.314 40.7217C45.7687 40.7217 46.1584 41.0897 46.1584 41.5443C46.5264 41.8041 46.613 42.3237 46.3532 42.7134C46.2017 42.9515 45.9419 43.0814 45.6604 43.0814Z" fill="#141414"/>
<path d="M51.4161 47.0006C51.2429 47.0006 51.0913 46.9573 50.9398 46.849L50.3552 46.4594C49.9656 46.1996 49.8573 45.6583 50.1388 45.2687C50.3985 44.879 50.9398 44.7924 51.3295 45.0522L51.914 45.4419C52.3037 45.7016 52.4119 46.2429 52.1305 46.6326C51.9573 46.8707 51.6975 47.0006 51.4161 47.0006ZM48.5367 45.0305C48.3635 45.0305 48.212 44.9872 48.0604 44.879L47.4759 44.4893C47.0862 44.2295 46.978 43.6883 47.2594 43.2986C47.5192 42.9089 48.0604 42.8223 48.4501 43.0821L49.0346 43.4718C49.4243 43.7316 49.5326 44.2728 49.2511 44.6625C49.0779 44.9006 48.8181 45.0305 48.5367 45.0305Z" fill="#141414"/>
<path d="M54.077 48.8184C53.9038 48.8184 53.7522 48.7751 53.6007 48.6669L53.2543 48.4287C52.8646 48.169 52.7564 47.6277 53.0378 47.238C53.2976 46.8484 53.8388 46.7618 54.2285 47.0215L54.5749 47.2597C54.9646 47.5195 55.0728 48.0607 54.7914 48.4504C54.6182 48.6885 54.3584 48.8184 54.077 48.8184Z" fill="#141414"/>
<path d="M28.1873 32.3003C27.7111 32.3003 27.343 31.9106 27.343 31.456V31.023C27.343 30.5467 27.7327 30.1787 28.1873 30.1787C28.642 30.1787 29.0317 30.5684 29.0317 31.023V31.456C29.0317 31.9106 28.6636 32.3003 28.1873 32.3003Z" fill="#141414"/>
<path d="M25.2639 51.2866C25.134 51.2866 25.0041 51.265 24.8959 51.2C24.4629 50.9835 24.2897 50.4856 24.5062 50.0526L24.8526 49.3382C25.069 48.9269 25.567 48.732 26 48.9485C26.4329 49.165 26.6061 49.6629 26.3896 50.0959L26.0433 50.8104C25.8917 51.1134 25.5886 51.2866 25.2639 51.2866ZM26.9958 47.7578C26.8659 47.7578 26.736 47.7362 26.6278 47.6712C26.1948 47.4547 26.0216 46.9568 26.2381 46.5238L26.5845 45.8094C26.801 45.3981 27.2989 45.2032 27.7319 45.4197C28.1649 45.6362 28.3381 46.1341 28.1216 46.5671L27.7752 47.2815C27.6236 47.5846 27.3206 47.7578 26.9958 47.7578ZM28.1865 44.0991C27.7102 44.0991 27.3422 43.7094 27.3422 43.2548V42.4754C27.3422 41.9991 27.7319 41.6311 28.1865 41.6311C28.6412 41.6311 29.0308 42.0208 29.0308 42.4754V43.2548C29.0308 43.7094 28.6628 44.0991 28.1865 44.0991ZM28.1865 40.159C27.7102 40.159 27.3422 39.7693 27.3422 39.3146V38.5353C27.3422 38.059 27.7319 37.691 28.1865 37.691C28.6412 37.691 29.0308 38.0806 29.0308 38.5353V39.3146C29.0308 39.7909 28.6628 40.159 28.1865 40.159ZM28.1865 36.2405C27.7102 36.2405 27.3422 35.8508 27.3422 35.3961V34.6168C27.3422 34.1405 27.7319 33.7725 28.1865 33.7725C28.6412 33.7725 29.0308 34.1621 29.0308 34.6168V35.3961C29.0308 35.8508 28.6628 36.2405 28.1865 36.2405Z" fill="#141414"/>
<path d="M23.7072 54.5129C23.5773 54.5129 23.4474 54.4913 23.3392 54.4263C22.9278 54.2098 22.733 53.7119 22.9495 53.2789L23.1443 52.8892C23.3392 52.4779 23.8588 52.2831 24.2917 52.4995C24.7031 52.716 24.8979 53.214 24.6814 53.647L24.4866 54.0366C24.335 54.3181 24.032 54.5129 23.7072 54.5129Z" fill="#141414"/>
<path d="M22.4498 32.3003C21.9736 32.3003 21.6055 31.9106 21.6055 31.456V31.023C21.6055 30.5467 21.9952 30.1787 22.4498 30.1787C22.9045 30.1787 23.2942 30.5684 23.2942 31.023V31.456C23.2942 31.9106 22.9261 32.3003 22.4498 32.3003Z" fill="#141414"/>
<path d="M22.4498 39.5095C21.9736 39.5095 21.6055 39.1198 21.6055 38.6652V37.9508C21.6055 37.4745 21.9952 37.1065 22.4498 37.1065C22.9045 37.1065 23.2942 37.4961 23.2942 37.9508V38.6652C23.2942 39.1415 22.9261 39.5095 22.4498 39.5095ZM22.4498 35.9157C21.9736 35.9157 21.6055 35.5261 21.6055 35.0714V34.357C21.6055 33.8807 21.9952 33.5127 22.4498 33.5127C22.9045 33.5127 23.2942 33.9024 23.2942 34.357V35.0714C23.2942 35.5261 22.9261 35.9157 22.4498 35.9157Z" fill="#141414"/>
<path d="M22.1048 43.0814C21.8234 43.0814 21.5636 42.9515 21.412 42.7134C21.1522 42.3237 21.2388 41.8041 21.6069 41.5443C21.6285 41.0897 21.9965 40.7217 22.4512 40.7217C22.9275 40.7217 23.2955 41.1114 23.2955 41.566V41.999C23.2955 42.2804 23.1656 42.5402 22.9275 42.6918L22.5811 42.9299C22.4295 43.0165 22.278 43.0814 22.1048 43.0814Z" fill="#141414"/>
<path d="M16.3456 47.0006C16.0642 47.0006 15.8044 46.8707 15.6528 46.6326C15.393 46.2429 15.4796 45.7233 15.8693 45.4419L16.4539 45.0522C16.8435 44.7924 17.3631 44.879 17.6446 45.2687C17.9043 45.6583 17.8177 46.1779 17.4281 46.4594L16.8435 46.849C16.6703 46.9573 16.5188 47.0006 16.3456 47.0006ZM19.2249 45.0305C18.9435 45.0305 18.6837 44.9006 18.5322 44.6625C18.2724 44.2728 18.359 43.7532 18.7487 43.4718L19.3332 43.0821C19.7229 42.8223 20.2425 42.9089 20.5239 43.2986C20.7837 43.6883 20.6971 44.2079 20.3074 44.4893L19.7229 44.879C19.5497 44.9872 19.3981 45.0305 19.2249 45.0305Z" fill="#141414"/>
<path d="M13.6812 48.8184C13.3997 48.8184 13.1399 48.6885 12.9884 48.4504C12.7286 48.0607 12.8152 47.5411 13.2049 47.2597L13.5513 47.0215C13.941 46.7618 14.4605 46.8484 14.742 47.238C15.0018 47.6277 14.9152 48.1473 14.5255 48.4287L14.1791 48.6669C14.0276 48.7535 13.8544 48.8184 13.6812 48.8184Z" fill="#141414"/>
</svg>
