<svg width="68" height="68" viewBox="0 0 68 68" fill="none" xmlns="http://www.w3.org/2000/svg">
<path d="M43.9968 37.303C43.932 37.303 43.8672 37.2814 43.8025 37.2598L43.306 37.0655C43.0253 36.9576 42.8958 36.6554 43.0038 36.3747C43.1117 36.0941 43.4139 35.9646 43.6946 36.0725C43.8025 35.7919 44.1047 35.6624 44.3853 35.7703C44.666 35.8782 44.7955 36.1805 44.6876 36.4611L44.4933 36.9576C44.4069 37.1519 44.2126 37.303 43.9968 37.303Z" fill="#141414"/>
<path d="M39.786 35.6838C39.7213 35.6838 39.6565 35.6622 39.5917 35.6406L38.3612 35.1657C38.0806 35.0577 37.9511 34.7555 38.059 34.4749C38.167 34.1942 38.4692 34.0647 38.7498 34.1726L39.9803 34.6476C40.2609 34.7555 40.3905 35.0577 40.2825 35.3384C40.2178 35.5542 40.0019 35.6838 39.786 35.6838Z" fill="#141414"/>
<path d="M34.8634 33.8059C34.7986 33.8059 34.7338 33.7843 34.6691 33.7627L34.1726 33.5684C33.8919 33.4605 33.7624 33.1583 33.8703 32.8776L34.0646 32.3811C34.1726 32.1005 34.4748 31.971 34.7554 32.0789C35.0361 32.1868 35.1656 32.4891 35.0576 32.7697C35.3383 32.8776 35.4678 33.1798 35.3599 33.4605C35.2735 33.6764 35.0792 33.8059 34.8634 33.8059Z" fill="#141414"/>
<path d="M35.9647 29.4022C35.8999 29.4022 35.8352 29.3806 35.7704 29.359C35.4898 29.2511 35.3602 28.9489 35.4682 28.6682L35.9431 27.4378C36.051 27.1571 36.3533 27.0276 36.6339 27.1355C36.9145 27.2435 37.0441 27.5457 36.9361 27.8263L36.4612 29.0568C36.3964 29.2727 36.1806 29.4022 35.9647 29.4022Z" fill="#141414"/>
<path d="M37.8649 24.4798C37.8002 24.4798 37.7354 24.4582 37.6706 24.4366C37.39 24.3286 37.2605 24.0264 37.3684 23.7458L37.5627 23.2493C37.6706 22.9686 37.9729 22.8391 38.2535 22.9471L38.75 23.1413C39.0306 23.2493 39.1602 23.5515 39.0522 23.8321C38.9443 24.1128 38.6421 24.2423 38.3614 24.1344C38.2751 24.3502 38.0808 24.4798 37.8649 24.4798Z" fill="#141414"/>
<path d="M43.4762 26.0558C43.4114 26.0558 43.3466 26.0342 43.2819 26.0127L42.0514 25.5377C41.7708 25.4298 41.6412 25.1276 41.7492 24.8469C41.8571 24.5663 42.1593 24.4368 42.44 24.5447L43.6705 25.0196C43.9511 25.1276 44.0806 25.4298 43.9727 25.7104C43.8863 25.9263 43.692 26.0558 43.4762 26.0558Z" fill="#141414"/>
<path d="M47.4926 28.1711C47.4279 28.1711 47.3631 28.1495 47.2983 28.1279C47.0177 28.02 46.8882 27.7178 46.9961 27.4371C46.7155 27.3292 46.5859 27.027 46.6939 26.7464C46.8018 26.4657 47.104 26.3362 47.3847 26.4441L47.8812 26.6384C48.1618 26.7464 48.2913 27.0486 48.1834 27.3292L47.9891 27.8257C47.9028 28.0416 47.7085 28.1711 47.4926 28.1711Z" fill="#141414"/>
<path d="M45.5926 33.0936C45.5278 33.0936 45.463 33.072 45.3983 33.0504C45.1176 32.9425 44.9881 32.6403 45.096 32.3596L45.571 31.1292C45.6789 30.8485 45.9811 30.719 46.2618 30.8269C46.5424 30.9349 46.6719 31.2371 46.564 31.5177L46.0891 32.7482C46.0027 32.9641 45.8084 33.0936 45.5926 33.0936Z" fill="#141414"/>
<path d="M65.0856 52.9971C64.8482 52.9971 64.6107 52.8244 64.5676 52.5653C64.5028 52.2847 64.6971 51.9825 64.9777 51.9393C64.913 51.6587 65.1072 51.3565 65.3879 51.3133C65.6685 51.2485 65.9707 51.4428 66.0139 51.7234L66.1218 52.2415C66.1866 52.5222 65.9923 52.8244 65.7117 52.8676L65.1936 52.9755C65.172 52.9971 65.1288 52.9971 65.0856 52.9971Z" fill="#141414"/>
<path d="M56.6469 54.7454C56.4095 54.7454 56.172 54.5727 56.1288 54.3136C56.0641 54.033 56.2584 53.7307 56.539 53.6876L57.5968 53.4717C57.8774 53.4069 58.1796 53.6012 58.2228 53.8819C58.2876 54.1625 58.0933 54.4647 57.8126 54.5079L56.7549 54.7238C56.7117 54.7454 56.6901 54.7454 56.6469 54.7454ZM60.878 53.8819C60.6406 53.8819 60.4031 53.7092 60.3599 53.4501C60.2952 53.1695 60.4895 52.8673 60.7701 52.8241L61.8279 52.6082C62.1085 52.5434 62.4107 52.7377 62.4539 53.0184C62.5187 53.299 62.3244 53.6012 62.0438 53.6444L60.986 53.8603C60.9428 53.8603 60.8996 53.8819 60.878 53.8819Z" fill="#141414"/>
<path d="M52.9544 55.5229C52.7169 55.5229 52.4795 55.3502 52.4363 55.0912L52.3284 54.5731C52.2636 54.2925 52.4579 53.9902 52.7385 53.9471C53.0192 53.8823 53.3214 54.0766 53.3645 54.3572C53.6452 54.2925 53.9474 54.4868 53.9906 54.7674C54.0553 55.048 53.8611 55.3502 53.5804 55.3934L53.0623 55.5014C53.0192 55.5014 52.976 55.5229 52.9544 55.5229Z" fill="#141414"/>
<path d="M52.1768 51.8308C51.9393 51.8308 51.7019 51.6582 51.6587 51.3991L51.4428 50.3413C51.3781 50.0607 51.5724 49.7585 51.853 49.7153C52.1336 49.6505 52.4358 49.8448 52.479 50.1255L52.6949 51.1832C52.7597 51.4639 52.5654 51.7661 52.2847 51.8093C52.2631 51.8093 52.22 51.8308 52.1768 51.8308ZM51.3133 47.5997C51.0758 47.5997 50.8384 47.427 50.7952 47.168L50.5793 46.1102C50.5146 45.8296 50.7089 45.5274 50.9895 45.4842C51.2701 45.4194 51.5724 45.6137 51.6155 45.8943L51.8314 46.9521C51.8962 47.2328 51.7019 47.535 51.4212 47.5781C51.3781 47.5997 51.3349 47.5997 51.3133 47.5997Z" fill="#141414"/>
<path d="M50.4283 43.3693C50.1908 43.3693 49.9534 43.1966 49.9102 42.9375L49.8022 42.4194C49.7807 42.2899 49.8023 42.1388 49.8886 42.0093C49.975 41.8797 50.0829 41.815 50.234 41.7718L50.7521 41.6639C51.0327 41.5991 51.335 41.7934 51.3781 42.074C51.4429 42.3547 51.2486 42.6569 50.968 42.7001C51.0327 42.9807 50.8384 43.2829 50.5578 43.3261C50.5146 43.3693 50.4715 43.3693 50.4283 43.3693Z" fill="#141414"/>
<path d="M54.0111 42.0735C53.7737 42.0735 53.5362 41.9008 53.493 41.6417C53.4283 41.3611 53.6226 41.0589 53.9032 41.0157L54.961 40.7998C55.2416 40.7351 55.5438 40.9293 55.587 41.21C55.6518 41.4906 55.4575 41.7928 55.1768 41.836L54.1191 42.0519C54.0975 42.0735 54.0543 42.0735 54.0111 42.0735ZM58.2422 41.21C58.0048 41.21 57.7673 41.0373 57.7241 40.7782C57.6594 40.4976 57.8537 40.1954 58.1343 40.1522L59.1921 39.9363C59.4727 39.8716 59.7749 40.0659 59.8181 40.3465C59.8829 40.6271 59.6886 40.9294 59.408 40.9725L58.3502 41.1884C58.307 41.21 58.2854 41.21 58.2422 41.21Z" fill="#141414"/>
<path d="M63.1004 40.7349C62.8629 40.7349 62.6255 40.5622 62.5823 40.3031C62.3017 40.3679 61.9994 40.1736 61.9563 39.893C61.8915 39.6123 62.0858 39.3101 62.3664 39.2669L62.8845 39.159C63.1651 39.0942 63.4674 39.2885 63.5105 39.5691L63.6185 40.0872C63.6832 40.3679 63.489 40.6701 63.2083 40.7133C63.1651 40.7349 63.1436 40.7349 63.1004 40.7349Z" fill="#141414"/>
<path d="M64.8492 49.1971C64.6117 49.1971 64.3742 49.0244 64.3311 48.7653L64.1152 47.7075C64.0504 47.4269 64.2447 47.1247 64.5253 47.0815C64.806 47.0167 65.1082 47.211 65.1514 47.4917L65.3672 48.5494C65.432 48.8301 65.2377 49.1323 64.9571 49.1755C64.9355 49.1971 64.8923 49.1971 64.8492 49.1971ZM63.9857 44.9659C63.7482 44.9659 63.5107 44.7933 63.4676 44.5342L63.2517 43.4764C63.1869 43.1958 63.3812 42.8936 63.6619 42.8504C63.9425 42.7856 64.2447 42.9799 64.2879 43.2606L64.5038 44.3183C64.5685 44.599 64.3742 44.9012 64.0936 44.9444C64.0504 44.9659 64.0073 44.9659 63.9857 44.9659Z" fill="#141414"/>
<path d="M64.2866 22.9038C64.265 22.9038 64.2434 22.9038 64.2218 22.9038L63.6822 22.839C63.3799 22.7959 63.1857 22.5368 63.2288 22.2346C63.272 21.9324 63.5311 21.7165 63.8333 21.7813C63.8764 21.479 64.1355 21.2632 64.4377 21.3279C64.7399 21.3711 64.9342 21.6302 64.891 21.9324L64.8263 22.4721C64.8047 22.6232 64.7399 22.7311 64.6104 22.8175C64.5241 22.8606 64.4161 22.9038 64.2866 22.9038Z" fill="#141414"/>
<path d="M60.684 22.4076C60.6624 22.4076 60.6409 22.4076 60.6193 22.4076L59.5831 22.2781C59.2809 22.2349 59.0866 21.9759 59.1297 21.6737C59.1729 21.3714 59.4536 21.1556 59.7342 21.2203L60.7704 21.3498C61.0726 21.393 61.2669 21.6521 61.2237 21.9543C61.1805 22.2133 60.9431 22.4076 60.684 22.4076ZM56.5609 21.8464C56.5393 21.8464 56.5177 21.8464 56.4961 21.8464L55.4599 21.7168C55.1577 21.6737 54.9634 21.4146 55.0066 21.1124C55.0497 20.8102 55.3088 20.5943 55.611 20.6591L56.6472 20.7886C56.9494 20.8318 57.1437 21.0908 57.1005 21.393C57.0574 21.6521 56.8199 21.8464 56.5609 21.8464ZM52.4377 21.2851C52.4161 21.2851 52.3945 21.2851 52.3729 21.2851L51.3367 21.1556C51.0345 21.1124 50.8402 20.8533 50.8834 20.5511C50.9266 20.2489 51.1856 20.0546 51.4878 20.0978L52.524 20.2273C52.8263 20.2705 53.0205 20.5295 52.9774 20.8318C52.9342 21.0908 52.6967 21.2851 52.4377 21.2851Z" fill="#141414"/>
<path d="M48.3123 20.745C48.2907 20.745 48.2692 20.745 48.2476 20.745L47.7079 20.6803C47.4057 20.6371 47.2114 20.3781 47.2546 20.0758L47.3193 19.5361C47.3625 19.2339 47.6215 19.0181 47.9238 19.0828C48.226 19.126 48.4203 19.385 48.3771 19.6873C48.6793 19.7304 48.8736 19.9895 48.8304 20.2917C48.8088 20.5507 48.593 20.745 48.3123 20.745Z" fill="#141414"/>
<path d="M48.2712 17.054C48.2496 17.054 48.228 17.054 48.2065 17.054C47.9042 17.0108 47.7099 16.7518 47.7531 16.4495L47.8826 15.4134C47.9258 15.1111 48.2065 14.8953 48.4871 14.96C48.7893 15.0032 48.9836 15.2622 48.9404 15.5645L48.8109 16.6007C48.7677 16.8597 48.5519 17.054 48.2712 17.054ZM48.8325 12.9308C48.8109 12.9308 48.7893 12.9308 48.7677 12.9308C48.4655 12.8876 48.2712 12.6286 48.3144 12.3264L48.4439 11.2902C48.4871 10.988 48.7461 10.7721 49.0484 10.8368C49.3506 10.88 49.5449 11.1391 49.5017 11.4413L49.3722 12.4775C49.329 12.7365 49.1131 12.9308 48.8325 12.9308ZM49.3938 8.80764C49.3722 8.80764 49.3506 8.80764 49.329 8.80764C49.0268 8.76447 48.8325 8.50542 48.8757 8.2032L49.0052 7.16701C49.0484 6.86479 49.3074 6.64891 49.6096 6.71368C49.9119 6.75685 50.1061 7.0159 50.063 7.31812L49.9334 8.35431C49.8903 8.61336 49.6744 8.80764 49.3938 8.80764Z" fill="#141414"/>
<path d="M49.9548 4.68402C49.9333 4.68402 49.9117 4.68402 49.8901 4.68402C49.5879 4.64084 49.3936 4.38179 49.4367 4.07957L49.5015 3.53989C49.5231 3.38878 49.5879 3.28084 49.7174 3.19449C49.8253 3.10814 49.9764 3.06497 50.106 3.08656L50.6456 3.15132C50.9479 3.19449 51.1421 3.45354 51.099 3.75576C51.0558 4.05798 50.7967 4.25227 50.4945 4.2091C50.4514 4.48973 50.2355 4.68402 49.9548 4.68402Z" fill="#141414"/>
<path d="M62.9275 5.91512C62.9059 5.91512 62.8844 5.91512 62.8628 5.91512L61.8266 5.78559C61.5244 5.74242 61.3301 5.48337 61.3732 5.18115C61.4164 4.87893 61.6755 4.66305 61.9777 4.72782L63.0139 4.85734C63.3161 4.90051 63.5104 5.15956 63.4672 5.46178C63.424 5.72083 63.1866 5.91512 62.9275 5.91512ZM58.8044 5.35385C58.7828 5.35385 58.7612 5.35385 58.7396 5.35385L57.7034 5.22432C57.4012 5.18115 57.2069 4.9221 57.2501 4.61988C57.2932 4.31766 57.5523 4.10178 57.8545 4.16655L58.8907 4.29607C59.1929 4.33924 59.3872 4.59829 59.344 4.90052C59.3009 5.15956 59.0634 5.35385 58.8044 5.35385ZM54.6812 4.79258C54.6596 4.79258 54.638 4.79258 54.6164 4.79258L53.5802 4.66305C53.278 4.61988 53.0837 4.36083 53.1269 4.05861C53.1701 3.75639 53.4291 3.54051 53.7313 3.60528L54.7675 3.7348C55.0698 3.77797 55.264 4.03702 55.2209 4.33925C55.1777 4.59829 54.9402 4.79258 54.6812 4.79258Z" fill="#141414"/>
<path d="M66.4683 6.92961C66.4467 6.92961 66.4251 6.92961 66.4035 6.92961C66.1013 6.88643 65.907 6.62739 65.9502 6.32516C65.648 6.28199 65.4537 6.02294 65.4969 5.72072C65.54 5.4185 65.7991 5.20262 66.1013 5.26739L66.641 5.33215C66.9432 5.37532 67.1375 5.63437 67.0943 5.93659L67.0296 6.47628C66.9648 6.73532 66.7273 6.92961 66.4683 6.92961Z" fill="#141414"/>
<path d="M64.7808 19.2775C64.7592 19.2775 64.7376 19.2775 64.716 19.2775C64.4138 19.2343 64.2195 18.9753 64.2627 18.6731L64.3922 17.6369C64.4354 17.3347 64.6944 17.1188 64.9967 17.1836C65.2989 17.2267 65.4932 17.4858 65.45 17.788L65.3205 18.8242C65.2773 19.0832 65.0614 19.2775 64.7808 19.2775ZM65.3421 15.1759C65.3205 15.1759 65.2989 15.1759 65.2773 15.1759C64.9751 15.1328 64.7808 14.8737 64.824 14.5715L64.9535 13.5353C64.9967 13.2331 65.2557 13.0172 65.5579 13.082C65.8602 13.1251 66.0544 13.3842 66.0113 13.6864L65.8818 14.7226C65.8386 14.9816 65.6011 15.1759 65.3421 15.1759ZM65.9033 11.0528C65.8817 11.0528 65.8602 11.0528 65.8386 11.0528C65.5364 11.0096 65.3421 10.7505 65.3852 10.4483L65.5148 9.41213C65.5579 9.1099 65.817 8.89403 66.1192 8.95879C66.4214 9.00197 66.6157 9.26101 66.5725 9.56324L66.443 10.5994C66.3998 10.8585 66.1624 11.0528 65.9033 11.0528Z" fill="#141414"/>
<path d="M29.035 34.1941H16.5791V21.7383H29.035V34.1941ZM18.7162 32.0354H26.8762V23.8754H18.7162V32.0354Z" fill="#141414"/>
<path d="M12.9737 34.1941H0.539429V21.7383H12.9953V34.1941H12.9737ZM2.67657 32.0354H10.8366V23.8754H2.67657V32.0354Z" fill="#141414"/>
<path d="M29.0349 50.2332H16.579V37.7773H29.0349V50.2332ZM18.7162 48.0961H26.8762V39.9361H18.7162V48.0961Z" fill="#141414"/>
<path d="M12.9737 50.2332H0.539429V37.7773H12.9953V50.2332H12.9737ZM2.67657 48.0961H10.8366V39.9361H2.67657V48.0961Z" fill="#141414"/>
<path d="M45.0746 67.4168H32.6187V54.9609H45.0746V67.4168ZM34.7559 65.2797H42.9159V57.1197H34.7559V65.2797Z" fill="#141414"/>
<path d="M29.0349 67.4168H16.579V54.9609H29.0349V67.4168ZM18.7162 65.2797H26.8762V57.1197H18.7162V65.2797Z" fill="#141414"/>
<path d="M12.9737 67.4168H0.539429V54.9609H12.9953V67.4168H12.9737ZM2.67657 65.2797H10.8366V57.1197H2.67657V65.2797Z" fill="#141414"/>
</svg>
