<svg width="68" height="58" viewBox="0 0 68 58" fill="none" xmlns="http://www.w3.org/2000/svg">
<path d="M61.0066 57.3887H6.99315C3.32276 57.3887 0.347351 54.4132 0.347351 50.7429V6.91533C0.347351 3.24494 3.32276 0.269531 6.99315 0.269531H61.0283C64.6987 0.269531 67.6741 3.24494 67.6741 6.91533V50.7429C67.6524 54.4132 64.6769 57.3887 61.0066 57.3887ZM6.99315 1.92012C4.23493 1.92012 1.99794 4.15711 1.99794 6.91533V50.7429C1.99794 53.5011 4.23493 55.7381 6.99315 55.7381H61.0283C63.7865 55.7381 66.0235 53.5011 66.0235 50.7429V6.91533C66.0235 4.15711 63.7865 1.92012 61.0283 1.92012H6.99315Z" fill="#141414"/>
<path d="M66.2388 9.08691H1.7572V10.7592H66.2388V9.08691Z" fill="#141414"/>
<path d="M43.2603 44.9439L42.3264 43.2716C41.6748 43.2064 41.0233 43.0978 40.3717 42.9241L38.9383 44.1837L35.8109 42.7286L35.8326 40.8174C35.2896 40.4265 34.7901 40.0138 34.3123 39.5577L32.4228 39.9269L30.4248 37.1036L31.4021 35.453C31.1415 34.8449 30.9026 34.2368 30.7288 33.6069L28.9262 32.9771L28.6221 29.5239L30.2944 28.59C30.3596 27.9384 30.4682 27.2869 30.6419 26.6353L29.3823 25.2019L30.8374 22.0745L32.7486 22.0962C33.1395 21.5533 33.5522 21.0537 34.0083 20.5759L33.6391 18.6864L36.4624 16.6884L38.113 17.6657C38.7211 17.4051 39.3293 17.1662 39.9591 16.9924L40.5889 15.1898L44.0421 14.8857L44.976 16.5581C45.6276 16.6232 46.2791 16.7318 46.9307 16.9055L48.3641 15.6459L51.4915 17.101L51.4698 19.0122C52.0127 19.4031 52.5123 19.8158 52.9901 20.2719L54.8796 19.9027L56.8776 22.726L55.9003 24.3766C56.1609 24.9848 56.3998 25.5929 56.5736 26.2227L58.3762 26.8525L58.6803 30.3057L57.0079 31.2396C56.9428 31.8912 56.8342 32.5427 56.6604 33.1943L57.9201 34.6277L56.465 37.7551L54.5538 37.7334C54.1628 38.2764 53.7502 38.7759 53.2941 39.2537L53.6633 41.1432L50.8399 43.1413L49.1894 42.1639C48.603 42.4246 47.9731 42.6635 47.3433 42.8372L46.7135 44.6398L43.2603 44.9439ZM39.9808 41.0997L40.4152 41.23C41.2187 41.4689 42.0658 41.5993 42.9128 41.6644L43.3689 41.6861L44.2159 43.2064L45.519 43.0978L46.0836 41.4689L46.518 41.3604C47.3433 41.1649 48.1469 40.8608 48.8853 40.4916L49.2979 40.2962L50.7748 41.1866L51.839 40.4482L51.5132 38.7542L51.839 38.4501C52.4471 37.8637 52.9901 37.2122 53.4461 36.5172L53.7068 36.148L55.4442 36.1697L55.9872 34.9969L54.8578 33.6938L54.9881 33.2594C55.227 32.4341 55.3574 31.6088 55.4225 30.7835L55.4442 30.3275L56.9645 29.4804L56.8559 28.1773L55.227 27.6127L55.1185 27.1783C54.923 26.353 54.6189 25.5711 54.2497 24.811L54.0543 24.3984L54.9447 22.9215L54.2063 21.8573L52.5123 22.1831L52.2082 21.8573C51.6218 21.2492 50.9703 20.7062 50.2753 20.2284L49.9061 19.9678L49.9278 18.2304L48.755 17.6874L47.4519 18.8168L47.0175 18.6864C46.214 18.4475 45.3669 18.3172 44.5199 18.2521L44.0638 18.2304L43.2168 16.7101L41.9137 16.8187L41.3491 18.4475L40.9147 18.5561C40.0894 18.7516 39.2858 19.0557 38.5474 19.4249L38.1347 19.6203L36.6362 18.7299L35.572 19.4683L35.8978 21.1623L35.572 21.4664C34.9639 22.0528 34.4209 22.7043 33.9431 23.3993L33.6825 23.7685L31.945 23.7468L31.4021 24.9196L32.5314 26.2227L32.4011 26.6571C32.1622 27.4606 32.0319 28.3077 31.9667 29.1547L31.945 29.6108L30.4248 30.4578L30.5333 31.7609L32.1622 32.3255L32.2708 32.7599C32.4663 33.5852 32.7703 34.3888 33.1395 35.1272L33.335 35.5398L32.4445 37.0384L33.183 38.1026L34.877 37.7768L35.1811 38.1026C35.7675 38.7107 36.419 39.2537 37.114 39.7315L37.4832 39.9921L37.4615 41.7296L38.6343 42.2725L39.9808 41.0997Z" fill="#141414"/>
<path d="M43.678 36.5609C43.374 36.5609 43.0916 36.5392 42.8093 36.5175C42.5921 36.4957 42.4184 36.2786 42.4401 36.0614C42.4618 35.8442 42.679 35.6704 42.8962 35.6922C43.1351 35.7139 43.3957 35.7356 43.6346 35.7356C43.8735 35.7356 44.0689 35.9311 44.0689 36.1482C44.0907 36.3871 43.9169 36.5609 43.678 36.5609ZM46.067 36.0831C45.915 36.0831 45.7413 35.9962 45.6761 35.8225C45.5892 35.6053 45.6978 35.3664 45.8933 35.2795C46.1322 35.1926 46.3494 35.0623 46.5665 34.932C46.762 34.8234 47.0226 34.8886 47.1312 35.0841C47.2398 35.2795 47.1747 35.5401 46.9792 35.6487C46.7186 35.8008 46.458 35.9311 46.1973 36.0397C46.1539 36.0831 46.1105 36.0831 46.067 36.0831ZM40.5723 35.7573C40.5072 35.7573 40.4203 35.7356 40.3551 35.6922C40.0945 35.5401 39.8556 35.3881 39.6384 35.2144C39.4647 35.0841 39.4212 34.8234 39.5515 34.628C39.6819 34.4542 39.9425 34.4108 40.1379 34.5411C40.3334 34.6931 40.5506 34.8234 40.7678 34.9537C40.9632 35.0623 41.0284 35.323 40.9198 35.5184C40.8546 35.6704 40.7026 35.7573 40.5723 35.7573ZM48.6081 34.1284C48.5212 34.1284 48.4343 34.1067 48.3474 34.0416C48.1737 33.9113 48.1303 33.6506 48.2606 33.4552C48.4126 33.2597 48.5646 33.0425 48.6732 32.8253C48.7818 32.6299 49.0424 32.5647 49.2379 32.6733C49.4334 32.7819 49.4985 33.0425 49.3899 33.238C49.2379 33.4986 49.0859 33.7375 48.9121 33.9547C48.847 34.0633 48.7384 34.1284 48.6081 34.1284ZM38.2919 33.4769C38.1399 33.4769 38.0096 33.4117 37.9227 33.2814C37.7706 33.0208 37.6403 32.7602 37.5317 32.4996C37.4449 32.2824 37.5535 32.0435 37.7489 31.9566C37.9661 31.8697 38.205 31.9566 38.2919 32.1738C38.4005 32.4127 38.5091 32.6299 38.6394 32.8471C38.748 33.0425 38.6828 33.3031 38.4874 33.4117C38.4222 33.4552 38.357 33.4769 38.2919 33.4769ZM49.8243 31.153C49.8026 31.153 49.7809 31.153 49.7591 31.153C49.542 31.1313 49.3682 30.9141 49.4116 30.697C49.4334 30.4581 49.4551 30.1974 49.4551 29.9368C49.4551 29.6979 49.6505 29.4807 49.8677 29.4807C50.1066 29.4807 50.2804 29.6328 50.2804 29.8717V29.9368C50.2804 30.2192 50.2587 30.5232 50.2152 30.8055C50.2152 31.001 50.0415 31.153 49.8243 31.153ZM37.4449 30.3712C37.206 30.3712 37.0322 30.1974 37.0322 29.9803H37.4449H37.0322C37.0322 29.6762 37.0539 29.3939 37.0757 29.1332C37.0974 28.9161 37.3146 28.7423 37.5317 28.764C37.7489 28.7857 37.9227 29.0029 37.901 29.2201C37.8792 29.459 37.8575 29.6979 37.8575 29.9368C37.8575 30.154 37.6621 30.3712 37.4449 30.3712ZM49.3899 27.8953C49.2379 27.8953 49.0859 27.8084 48.999 27.6347C48.8904 27.3958 48.7818 27.1786 48.6515 26.9614C48.5429 26.7659 48.6081 26.5053 48.8035 26.3967C48.999 26.2881 49.2596 26.3533 49.3682 26.5488C49.5202 26.7877 49.6505 27.0483 49.7591 27.3089C49.846 27.5261 49.7591 27.765 49.542 27.8519C49.4985 27.8953 49.4334 27.8953 49.3899 27.8953ZM38.2485 27.2655C38.1833 27.2655 38.0964 27.2437 38.053 27.2003C37.8575 27.0917 37.7924 26.8311 37.901 26.6356C38.053 26.375 38.205 26.1361 38.3788 25.9189C38.5091 25.7452 38.7697 25.7017 38.9652 25.8321C39.1389 25.9624 39.1823 26.223 39.052 26.4184C38.9 26.6139 38.7697 26.8311 38.6394 27.0483C38.5308 27.2003 38.4005 27.2655 38.2485 27.2655ZM47.3918 25.376C47.305 25.376 47.2181 25.3543 47.1312 25.2891C46.9358 25.1371 46.7186 25.0068 46.5014 24.8765C46.3059 24.7679 46.2408 24.5072 46.3494 24.3118C46.458 24.1163 46.7186 24.0512 46.914 24.1597C47.1747 24.3118 47.4136 24.4638 47.6307 24.6375C47.8045 24.7679 47.8479 25.0285 47.7176 25.2239C47.6525 25.3108 47.5222 25.376 47.3918 25.376ZM40.5072 24.985C40.3551 24.985 40.2248 24.9199 40.1597 24.7896C40.0511 24.5941 40.1162 24.3335 40.3117 24.2249C40.5723 24.0729 40.8329 23.9426 41.0935 23.834C41.3107 23.7471 41.5496 23.834 41.6365 24.0512C41.7234 24.2683 41.6365 24.5072 41.4193 24.5941C41.1804 24.7027 40.9632 24.8113 40.7461 24.9416C40.6592 24.9633 40.5723 24.985 40.5072 24.985ZM44.4164 24.1597C44.3947 24.1597 44.373 24.1597 44.373 24.1597C44.1341 24.138 43.8952 24.1163 43.6563 24.1163C43.4174 24.1163 43.2219 23.9208 43.2219 23.7037C43.2219 23.4648 43.374 23.291 43.6129 23.291H43.6563C43.9386 23.291 44.1993 23.3127 44.4599 23.3345C44.6771 23.3562 44.8508 23.5734 44.8291 23.7905C44.8074 24.0077 44.6336 24.1597 44.4164 24.1597Z" fill="#141414"/>
<path d="M19.9348 51.4815L19.2398 50.2653C18.8488 50.2219 18.4362 50.1567 18.0453 50.0698L16.9811 50.982L14.4617 49.8092L14.4835 48.3975C14.1577 48.1586 13.8536 47.898 13.5496 47.6157L12.1596 47.8763L10.5524 45.5959L11.2692 44.3796C11.1171 44.0104 10.9651 43.6412 10.8565 43.2503L9.53169 42.7942L9.29279 40.0143L10.509 39.3193C10.5524 38.9284 10.6176 38.5157 10.7262 38.1248L9.79231 37.0606L10.9651 34.5413L12.3768 34.563C12.6157 34.2372 12.8763 33.9331 13.1586 33.6291L12.898 32.2391L15.1784 30.632L16.3947 31.3487C16.7639 31.1966 17.1331 31.0446 17.524 30.936L17.9801 29.6112L20.76 29.3506L21.455 30.5885C21.846 30.632 22.2586 30.6971 22.6495 30.784L23.7137 29.8501L26.2331 31.0229L26.2113 32.4346C26.5371 32.6735 26.8412 32.9341 27.1452 33.2164L28.5352 32.9558L30.1424 35.2362L29.4257 36.4525C29.5777 36.8217 29.7297 37.1909 29.8383 37.5818L31.1631 38.0379L31.402 40.8178L30.1858 41.5128C30.1424 41.9038 30.0772 42.3164 29.9686 42.7073L30.9025 43.7715L29.7297 46.2909L28.318 46.2691C28.0791 46.5949 27.8185 46.899 27.5362 47.203L27.7968 48.593L25.5164 50.2002L24.3001 49.4834C23.9309 49.6355 23.5617 49.7875 23.1708 49.8961L22.7147 51.2209L19.9348 51.4815ZM17.6543 48.2021L18.0887 48.3324C18.6534 48.5061 19.2398 48.593 19.8262 48.6364L20.2822 48.6582L20.8686 49.7223L21.4985 49.6572L21.8894 48.5061L22.3238 48.3975C22.9102 48.2455 23.4531 48.05 23.9744 47.7894L24.387 47.594L25.4295 48.2238L25.9507 47.8546L25.7118 46.6601L26.0376 46.356C26.472 45.9434 26.8412 45.4873 27.167 45.0095L27.4276 44.6403L28.6438 44.662L28.9044 44.0973L28.1008 43.1851L28.2311 42.7508C28.4049 42.1861 28.4918 41.5997 28.5352 41.0133L28.5569 40.5572L29.6211 39.9708L29.556 39.341L28.4049 38.9501L28.2963 38.5157C28.1443 37.951 27.9488 37.3864 27.6882 36.8651L27.4927 36.4525L28.1226 35.41L27.7533 34.8888L26.5588 35.1277L26.2548 34.8019C25.8421 34.3892 25.386 33.9983 24.9082 33.6725L24.539 33.4119L24.5608 32.1957L23.9961 31.9351L23.0839 32.7386L22.6495 32.6083C22.0849 32.4563 21.4985 32.3477 20.9121 32.3043L20.456 32.2826L19.8696 31.2184L19.2398 31.2835L18.8488 32.4346L18.4145 32.5432C17.8281 32.6952 17.2851 32.8907 16.7639 33.1513L16.3512 33.3468L15.3088 32.7169L14.7875 33.0861L15.0264 34.2806L14.7006 34.5847C14.2663 34.9973 13.8971 35.4534 13.5713 35.9312L13.3107 36.3004L12.0944 36.2787L11.8338 36.8434L12.6374 37.7556L12.5071 38.1899C12.3333 38.7546 12.2465 39.341 12.203 39.9274L12.1813 40.3835L11.1171 40.9699L11.1823 41.5997L12.3333 41.9906L12.4419 42.425C12.594 42.9897 12.7894 43.5544 13.0501 44.0756L13.2455 44.4882L12.6157 45.5307L12.9849 46.052L14.1794 45.8131L14.4835 46.1388C14.8961 46.5732 15.3522 46.9424 15.83 47.2682L16.1992 47.5288L16.1775 48.745L16.7422 49.0056L17.6543 48.2021Z" fill="#141414"/>
<path d="M20.3718 45.313C20.046 45.313 19.7202 45.2913 19.4162 45.2262C19.199 45.1827 19.047 44.9656 19.0904 44.7484C19.1338 44.5312 19.351 44.3792 19.5682 44.4226C19.8288 44.466 20.0894 44.4878 20.3501 44.4878C20.589 44.4878 20.7627 44.6832 20.7627 44.9004C20.7627 45.1176 20.589 45.313 20.3718 45.313ZM22.8477 44.5746C22.7174 44.5746 22.587 44.5095 22.5002 44.4009C22.3699 44.2054 22.4133 43.9448 22.6088 43.8145C22.8259 43.6625 23.0431 43.4887 23.2169 43.315C23.3689 43.1412 23.6512 43.1629 23.8033 43.315C23.977 43.467 23.977 43.7493 23.8033 43.9014C23.5861 44.1185 23.3255 44.3357 23.0648 44.5095C22.9997 44.5529 22.9345 44.5746 22.8477 44.5746ZM17.2009 44.0317C17.0923 44.0317 16.9837 43.9882 16.9186 43.9014C16.7014 43.6842 16.4842 43.4236 16.3105 43.1629C16.1801 42.9675 16.2236 42.7069 16.419 42.5765C16.6145 42.4462 16.8751 42.4897 17.0054 42.6851C17.1575 42.9023 17.3312 43.1195 17.505 43.2932C17.657 43.4453 17.6787 43.7276 17.505 43.8796C17.4181 43.9882 17.3095 44.0317 17.2009 44.0317ZM24.7372 41.7295C24.7154 41.7295 24.672 41.7295 24.6503 41.7295C24.4331 41.6861 24.2811 41.4689 24.3245 41.2517C24.3679 40.9911 24.4114 40.7305 24.4114 40.4699C24.4114 40.231 24.6068 40.0355 24.824 40.0355C25.0412 40.0355 25.2367 40.1875 25.2367 40.4264V40.4699C25.2367 40.7956 25.215 41.0997 25.1498 41.4255C25.1064 41.5775 24.9326 41.7295 24.7372 41.7295ZM15.8761 40.8608C15.6372 40.8608 15.4634 40.687 15.4634 40.4481V40.4264C15.4634 40.1224 15.4852 39.7966 15.5503 39.5143C15.5938 39.2971 15.8109 39.145 16.0281 39.1885C16.2453 39.2319 16.3973 39.4491 16.3539 39.6663C16.3105 39.9269 16.2887 40.1875 16.2887 40.4264C16.2887 40.6653 16.115 40.8608 15.8761 40.8608ZM24.0422 38.3197C23.9119 38.3197 23.7815 38.2546 23.6947 38.146C23.5426 37.9288 23.3689 37.7116 23.1734 37.5379C22.9997 37.3859 22.9997 37.1035 23.1734 36.9515C23.3255 36.7777 23.6078 36.7777 23.7598 36.9515C23.977 37.1687 24.1942 37.4293 24.3679 37.6899C24.4983 37.8854 24.4548 38.146 24.2594 38.2763C24.2159 38.298 24.129 38.3197 24.0422 38.3197ZM17.1792 37.7116C17.0706 37.7116 16.962 37.6682 16.8968 37.603C16.7231 37.451 16.7231 37.1687 16.8968 37.0167C17.114 36.7777 17.3747 36.5823 17.6353 36.4085C17.8307 36.2782 18.0914 36.3217 18.2217 36.5171C18.352 36.7126 18.3085 36.9732 18.1131 37.1035C17.8959 37.2556 17.7004 37.4293 17.505 37.603C17.3747 37.6682 17.2661 37.7116 17.1792 37.7116ZM21.1971 36.452C21.1754 36.452 21.1536 36.452 21.1102 36.452C20.8713 36.4085 20.6107 36.3868 20.3501 36.3868C20.1112 36.3868 19.9157 36.1914 19.9157 35.9742C19.9157 35.7353 20.0894 35.5615 20.3066 35.5615H20.3501C20.6541 35.5615 20.9582 35.5832 21.2622 35.6484C21.4794 35.6918 21.6314 35.909 21.588 36.1262C21.5663 36.3217 21.3925 36.452 21.1971 36.452Z" fill="#141414"/>
<path d="M60.3993 8.30563C58.9442 8.30563 57.7714 7.13284 57.7714 5.67772C57.7714 4.22259 58.9442 3.0498 60.3993 3.0498C61.8544 3.0498 63.0272 4.22259 63.0272 5.67772C63.0272 7.13284 61.8544 8.30563 60.3993 8.30563ZM60.3993 4.7004C59.8563 4.7004 59.422 5.13476 59.422 5.67772C59.422 6.22068 59.8563 6.65504 60.3993 6.65504C60.9422 6.65504 61.3766 6.22068 61.3766 5.67772C61.3766 5.13476 60.9422 4.7004 60.3993 4.7004Z" fill="#141414"/>
<path d="M53.6034 8.30563C52.1483 8.30563 50.9755 7.13284 50.9755 5.67772C50.9755 4.22259 52.1483 3.0498 53.6034 3.0498C55.0585 3.0498 56.2313 4.22259 56.2313 5.67772C56.2313 7.13284 55.0585 8.30563 53.6034 8.30563ZM53.6034 4.7004C53.0604 4.7004 52.6261 5.13476 52.6261 5.67772C52.6261 6.22068 53.0604 6.65504 53.6034 6.65504C54.1463 6.65504 54.5807 6.22068 54.5807 5.67772C54.5807 5.13476 54.1463 4.7004 53.6034 4.7004Z" fill="#141414"/>
<path d="M46.8034 8.30563C45.3483 8.30563 44.1755 7.13284 44.1755 5.67772C44.1755 4.22259 45.3483 3.0498 46.8034 3.0498C48.2585 3.0498 49.4313 4.22259 49.4313 5.67772C49.4313 7.13284 48.2585 8.30563 46.8034 8.30563ZM46.8034 4.7004C46.2604 4.7004 45.8261 5.13476 45.8261 5.67772C45.8261 6.22068 46.2604 6.65504 46.8034 6.65504C47.3463 6.65504 47.7807 6.22068 47.7807 5.67772C47.7807 5.13476 47.3463 4.7004 46.8034 4.7004Z" fill="#141414"/>
<path d="M21.0026 17.7306H20.1773C19.9384 17.7306 19.7647 17.5351 19.7647 17.3179C19.7647 17.1007 19.9601 16.9053 20.1773 16.9053H21.0026C21.2415 16.9053 21.4153 17.1007 21.4153 17.3179C21.4153 17.5351 21.2415 17.7306 21.0026 17.7306ZM17.6797 17.7306H16.8544C16.6155 17.7306 16.4418 17.5351 16.4418 17.3179C16.4418 17.1007 16.6372 16.9053 16.8544 16.9053H17.6797C17.9186 16.9053 18.0924 17.1007 18.0924 17.3179C18.0924 17.5351 17.9186 17.7306 17.6797 17.7306ZM14.3568 17.7306H13.5315C13.2926 17.7306 13.1189 17.5351 13.1189 17.3179C13.1189 17.1007 13.3143 16.9053 13.5315 16.9053H14.3568C14.5957 16.9053 14.7695 17.1007 14.7695 17.3179C14.7695 17.5351 14.5957 17.7306 14.3568 17.7306ZM11.0339 17.7306H10.2086C9.96973 17.7306 9.79598 17.5351 9.79598 17.3179C9.79598 17.1007 9.99145 16.9053 10.2086 16.9053H11.0339C11.2728 16.9053 11.4466 17.1007 11.4466 17.3179C11.4466 17.5351 11.2511 17.7306 11.0339 17.7306ZM7.71103 17.7306H6.88573C6.64683 17.7306 6.47308 17.5351 6.47308 17.3179C6.47308 17.1007 6.66855 16.9053 6.88573 16.9053H7.71103C7.94993 16.9053 8.12367 17.1007 8.12367 17.3179C8.12367 17.5351 7.92821 17.7306 7.71103 17.7306Z" fill="#141414"/>
</svg>
