<svg width="125" height="141" viewBox="0 0 125 141" fill="none" xmlns="http://www.w3.org/2000/svg">
<g clip-path="url(#clip0_654_394)">
<path d="M118.457 75.3503H121.026C121.466 76.3347 121.884 77.273 122.304 78.2112C123.081 79.9429 123.818 81.696 124.656 83.3997C125.137 84.3759 125.099 85.2187 124.626 86.1866C123.514 88.4632 122.488 90.7825 121.441 93.0903C121.276 93.4541 121.184 93.8508 121.041 94.2871H118.452V94.241C117.341 94.2426 116.228 94.2443 115.117 94.2459C115.069 94.241 115.026 94.2541 114.992 94.2887C114.69 94.2772 114.389 94.2574 114.09 94.2574C85.0919 94.2574 56.0925 94.2574 27.0948 94.2574C26.8216 94.2574 26.5483 94.2755 26.275 94.2854C26.0611 94.2624 25.8454 94.2196 25.6314 94.2196C20.7935 94.2163 15.954 94.2163 11.1161 94.2196C10.9005 94.2196 10.6832 94.2574 10.4675 94.2772C10.3605 94.2574 10.2519 94.2393 10.1449 94.2196L6.82307 94.2476V94.2838H4.2963C3.7926 93.2237 3.29053 92.1866 2.80658 91.1397C2.2502 89.9381 1.71357 88.7282 1.15883 87.5249C0.821383 86.7924 0.457594 86.073 0.125082 85.3388C-0.0559894 84.9405 -0.0296518 84.5306 0.158004 84.1273C1.46007 81.3388 2.7572 78.547 4.05762 75.7585C4.10206 75.6631 4.15638 75.5692 4.26667 75.3585H6.83294C8.04283 75.3536 9.25436 75.3487 10.4642 75.3437C10.5745 75.3487 10.6832 75.3552 10.7935 75.3552C22.1763 75.3552 33.5607 75.3552 44.9435 75.3552C45.1344 75.3552 45.3254 75.3322 45.5163 75.3207C45.8439 75.3355 46.1715 75.3618 46.5007 75.3618C69.0243 75.3635 91.5479 75.3635 114.072 75.3618C114.373 75.3618 114.674 75.3487 114.975 75.3404L115.151 75.3569C116.254 75.3536 117.357 75.352 118.458 75.3487L118.457 75.3503ZM47.5805 90.0023C48.3772 86.8895 49.1674 83.8014 49.9641 80.6919H48.3575C47.8702 82.6788 47.3912 84.6277 46.9122 86.5784L46.7213 86.5817C46.2192 84.6162 45.7155 82.6508 45.2118 80.682H43.5608C43.0834 82.6425 42.6044 84.6096 42.1237 86.5767C42.0579 86.58 41.9904 86.5833 41.9245 86.5866C41.4274 84.6146 40.9303 82.6425 40.4365 80.687H38.815C39.6611 83.8211 40.4974 86.9208 41.3237 89.9792H42.7871C43.2875 87.8706 43.7731 85.8179 44.2604 83.7652C44.3443 83.7668 44.4283 83.7701 44.5122 83.7718C45.0274 85.8541 45.5427 87.938 46.053 89.999H47.5822L47.5805 90.0023ZM56.4102 80.71H54.9123V89.9924H56.3872V83.6911C56.4333 83.6812 56.4794 83.6713 56.5255 83.6615C57.8325 85.7915 59.1395 87.9232 60.3987 89.9759H61.7782V80.6968H60.3263V86.9273C60.2901 86.9356 60.2539 86.9438 60.2177 86.952C58.9419 84.8598 57.6646 82.7676 56.4102 80.71ZM81.2515 90.0105V86.1076H83.0096C83.6186 87.4162 84.2228 88.7166 84.8137 89.9874H86.3693C86.3396 89.8294 86.3413 89.7142 86.2968 89.6237C85.7684 88.5718 85.2269 87.5265 84.7034 86.4714C84.6079 86.2771 84.5767 86.0516 84.5075 85.8146C85.7059 85.431 86.1701 84.5981 86.2162 83.51C86.2672 82.2574 86.1026 81.2532 84.496 80.8335C82.896 80.4154 81.2598 80.7413 79.6499 80.6458V90.0105H81.2515ZM77.9149 88.6788H73.235V86.0203H76.4169V84.5833H73.2301V81.9512H77.905V80.7001H71.7585V89.994H77.9149V88.6788ZM63.3436 81.9726H65.9444V89.9825H67.4424V81.9199H70.1897V80.6903H63.342V81.9726H63.3436ZM51.3172 89.9907H52.7213V80.6952H51.3172V89.9907Z" fill="#CCDEF4"/>
<path d="M114.992 94.2887C115.026 94.2541 115.069 94.2409 115.117 94.2459C116.23 94.2442 117.341 94.2426 118.453 94.2409V94.287C118.453 100.129 118.453 105.969 118.453 111.828C118.274 111.951 118.129 112.073 117.966 112.159C115.973 113.189 113.968 114.198 111.981 115.242C107.938 117.364 103.902 119.5 99.8641 121.634C98.1488 122.541 96.4385 123.461 94.7216 124.365C91.4805 126.072 88.236 127.77 84.9948 129.479C82.0697 131.02 79.1479 132.569 76.2244 134.113C72.2853 136.192 68.3379 138.258 64.412 140.363C63.7881 140.697 63.3025 140.689 62.6753 140.363C60.0728 139.017 57.4374 137.738 54.8234 136.417C51.7946 134.888 48.7757 133.341 45.7518 131.802C42.8266 130.312 39.9015 128.819 36.9764 127.329C33.8801 125.752 30.7805 124.18 27.6842 122.605C24.685 121.079 21.6874 119.548 18.6882 118.021C15.8602 116.58 13.0289 115.148 10.2059 113.696C9.09145 113.123 7.99844 112.508 6.82312 111.872V94.2475C7.9293 94.2376 9.03548 94.2294 10.1433 94.2195C10.2503 94.2393 10.3589 94.2574 10.4659 94.2772C10.4594 99.3932 10.4528 104.511 10.4462 109.627C10.1499 110.076 10.5466 110.042 10.7886 110.118C14.2207 111.864 17.6495 113.614 21.0849 115.354C23.1294 116.389 25.1887 117.395 27.2282 118.439C30.5862 120.154 33.9278 121.902 37.2875 123.612C40.183 125.087 43.1032 126.516 45.9987 127.991C49.3551 129.7 52.6917 131.448 56.0481 133.158C58.5337 134.426 61.0342 135.66 63.6449 136.967C64.7626 136.376 65.9659 135.738 67.1708 135.1C70.1437 133.528 73.1149 131.956 76.0878 130.386C78.9388 128.88 81.7915 127.375 84.6442 125.869C87.5924 124.312 90.5405 122.751 93.4887 121.194C96.3644 119.675 99.2385 118.151 102.118 116.639C105.749 114.733 109.388 112.842 113.02 110.936C113.67 110.595 114.302 110.216 114.99 109.828V94.292L114.992 94.2887Z" fill="#CCDEF4"/>
<path d="M49.6695 0.0197754C58.2605 0.0197754 66.8515 0.0197754 75.4425 0.0197754C75.4622 1.21814 75.482 2.41814 75.5001 3.61651C75.4919 3.91774 75.4787 4.21898 75.4787 4.52022C75.4787 9.50955 75.4754 14.4989 75.4836 19.4899C75.4836 19.9162 75.482 20.3179 75.0573 20.5532C74.1454 21.0602 73.2252 21.5508 72.3132 22.0611C70.8877 22.8578 69.4622 23.6594 68.0449 24.471C66.2128 25.5195 64.3889 26.5796 62.6062 27.6101C58.2736 25.1261 53.9905 22.6718 49.7337 20.2323V19.2248C49.7337 14.4001 49.7353 9.57375 49.7304 4.74902C49.7304 4.36878 49.6761 3.98853 49.6464 3.60828C49.6547 2.41321 49.6612 1.21649 49.6695 0.0214215V0.0197754ZM64.1436 5.51282C59.5296 4.87577 56.56 6.54492 55.0786 10.3688C53.7189 13.8783 54.8547 17.2841 57.8341 19.4108C60.9946 21.666 65.1264 21.1491 67.235 19.2742C66.8136 18.5318 66.3642 17.801 65.9774 17.0388C65.7255 16.5433 65.4474 16.5088 65.0161 16.7903C63.9082 17.5145 62.6375 17.6429 61.4193 17.3861C59.0802 16.8956 57.2728 14.1795 58.0712 11.7713C58.5568 10.3079 59.5099 9.22313 61.0342 8.77539C61.5675 8.61901 62.1436 8.60749 62.6638 8.53506C63.1741 7.49143 63.6547 6.51035 64.1436 5.50952V5.51282ZM66.2408 15.3088C66.886 16.3837 67.4984 17.4043 68.1634 18.5137C68.8795 17.3812 69.5313 16.3491 70.198 15.2956C69.5379 14.196 68.8811 13.103 68.2441 12.0429H64.3132C63.658 13.1277 63.0144 14.1927 62.3412 15.3088H66.2391H66.2408ZM66.1535 9.96223C66.1272 9.87992 66.1025 9.79762 66.0762 9.71531C66.6523 9.33506 67.2186 8.93835 67.8062 8.5795C68.7593 7.99843 68.8416 6.8692 67.9593 6.22722C66.9947 5.52598 65.505 5.88483 64.9601 6.93834C65.1609 7.12435 65.3601 7.30707 65.5642 7.49637C65.7585 7.31859 65.9972 7.1013 66.17 6.94492H67.3074C67.5363 7.53094 67.2218 7.73011 66.7972 7.96386C65.7618 8.5367 64.8827 9.25111 64.9716 10.7128C66.1601 11.0289 67.3453 10.7458 68.5684 10.861C68.5502 10.5351 68.5387 10.3046 68.519 9.96058H66.1519L66.1535 9.96223Z" fill="#CCDEF4"/>
<path d="M49.6694 0.0197532C49.6612 1.21482 49.6546 2.41154 49.6464 3.60661H10.4511C10.4511 4.07739 10.4511 4.42801 10.4511 4.77863C10.4511 27.9722 10.4511 51.1658 10.4511 74.3593C10.4511 74.6886 10.4577 75.0178 10.461 75.3454C9.25107 75.3503 8.03954 75.3552 6.82965 75.3602C6.8313 54.4102 6.83294 33.4587 6.83459 12.5087C6.83459 8.67002 6.83459 4.83131 6.83459 0.990953V0.0559675C7.15393 0.032922 7.39262 0.0016461 7.6313 0.0016461C21.452 0 35.2726 0 49.0933 0C49.2843 0 49.4769 0.0115227 49.6678 0.0181071L49.6694 0.0197532Z" fill="#CCDEF4"/>
<path d="M75.5001 3.61648C75.4804 2.41812 75.4606 1.21812 75.4425 0.0197532C75.7437 0.0131688 76.045 0.0016461 76.3462 0.0016461C90.0286 0 103.713 0 117.395 0C117.695 0 117.994 0 118.444 0V35.1245C118.444 48.1765 118.444 61.2284 118.444 74.2803C118.444 74.6375 118.452 74.9931 118.455 75.3503C117.352 75.3536 116.249 75.3552 115.148 75.3585C115.092 75.3108 115.036 75.2631 114.98 75.2153C114.98 51.8423 114.98 28.471 114.98 5.09798V3.43048C114.746 3.51443 114.618 3.56052 114.49 3.60825C101.494 3.61155 88.4961 3.61319 75.5001 3.61648Z" fill="#CCDEF4"/>
<path d="M114.972 75.3421C114.972 75.2993 114.975 75.2565 114.98 75.2153C115.036 75.2631 115.092 75.3108 115.148 75.3585L114.972 75.3421Z" fill="#CCDEF4"/>
<path d="M10.4445 109.627C10.6124 109.681 10.7803 109.737 10.9482 109.792C10.8939 109.9 10.8396 110.009 10.7869 110.116C10.5449 110.042 10.1482 110.076 10.4445 109.625V109.627Z" fill="#CCDEF4"/>
<path d="M114.982 5.09798C114.929 5.09798 114.875 5.09798 114.822 5.09798C114.712 4.60251 114.602 4.10538 114.491 3.60991C114.62 3.56382 114.748 3.51773 114.982 3.43213V5.09963V5.09798Z" fill="#CCDEF4"/>
<path d="M61.6366 58.9633C62.0415 59.6563 61.9823 60.4201 61.9823 61.1773C61.979 63.5576 61.9823 65.9379 61.9823 68.3181V69.2613C60.9485 69.3255 59.9708 69.3502 59.0144 69.2432C58.7658 69.2153 58.5732 68.6836 58.3872 68.4268C57.8028 68.6951 57.1823 69.0753 56.5057 69.2696C55.0292 69.6943 53.5954 69.5642 52.2983 68.6441C52.1913 68.5683 52.0645 68.5157 51.9477 68.4531C50.8349 67.1428 50.6028 65.6465 51.3353 64.1354C51.8818 63.0094 52.8382 62.1996 54.1765 62.081C55.309 61.9806 56.4464 61.9461 57.5839 61.8901C57.8786 61.8753 58.1732 61.8885 58.4514 61.8885C58.7181 60.3987 58.3362 59.9773 57.6662 59.76C56.2703 59.309 55.1724 59.6119 54.6357 60.8037C53.5592 60.6819 52.4481 60.5568 51.2909 60.4251C51.3106 59.5592 51.63 58.9485 52.0892 58.3806C52.751 57.5609 53.6086 57.072 54.6209 56.8432C56.7181 56.3691 58.7148 56.5995 60.5255 57.8078C60.9601 58.0975 61.2728 58.5732 61.6399 58.9633H61.6366ZM58.5222 64.0234C57.6053 64.0234 56.7625 63.9938 55.9246 64.0317C55.1065 64.0695 54.4662 64.6605 54.4036 65.3486C54.3378 66.0794 54.6999 66.5914 55.5691 66.8136C55.951 66.9107 56.3823 66.8547 56.7872 66.8136C57.9296 66.6984 58.5222 66.0235 58.5238 64.8794C58.5238 64.6342 58.5238 64.3889 58.5238 64.0234H58.5222Z" fill="#CCDEF4"/>
<path d="M49.7155 64.0219C49.2678 64.091 48.9336 64.1832 48.5995 64.1848C46.3525 64.198 44.1073 64.1914 41.8587 64.1914C42.0348 65.7289 42.7706 66.4202 44.0628 66.5141C45.3698 66.6079 46.3279 66.0449 47.1246 65.1428C47.8521 65.8836 48.5303 66.5717 49.2201 67.2745C47.4456 69.7075 43.2431 70.2375 40.6422 68.3955C39.4801 67.5725 38.7146 66.356 38.4546 64.8729C38.1846 63.3371 38.1056 61.8161 38.6109 60.3247C39.5673 57.5033 42.0513 56.1337 44.9567 56.7477C45.8291 56.9321 46.6373 57.1461 47.3616 57.6992C48.667 58.6951 49.3534 59.9905 49.4719 61.6153C49.5279 62.3692 49.6217 63.1181 49.7155 64.0219ZM41.7517 61.8474H45.969C46.0661 60.4679 45.3665 59.6465 44.0727 59.5823C42.6307 59.5115 41.8077 60.3017 41.7517 61.8474Z" fill="#CCDEF4"/>
<path d="M28.2784 66.3609H36.5583V69.2268H24.9088V52.3707H28.2784V66.3609Z" fill="#CCDEF4"/>
<path d="M61.2333 110.132C61.1543 111.286 61.0769 112.45 60.9963 113.614C60.8745 115.379 59.7123 116.338 58.2193 116.827C56.4547 117.403 54.6654 117.313 53.1822 116.011C52.4892 115.402 52.0152 114.541 51.9592 113.614C51.8357 111.52 51.7534 109.418 51.8012 107.323C51.8308 106.017 52.2687 104.776 53.4176 103.961C54.3362 103.309 55.3847 102.97 56.5057 103.061C57.2382 103.12 57.9889 103.283 58.6753 103.546C59.9889 104.05 60.8893 104.955 60.9913 106.455C61.0753 107.675 61.1527 108.895 61.2333 110.132ZM58.3576 109.955C58.3576 108.997 58.4119 108.034 58.3329 107.081C58.2983 106.666 58.0942 106.137 57.7847 105.902C57.1675 105.434 56.3938 105.318 55.6415 105.647C54.8893 105.978 54.588 106.633 54.5798 107.406C54.5584 109.214 54.5551 111.021 54.5798 112.829C54.593 113.739 55.2415 114.603 55.9329 114.72C57.5576 114.993 58.3724 113.941 58.3592 112.664C58.351 111.76 58.3576 110.857 58.3576 109.953V109.955Z" fill="#CCDEF4"/>
<path d="M40.9567 114.634C41.8933 113.634 42.8744 112.646 43.7847 111.597C44.8053 110.422 45.7962 109.219 46.7312 107.978C47.2909 107.235 47.1905 106.136 46.1666 105.592C45.0522 105.001 43.6876 105.741 43.546 106.992C43.5197 107.225 43.5114 107.462 43.49 107.754H40.8332C40.6126 106.59 40.8019 105.543 41.5789 104.623C42.7773 103.204 44.3229 102.908 46.081 103.164C47.197 103.327 48.1485 103.699 48.9419 104.549C50.0481 105.732 50.058 107.003 49.4818 108.399C48.904 109.8 47.9082 110.891 46.8859 111.961C46.132 112.751 45.3518 113.517 44.4991 114.378C45.4472 114.732 46.3608 114.514 47.2448 114.554C48.1715 114.595 49.0999 114.564 50.0777 114.564V116.681C49.5016 116.918 43.3616 117.008 40.955 116.821V114.634H40.9567Z" fill="#CCDEF4"/>
<path d="M62.9864 116.817V114.671C64.0465 113.54 65.1099 112.448 66.1223 111.313C66.9815 110.348 67.8227 109.362 68.5963 108.328C69.0128 107.772 69.3601 107.127 69.0013 106.358C68.6638 105.632 68.114 105.392 66.9305 105.51C66.3116 105.571 65.9297 105.94 65.7601 106.633C65.6729 106.992 65.5823 107.349 65.4803 107.757H62.9831C62.4597 106.766 63.2235 104.643 64.2918 103.955C66.0498 102.824 68.2638 102.786 70.1272 103.833C72.175 104.983 72.412 107.588 71.1972 109.178C69.9692 110.786 68.5799 112.272 67.2581 113.811C67.1017 113.993 66.9354 114.165 66.6507 114.475C67.6762 114.633 68.57 114.544 69.454 114.56C70.328 114.575 71.2038 114.564 72.1322 114.564V116.819H62.9864V116.817Z" fill="#CCDEF4"/>
<path d="M80.1668 103.247C79.6055 104.588 79.0902 105.862 78.5421 107.122C78.0022 108.36 77.4293 109.581 76.8301 110.898H79.9297V108.206H82.6656V110.853C83.1149 110.904 83.4524 110.944 83.831 110.988V113.326C83.4639 113.374 83.1281 113.416 82.7215 113.469V116.816H79.9824V113.451H73.7322C73.5906 112.384 73.6186 111.416 74.0532 110.478C74.8581 108.741 75.6515 107 76.4417 105.257C76.7379 104.602 77.0112 103.936 77.3075 103.248H80.1668V103.247Z" fill="#CCDEF4"/>
<path d="M72.193 57.8028V52.3888H75.5922V69.0967C74.575 69.5264 73.4605 69.1823 72.2918 69.3189C72.2342 68.914 72.1865 68.5766 72.1486 68.3C71.5132 68.6226 70.8679 69.044 70.1618 69.2877C68.8185 69.7519 67.5477 69.4177 66.4613 68.57C65.0753 67.4868 64.4827 65.9988 64.2457 64.2539C64.0481 62.7905 64.2243 61.421 64.6144 60.0481C65.5658 56.6966 69.5675 55.5378 72.193 57.8012V57.8028ZM67.5922 63.0703C67.77 63.8193 67.8671 64.5749 68.1387 65.2613C68.3971 65.9181 68.8679 66.4432 69.686 66.5008C71.2153 66.6111 71.6614 65.8934 71.9791 64.5321C72.2029 63.5691 72.0729 62.5123 72.0334 61.5C72.0021 60.6967 71.1478 59.7057 70.4827 59.5839C69.4605 59.3979 68.5371 59.8045 68.1453 60.779C67.8622 61.4868 67.7766 62.2736 67.5922 63.0687V63.0703Z" fill="#CCDEF4"/>
<path d="M89.3915 64.0185C88.9405 64.0877 88.6063 64.1832 88.2722 64.1848C86.2705 64.1996 84.2688 64.1914 82.2672 64.1914H81.4441C81.719 65.7815 82.4186 66.4251 83.803 66.4877C85.0639 66.5453 85.0656 66.5173 86.8252 65.2202C87.5001 65.8967 88.1668 66.5651 88.8911 67.2926C88.4269 67.933 87.7108 68.5453 86.8219 68.8828C85.2302 69.4852 83.617 69.7058 81.9264 69.1544C80.4235 68.6638 79.3503 67.7618 78.6951 66.3428C77.6433 64.0646 77.5708 61.765 78.6507 59.4852C79.4128 57.8802 80.7709 56.9601 82.4812 56.6687C83.8869 56.43 85.3158 56.5815 86.5717 57.3156C88.0055 58.1535 88.8532 59.4671 89.1199 61.1049C89.268 62.0152 89.296 62.9436 89.3915 64.0169V64.0185ZM81.4063 61.6597C82.0828 61.9922 85.273 61.9724 85.8129 61.6597C85.4178 60.0597 84.9404 59.6053 83.6269 59.5823C82.3873 59.5609 81.9001 60.0103 81.4063 61.6597Z" fill="#CCDEF4"/>
<path d="M98.641 60.2407C98.1192 60.2407 97.655 60.2407 97.1924 60.2407C95.7488 60.2358 94.9011 61.0622 94.9011 62.4794C94.9011 64.6721 94.9011 66.863 94.9011 69.0375C94.2558 69.3305 92.6245 69.403 91.52 69.184V56.8498H94.822C94.8665 57.202 94.9093 57.5543 94.9587 57.9461C96.4007 56.4613 97.8196 56.3527 99.2171 57.1214C99.0311 58.1239 98.8418 59.1494 98.6393 60.2407H98.641Z" fill="#CCDEF4"/>
<path d="M81.2779 84.7446V81.8639C82.147 81.9577 82.9783 81.9906 83.7833 82.1503C84.5701 82.3067 84.7676 82.705 84.6952 83.6104C84.6458 84.2293 84.2063 84.6902 83.5116 84.7347C82.7824 84.7808 82.0483 84.7446 81.2795 84.7446H81.2779Z" fill="#CCDEF4"/>
</g>
<defs>
<clipPath id="clip0_654_394">
<rect width="125" height="140.61" fill="white"/>
</clipPath>
</defs>
</svg>
