<svg width="23" height="34" viewBox="0 0 23 34" fill="none" xmlns="http://www.w3.org/2000/svg">
<path fill-rule="evenodd" clip-rule="evenodd" d="M0 0.579541C0 0.259503 0.259442 6.10352e-05 0.57948 6.10352e-05H15.6131C15.7668 6.10352e-05 15.9141 0.0610884 16.0228 0.169723L22.2174 6.36243C22.3262 6.47111 22.3872 6.61853 22.3872 6.77225V28.8079C22.3872 29.128 22.1278 29.3874 21.8078 29.3874H0.57948C0.259442 29.3874 0 29.128 0 28.8079V0.579541ZM1.15896 1.15902V28.2285H21.2283V7.01233L15.3731 1.15902H1.15896Z" fill="#DA291C"/>
<path fill-rule="evenodd" clip-rule="evenodd" d="M15.3913 0.0441445C15.6078 -0.0455586 15.8571 0.00398612 16.0228 0.169679L22.2174 6.36239C22.3832 6.5281 22.4328 6.77736 22.3431 6.99392C22.2535 7.21048 22.0421 7.35169 21.8078 7.35169H15.6131C15.2931 7.35169 15.0336 7.09224 15.0336 6.77221V0.579497C15.0336 0.345135 15.1748 0.133848 15.3913 0.0441445ZM16.1926 1.97818V6.19273H20.4085L16.1926 1.97818Z" fill="#DA291C"/>
<path fill-rule="evenodd" clip-rule="evenodd" d="M3.42856 10.6123C3.42856 10.2922 3.688 10.0328 4.00804 10.0328H18.3424C18.6625 10.0328 18.9219 10.2922 18.9219 10.6123C18.9219 10.9323 18.6625 11.1917 18.3424 11.1917H4.00804C3.688 11.1917 3.42856 10.9323 3.42856 10.6123Z" fill="#DA291C"/>
<path fill-rule="evenodd" clip-rule="evenodd" d="M3.42856 7.41542C3.42856 7.09538 3.688 6.83594 4.00804 6.83594H10.5929C10.9129 6.83594 11.1723 7.09538 11.1723 7.41542C11.1723 7.73546 10.9129 7.9949 10.5929 7.9949H4.00804C3.688 7.9949 3.42856 7.73546 3.42856 7.41542Z" fill="#DA291C"/>
<path fill-rule="evenodd" clip-rule="evenodd" d="M3.42856 13.8071C3.42856 13.487 3.688 13.2276 4.00804 13.2276H18.3424C18.6625 13.2276 18.9219 13.487 18.9219 13.8071C18.9219 14.1271 18.6625 14.3866 18.3424 14.3866H4.00804C3.688 14.3866 3.42856 14.1271 3.42856 13.8071Z" fill="#DA291C"/>
<path fill-rule="evenodd" clip-rule="evenodd" d="M3.42856 17.002C3.42856 16.6819 3.688 16.4225 4.00804 16.4225H18.3424C18.6625 16.4225 18.9219 16.6819 18.9219 17.002C18.9219 17.322 18.6625 17.5814 18.3424 17.5814H4.00804C3.688 17.5814 3.42856 17.322 3.42856 17.002Z" fill="#DA291C"/>
<path d="M9.08041 20.8748H13.2797L13.2952 25.6941H15.8758L13.5327 29.5592L11.1936 33.4205L8.85441 29.5592L6.51138 25.6941H9.09779L9.08041 20.8748Z" fill="#DA291C"/>
<path d="M11.1936 34C10.9908 34 10.8034 33.8937 10.6972 33.7199L6.01499 25.9935C5.90682 25.8138 5.90295 25.5917 6.00533 25.4082C6.1077 25.2266 6.30086 25.1127 6.50948 25.1127H8.51254L8.49902 20.8747C8.49902 20.7202 8.5589 20.5734 8.669 20.4633C8.77717 20.3551 8.92591 20.2933 9.0785 20.2933H13.2759C13.5946 20.2933 13.8534 20.5522 13.8553 20.8709L13.8689 25.1127H15.87C16.0786 25.1127 16.2718 25.2247 16.3742 25.4082C16.4765 25.5898 16.4727 25.8138 16.3645 25.9935L11.6823 33.7199C11.578 33.8937 11.3887 34 11.1859 34H11.1936ZM7.54095 26.2736L11.1936 32.3021L14.8463 26.2736H13.2952C12.9765 26.2736 12.7176 26.0147 12.7157 25.696L12.7022 21.4542H9.66378L9.6773 25.6922C9.6773 25.8467 9.61742 25.9935 9.50732 26.1036C9.39915 26.2118 9.25042 26.2736 9.09782 26.2736H7.54095Z" fill="#DA291C"/>
</svg>
